<svg width="371" height="62" viewBox="0 0 371 62" fill="none" xmlns="http://www.w3.org/2000/svg">
<path d="M321.544 6.4463L327.144 10.1223L326.338 3.84434L327.887 3L329 13L320 7.29064L321.544 6.4463Z" fill="#E8E2DC"/>
<path fill-rule="evenodd" clip-rule="evenodd" d="M334.595 0.105596C332.058 0.63136 330.582 2.88872 331.105 5.4261C331.621 7.96348 333.88 9.41504 336.4 8.89499C338.92 8.37494 340.419 6.13473 339.897 3.59735C339.374 1.05997 337.132 -0.420167 334.595 0.105596ZM336.133 7.60916C334.652 7.91776 333 7.16912 332.58 5.1175C332.166 3.08873 333.341 1.71146 334.856 1.39715C336.377 1.07712 337.995 1.85433 338.415 3.90595C338.829 5.93472 337.632 7.29484 336.133 7.60916Z" fill="#E8E2DC"/>
<path d="M344.619 7.86224L341.863 0L343.554 0.240235L345.65 6.43721L349.356 1.07014L351 1.30491L342.65 13L341 12.7652L344.619 7.86224Z" fill="#E8E2DC"/>
<path fill-rule="evenodd" clip-rule="evenodd" d="M361 5.23917L359.644 4.43277L358.978 5.53626C358.898 4.85719 358.587 3.55361 357.078 2.65626C355.086 1.47395 352.441 1.78317 350.828 4.45702C349.185 7.18544 350.175 9.65314 352.154 10.8294C353.529 11.6419 354.818 11.4175 355.618 11.1083L354.964 12.1936L356.32 13L361 5.23917ZM353.028 9.71984C351.403 8.75579 351.219 6.94291 352.221 5.28161C353.364 3.39597 355.172 3.14738 356.516 3.94165C357.719 4.66317 358.581 6.36691 357.377 8.36775C356.449 9.90173 354.683 10.7081 353.028 9.71984Z" fill="#E8E2DC"/>
<path fill-rule="evenodd" clip-rule="evenodd" d="M370 17.2462L369.327 15.9329L368.268 16.4891C368.537 15.9042 368.918 14.6998 368.173 13.2374C367.181 11.299 364.961 10.2552 362.41 11.6202C359.804 13.0138 359.389 15.497 360.37 17.4125C361.054 18.7487 362.169 19.196 362.948 19.3394L361.861 19.9244C361.239 20.257 360.555 20.5724 359.753 20.5151C358.817 20.4635 358.167 19.9932 357.691 19.0641C357.394 18.4792 357.164 17.7164 357.472 16.8562C357.663 16.34 358.089 15.7837 358.711 15.4511L358.049 14.155C356.956 14.7342 356.396 15.6404 356.16 16.4203C355.919 17.2003 355.88 18.3645 356.542 19.6606C357.27 21.0828 358.431 21.7882 359.468 21.9546C360.807 22.1725 361.951 21.5589 362.752 21.1288L362.752 21.1287L370 17.2462ZM361.598 16.9594C360.796 15.388 361.525 13.8339 363.111 12.9851C364.916 12.0159 366.452 12.7098 367.108 14.0059C367.707 15.1758 367.562 16.9766 365.65 17.9974C364.193 18.7831 362.422 18.5652 361.598 16.9594Z" fill="#E8E2DC"/>
<path fill-rule="evenodd" clip-rule="evenodd" d="M362.561 29.1298C363.014 29.5159 363.582 29.8223 364.092 30L364.551 28.5845C364.115 28.4558 363.639 28.2045 363.249 27.8491C362.767 27.4018 362.475 26.8503 362.36 26.1088C362.125 24.5401 363.042 23.0633 364.792 22.7385L365.864 29.761C366.994 29.6078 368.245 29.0563 368.91 28.3577C369.564 27.6837 370.207 26.4336 369.937 24.6749C369.524 21.9542 367.321 20.6428 364.798 21.084C361.666 21.6294 360.731 24.1357 361.064 26.311C361.241 27.4631 361.74 28.4251 362.561 29.1298ZM368.635 24.9078C368.841 26.2314 368.13 27.4508 366.845 27.941L366.037 22.6405C367.333 22.6589 368.434 23.5842 368.635 24.9078Z" fill="#E8E2DC"/>
<path d="M368.794 36.3103C369.292 36.1136 369.67 35.6797 369.682 35.1185C369.693 34.5804 369.39 34.0713 368.731 34.0597C368.112 34.0481 367.923 34.4589 367.488 35.4309C366.95 36.669 366.549 37.2418 366.131 37.5658C365.672 37.9303 365.214 38.0055 364.745 37.9997C362.952 37.965 361.967 36.6401 362.001 34.9738C362.007 34.6209 362.081 32.6885 364.235 32L364.75 33.296C364.292 33.458 363.335 33.9382 363.318 35.0201C363.301 35.9979 364.011 36.4491 364.653 36.4607C365.455 36.4781 365.735 35.8995 366.096 35.0953C366.566 34.0655 366.91 33.4059 367.391 33.0183C367.809 32.6943 368.221 32.6364 368.657 32.648C370.157 32.6769 371.028 33.753 370.999 35.211C370.988 35.6681 370.885 36.8946 369.413 37.5542L368.794 36.3103Z" fill="#E8E2DC"/>
<path fill-rule="evenodd" clip-rule="evenodd" d="M68.1599 34.3364C68.9489 34.3364 69.5938 34.0883 70.1063 33.5979C70.6189 33.1017 70.8723 32.4844 70.8607 31.746C70.8607 28.6364 70.2734 25.8787 69.0928 23.4787C67.918 21.0787 66.225 19.2094 64.0252 17.871C61.8254 16.5325 59.2167 15.8633 56.1876 15.8633C53.1182 15.8633 50.3771 16.5614 47.9642 17.9575C45.5513 19.3537 43.6625 21.3037 42.3092 23.8017C40.9501 26.3056 40.2764 29.1267 40.2764 32.2767C40.2764 35.4267 40.9962 38.2421 42.4301 40.7229C43.864 43.2037 45.8565 45.1421 48.4134 46.5383C50.9702 47.9344 53.8553 48.6325 57.0802 48.6325C58.8827 48.6325 60.783 48.2979 62.764 47.6287C64.7508 46.9537 66.4093 46.0941 67.7453 45.0267C68.373 44.5537 68.6897 43.9652 68.6897 43.2556C68.6897 42.5114 68.3384 41.8364 67.6301 41.2479C67.1982 40.8556 66.6108 40.6594 65.8622 40.6594C65.1136 40.6594 64.4628 40.8729 63.9158 41.3056C63.0865 41.9344 62.0384 42.4652 60.76 42.8979C59.4816 43.3364 58.2492 43.5498 57.0744 43.5498C54.0914 43.5498 51.5634 42.7075 49.5018 41.0114C47.4402 39.3152 46.1905 37.0941 45.7586 34.3364H68.1599ZM45.8277 29.6056C46.2942 26.969 47.4229 24.8633 49.2138 23.2883C50.999 21.7191 53.3255 20.9287 56.1991 20.9287C58.7905 20.9287 60.8925 21.7133 62.5049 23.2883C64.1173 24.8633 65.0963 26.969 65.4533 29.6056H45.8277Z" fill="#E8E2DC"/>
<path d="M94.0683 43.3067C94.5578 43.8606 94.8055 44.5702 94.8055 45.4356C94.8055 46.301 94.483 47.0106 93.8322 47.5644C93.1873 48.1183 92.3523 48.3894 91.3272 48.3894H90.2619C88.3385 48.3894 86.5763 47.8875 84.9869 46.8837C83.3917 45.8798 82.1479 44.5125 81.2438 42.7817C80.3396 41.051 79.8905 39.101 79.8905 36.9375V22.3529H77.1781C76.3546 22.3529 75.6866 22.1163 75.1741 21.6433C74.6616 21.1702 74.4082 20.5817 74.4082 19.8721C74.4082 19.0817 74.6616 18.4529 75.1741 17.9798C75.6866 17.5067 76.3546 17.2702 77.1781 17.2702H79.8905V8.76635C79.8905 7.90096 80.1669 7.19135 80.714 6.6375C81.261 6.08942 81.9694 5.8125 82.8389 5.8125C83.7027 5.8125 84.411 6.08942 84.9639 6.6375C85.5109 7.18558 85.7874 7.89519 85.7874 8.76635V17.2702H90.7974C91.6209 17.2702 92.2889 17.5067 92.8014 17.9798C93.314 18.4529 93.5673 19.0817 93.5673 19.8721C93.5673 20.5817 93.3082 21.1702 92.8014 21.6433C92.2889 22.1163 91.6267 22.3529 90.7974 22.3529H85.7874V36.9375C85.7874 38.5125 86.2193 39.8279 87.0831 40.8952C87.9469 41.9567 89.0065 42.4875 90.2676 42.4875H92.2716C92.9742 42.4817 93.5731 42.7587 94.0683 43.3067Z" fill="#E8E2DC"/>
<path fill-rule="evenodd" clip-rule="evenodd" d="M128.396 34.3364C129.185 34.3364 129.83 34.0883 130.342 33.5979C130.855 33.1017 131.114 32.4844 131.097 31.746C131.097 28.6364 130.509 25.8787 129.329 23.4787C128.154 21.0787 126.461 19.2094 124.261 17.871C122.061 16.5325 119.453 15.8633 116.423 15.8633C113.354 15.8633 110.613 16.5614 108.2 17.9575C105.787 19.3537 103.898 21.3037 102.545 23.8017C101.186 26.3056 100.512 29.1267 100.512 32.2767C100.512 35.4267 101.232 38.2421 102.666 40.7229C104.1 43.2037 106.092 45.1421 108.649 46.5383C111.206 47.9344 114.091 48.6325 117.316 48.6325C119.119 48.6325 121.019 48.2979 123 47.6287C124.987 46.9537 126.645 46.0941 127.981 45.0267C128.609 44.5537 128.926 43.9652 128.926 43.2556C128.926 42.5114 128.574 41.8364 127.866 41.2479C127.434 40.8556 126.847 40.6594 126.098 40.6594C125.349 40.6594 124.699 40.8729 124.152 41.3056C123.322 41.9344 122.274 42.4652 120.996 42.8979C119.717 43.3364 118.485 43.5498 117.31 43.5498C114.327 43.5498 111.799 42.7075 109.738 41.0114C107.676 39.3152 106.426 37.0941 105.994 34.3364H128.396ZM106.064 29.6056C106.53 26.969 107.659 24.8633 109.45 23.2883C111.235 21.7191 113.567 20.9287 116.435 20.9287C119.026 20.9287 121.128 21.7133 122.741 23.2883C124.353 24.8633 125.332 26.969 125.689 29.6056H106.064Z" fill="#E8E2DC"/>
<path d="M159.464 16.6766C160.644 17.3055 161.232 18.0959 161.232 19.0362C161.232 19.3132 161.215 19.5093 161.174 19.6247C160.817 20.8882 160.034 21.517 158.819 21.517C158.623 21.517 158.329 21.4766 157.932 21.4016C156.36 21.1247 155.082 20.9862 154.103 20.9862C151.275 20.9862 148.995 21.6324 147.267 22.9362C145.539 24.2343 144.67 25.9882 144.67 28.192V45.4362C144.67 46.3824 144.428 47.1093 143.933 47.6228C143.443 48.1362 142.706 48.3901 141.721 48.3901C140.777 48.3901 140.051 48.1478 139.539 47.6516C139.026 47.1612 138.773 46.4228 138.773 45.4362V19.042C138.773 18.0959 139.026 17.3689 139.539 16.8555C140.051 16.3478 140.777 16.0882 141.721 16.0882C143.685 16.0882 144.664 17.0747 144.664 19.042V20.1612C145.845 18.7824 147.296 17.7035 149.029 16.9132C150.763 16.1228 152.605 15.7305 154.569 15.7305C156.648 15.7305 158.283 16.0478 159.464 16.6766Z" fill="#E8E2DC"/>
<path d="M185.603 17.0924C187.624 17.9174 189.225 19.0597 190.406 20.5135C190.918 21.1424 191.171 21.777 191.171 22.4058C191.171 23.0751 190.837 23.6866 190.169 24.2347C189.738 24.552 189.185 24.7077 188.517 24.7077C187.497 24.7077 186.57 24.3327 185.747 23.5885C184.762 22.6827 183.72 22.0424 182.62 21.6674C181.52 21.2924 180.184 21.1077 178.612 21.1077C176.804 21.1077 175.324 21.4135 174.16 22.0251C172.997 22.6366 172.421 23.4904 172.421 24.5924C172.421 25.3827 172.617 26.0404 173.009 26.5712C173.4 27.102 174.149 27.5924 175.249 28.0481C176.349 28.4981 177.938 28.9424 180.023 29.3751C184.307 30.2404 187.342 31.4404 189.127 32.9751C190.912 34.5097 191.811 36.5001 191.811 38.9404C191.811 40.752 191.321 42.3962 190.336 43.8731C189.352 45.3501 187.912 46.5097 186.006 47.3577C184.1 48.2058 181.808 48.627 179.136 48.627C176.464 48.627 173.953 48.2116 171.592 47.3866C169.237 46.5616 167.382 45.477 166.052 44.1385C165.54 43.6251 165.286 43.0193 165.286 42.3097C165.286 41.3635 165.678 40.5962 166.467 40.0077C167.215 39.4597 167.901 39.1827 168.528 39.1827C169.311 39.1827 170.06 39.5404 170.768 40.2501C171.517 41.0751 172.634 41.7962 174.126 42.4077C175.617 43.0193 177.212 43.3193 178.9 43.3193C181.14 43.3193 182.879 42.9443 184.117 42.2001C185.355 41.4501 185.971 40.4462 185.971 39.1885C185.971 37.9654 185.361 36.9558 184.146 36.1481C182.925 35.3404 180.863 34.6654 177.955 34.1116C170.411 32.6577 166.639 29.5424 166.639 24.7827C166.639 22.8558 167.21 21.2174 168.35 19.8789C169.49 18.5404 170.981 17.5366 172.83 16.8674C174.679 16.1981 176.642 15.8635 178.721 15.8635C181.29 15.852 183.581 16.2674 185.603 17.0924Z" fill="#E8E2DC"/>
<path fill-rule="evenodd" clip-rule="evenodd" d="M204.583 3.09453C204.013 2.54645 203.293 2.26953 202.429 2.26953C201.525 2.26953 200.8 2.54645 200.253 3.09453C199.7 3.64838 199.429 4.3753 199.429 5.28107V32.2061C199.429 35.2811 200.149 38.0618 201.583 40.5657C203.017 43.0638 204.963 45.0311 207.416 46.4676C209.875 47.9099 212.611 48.6253 215.64 48.6253C218.663 48.6253 221.427 47.9041 223.921 46.4676C226.414 45.0311 228.372 43.0638 229.783 40.5657C231.2 38.0618 231.908 35.2753 231.908 32.2061C231.908 29.1368 231.252 26.3503 229.933 23.8522C228.614 21.3484 226.806 19.3926 224.508 17.9734C222.205 16.5599 219.642 15.8503 216.815 15.8503C214.534 15.8503 212.415 16.3176 210.451 17.2638C208.488 18.2099 206.818 19.5311 205.441 21.2215V5.28107C205.441 4.3753 205.153 3.64838 204.583 3.09453ZM220.967 41.858C219.377 42.8272 217.598 43.3061 215.634 43.3061C213.67 43.3061 211.891 42.8272 210.302 41.858C208.712 40.8945 207.463 39.5676 206.558 37.8715C205.649 36.1811 205.199 34.2945 205.199 32.2061C205.199 30.1234 205.654 28.2426 206.558 26.5695C207.463 24.8965 208.712 23.5753 210.302 22.6118C211.891 21.6484 213.67 21.1638 215.634 21.1638C217.598 21.1638 219.377 21.6484 220.967 22.6118C222.556 23.5753 223.817 24.8965 224.739 26.5695C225.666 28.2426 226.126 30.1176 226.126 32.2061C226.126 34.2888 225.66 36.1811 224.739 37.8715C223.817 39.5676 222.562 40.8945 220.967 41.858Z" fill="#E8E2DC"/>
<path fill-rule="evenodd" clip-rule="evenodd" d="M269.893 23.8247C268.453 21.3035 266.478 19.3247 263.967 17.8882C261.45 16.4516 258.663 15.7305 255.594 15.7305C252.49 15.7305 249.68 16.4516 247.163 17.8882C244.652 19.3305 242.677 21.3093 241.243 23.8247C239.803 26.3459 239.089 29.1612 239.089 32.2709C239.089 35.3459 239.809 38.1382 241.243 40.6593C242.671 43.1747 244.652 45.1535 247.163 46.5901C249.68 48.0324 252.49 48.7478 255.594 48.7478C258.663 48.7478 261.45 48.0266 263.967 46.5901C266.483 45.1593 268.459 43.1747 269.893 40.6593C271.326 38.1382 272.046 35.3401 272.046 32.2709C272.046 29.1612 271.326 26.3459 269.893 23.8247ZM244.341 25.5382C245.476 23.5305 247.031 21.9439 248.994 20.7843C250.958 19.6247 253.164 19.042 255.6 19.042C258.035 19.042 260.235 19.6247 262.199 20.7843C264.163 21.9439 265.712 23.5305 266.829 25.5382C267.952 27.5459 268.51 29.7901 268.51 32.2709C268.51 34.7516 267.952 36.9959 266.829 39.0035C265.706 41.0112 264.163 42.5862 262.199 43.7285C260.235 44.8709 258.035 45.442 255.6 45.442C253.158 45.442 250.958 44.8709 248.994 43.7285C247.031 42.5862 245.481 41.0112 244.341 39.0035C243.201 36.9959 242.631 34.7516 242.631 32.2709C242.631 29.7901 243.201 27.5459 244.341 25.5382Z" fill="#E8E2DC"/>
<path d="M284.894 16.5612C285.21 16.8785 285.366 17.3112 285.366 17.8593V46.6189C285.366 47.1324 285.21 47.5535 284.894 47.8881C284.577 48.2228 284.145 48.3901 283.598 48.3901C283.085 48.3901 282.665 48.2228 282.331 47.8881C281.997 47.5535 281.83 47.1324 281.83 46.6189V43.5497C280.494 45.2054 278.864 46.492 276.935 47.4151C275.012 48.3439 272.91 48.8054 270.629 48.8054C267.762 48.8054 265.199 48.217 262.936 47.0343C260.673 45.8516 258.905 44.1324 257.632 41.8651C256.354 39.6035 255.714 36.8978 255.714 33.7478V17.8651C255.714 17.3516 255.881 16.9304 256.215 16.5958C256.549 16.2612 256.97 16.0939 257.482 16.0939C257.995 16.0939 258.415 16.2612 258.749 16.5958C259.083 16.9304 259.25 17.3516 259.25 17.8651V33.7478C259.25 37.4862 260.298 40.342 262.4 42.3093C264.502 44.2766 267.243 45.2574 270.624 45.2574C272.708 45.2574 274.603 44.8535 276.307 44.0516C278.018 43.2439 279.365 42.1247 280.344 40.6881C281.323 39.2516 281.818 37.6651 281.818 35.9343V17.8651C281.818 17.317 281.985 16.8843 282.319 16.567C282.653 16.2497 283.074 16.0939 283.586 16.0939C284.151 16.0881 284.583 16.2439 284.894 16.5612Z" fill="#E8E2DC"/>
<path fill-rule="evenodd" clip-rule="evenodd" d="M286.547 6.522C286.547 5.65661 286.282 4.98738 285.752 4.5143C285.222 4.04123 284.583 3.80469 283.834 3.80469C283.086 3.80469 282.435 4.04123 281.888 4.5143C281.335 4.98738 281.064 5.65661 281.064 6.522C281.064 7.31238 281.318 7.97007 281.83 8.50084C282.343 9.03161 282.988 9.297 283.777 9.297C284.566 9.297 285.222 9.03161 285.752 8.50084C286.282 7.97007 286.547 7.31238 286.547 6.522ZM283.84 16.0874C283.333 16.0874 282.907 16.2431 282.573 16.5605C282.239 16.872 282.072 17.3047 282.072 17.8585V46.6181C282.072 47.1316 282.239 47.5528 282.573 47.8874C282.907 48.222 283.328 48.3893 283.84 48.3893C284.387 48.3893 284.819 48.222 285.136 47.8874C285.453 47.5528 285.608 47.1316 285.608 46.6181V17.8585C285.608 17.3105 285.453 16.8778 285.136 16.5605C284.819 16.2431 284.387 16.0874 283.84 16.0874Z" fill="#E8E2DC"/>
<path d="M318.421 16.6766C319.601 17.3055 320.189 18.0959 320.189 19.0362C320.189 19.3132 320.172 19.5093 320.131 19.6247C319.774 20.8882 318.991 21.517 317.776 21.517C317.58 21.517 317.286 21.4766 316.889 21.4016C315.317 21.1247 314.039 20.9862 313.06 20.9862C310.232 20.9862 307.952 21.6324 306.224 22.9362C304.496 24.2343 303.627 25.9882 303.627 28.192V45.4362C303.627 46.3824 303.385 47.1093 302.89 47.6228C302.4 48.1362 301.663 48.3901 300.678 48.3901C299.734 48.3901 299.008 48.1478 298.496 47.6516C297.983 47.1612 297.73 46.4228 297.73 45.4362V19.042C297.73 18.0959 297.983 17.3689 298.496 16.8555C299.008 16.3478 299.734 16.0882 300.678 16.0882C302.642 16.0882 303.621 17.0747 303.621 19.042V20.1612C304.802 18.7824 306.253 17.7035 307.986 16.9132C309.714 16.1228 311.562 15.7305 313.526 15.7305C315.611 15.7305 317.246 16.0478 318.421 16.6766Z" fill="#E8E2DC"/>
<path fill-rule="evenodd" clip-rule="evenodd" d="M352.754 23.7612C351.36 21.2804 349.431 19.3419 346.978 17.9458C344.525 16.5496 341.743 15.8516 338.639 15.8516C335.495 15.8516 332.685 16.5496 330.209 17.9458C327.732 19.3419 325.809 21.2804 324.433 23.7612C323.056 26.2419 322.371 29.0746 322.371 32.265C322.371 35.415 323.005 38.2304 324.283 40.7112C325.561 43.1919 327.352 45.1304 329.65 46.5266C331.948 47.9227 334.551 48.6208 337.459 48.6208C339.97 48.6208 342.233 48.015 344.237 46.7919C346.247 45.5746 347.853 43.8785 349.074 41.715V44.6054C349.074 47.0862 348.602 49.2208 347.657 51.015C346.713 52.8035 345.458 54.165 343.886 55.0881C342.313 56.0169 340.563 56.4785 338.639 56.4785C336.595 56.4785 334.77 56.1208 333.157 55.3881C331.545 54.6554 330.209 53.6054 329.149 52.2266C328.521 51.4016 327.715 50.9862 326.73 50.9862C326.178 50.9862 325.625 51.1593 325.078 51.5169C324.254 52.1054 323.84 52.815 323.84 53.64C323.84 54.1939 324.053 54.7477 324.485 55.2958C326.137 57.3843 328.182 58.9823 330.618 60.1073C333.053 61.2323 335.691 61.7919 338.518 61.7919C341.663 61.7919 344.484 61.0535 346.978 59.5766C349.471 58.0996 351.406 56.0862 352.783 53.5246C354.153 50.9631 354.844 48.1304 354.844 45.0208V32.265C354.844 29.0746 354.148 26.2419 352.754 23.7612ZM347.75 37.965C346.863 39.6381 345.63 40.9477 344.035 41.8939C342.446 42.84 340.643 43.3073 338.645 43.3073C336.635 43.3073 334.844 42.84 333.249 41.8939C331.66 40.9477 330.41 39.6381 329.506 37.965C328.602 36.2977 328.153 34.3939 328.153 32.2708C328.153 30.1419 328.602 28.2381 329.506 26.5419C330.41 24.8516 331.654 23.5304 333.249 22.5843C334.844 21.6381 336.641 21.165 338.645 21.165C340.649 21.165 342.446 21.6381 344.035 22.5843C345.625 23.5304 346.863 24.8516 347.75 26.5419C348.631 28.2381 349.074 30.1419 349.074 32.2708C349.074 34.3939 348.631 36.2919 347.75 37.965Z" fill="#E8E2DC"/>
<path fill-rule="evenodd" clip-rule="evenodd" d="M24.8846 19.1764C27.4181 20.6254 29.4074 22.6098 30.841 25.1296C32.2745 27.6494 32.9941 30.4601 33 33.5618C33 36.6577 32.333 39.4684 30.9931 41.9882C29.6532 44.5137 27.816 46.4865 25.4814 47.918C23.141 49.3438 20.5372 50.0595 17.6644 50.0595C15.3473 50.0595 13.1941 49.5824 11.1989 48.628C9.20372 47.6736 7.44255 46.3294 6.04415 44.6185V45.0724C5.86862 50.9732 8.82926 53.9643 10.3856 54.9652C13.6973 57.0951 10.567 61.4887 7.24362 59.4927C4.72181 57.9796 0.175532 54.1214 0.175532 45.4914L0 33.5618C0 30.4601 0.731383 27.6552 2.1883 25.1296C3.64521 22.6098 5.61702 20.6254 8.11543 19.1764C10.6138 17.7274 13.3989 17 16.4707 17C19.5426 17 22.3511 17.7274 24.8846 19.1764ZM21.8888 43.2393C23.5037 42.2675 24.7851 40.9349 25.7213 39.2473C26.6574 37.5597 27.1314 35.6684 27.1314 33.5618C27.1314 31.4552 26.6574 29.5523 25.7213 27.8414C24.7851 26.1305 23.5096 24.7921 21.8888 23.8202C20.2739 22.8484 18.466 22.3596 16.4707 22.3596C14.4755 22.3596 12.6734 22.8484 11.0527 23.8202C9.43777 24.7921 8.16809 26.1363 7.24947 27.8414C6.325 29.5523 5.86862 31.461 5.86862 33.5618C5.86862 35.6626 6.33085 37.5597 7.24947 39.2473C8.16809 40.9349 9.43777 42.2675 11.0527 43.2393C12.6676 44.217 14.4755 44.7 16.4707 44.7C18.466 44.7 20.2739 44.2111 21.8888 43.2393Z" fill="#E8E2DC"/>
</svg>
