<svg width="62" height="62" viewBox="0 0 62 62" fill="none" xmlns="http://www.w3.org/2000/svg">
<mask id="mask0" mask-type="alpha" maskUnits="userSpaceOnUse" x="0" y="0" width="62" height="62">
<path fill-rule="evenodd" clip-rule="evenodd" d="M0 0H62V62H0V0Z" fill="white"/>
</mask>
<g mask="url(#mask0)">
<path fill-rule="evenodd" clip-rule="evenodd" d="M31.3224 0.0502756C38.2638 0.0504257 45.2054 0.0315135 52.1467 0.0604822C54.6284 0.0709889 56.9251 0.696592 58.8383 2.4086C61.0103 4.3522 61.9564 6.8309 61.9761 9.67148C62.0139 15.1382 61.9872 20.6053 61.9872 26.0723C61.9873 34.5099 62.025 42.9478 61.9705 51.385C61.9458 55.2063 60.477 58.3806 57.2085 60.5507C55.8963 61.4217 54.4214 61.9175 52.8421 61.963C50.9958 62.0162 49.1468 61.9711 47.2997 61.9997C46.6773 62.0095 46.4727 61.7561 46.4739 61.1542C46.4889 53.3157 46.4926 45.4772 46.4851 37.6389C46.4847 37.0385 46.7411 36.8896 47.2995 36.8714C49.1193 36.8126 50.9371 36.6939 52.7565 36.6152C53.16 36.5978 53.4414 36.4788 53.4914 36.0453C53.7512 33.7925 53.9976 31.5379 54.2696 29.2864C54.353 28.594 54.0429 28.4373 53.4147 28.4457C51.3926 28.4726 49.3698 28.4427 47.3474 28.4607C46.8294 28.4654 46.5937 28.3356 46.5688 27.7572C46.5019 26.2097 46.4695 24.6616 46.5387 23.1169C46.6084 21.5527 47.6398 20.6072 49.2194 20.5856C50.6424 20.5664 52.066 20.5685 53.489 20.5915C54.0441 20.6003 54.3121 20.4339 54.3077 19.8291C54.2912 17.483 54.3067 15.1365 54.3095 12.79C54.31 12.4408 54.2648 12.1197 53.802 12.1301C50.4873 12.205 47.154 11.8671 43.8607 12.4204C39.2155 13.201 36.5569 16.3814 36.517 21.1024C36.4987 23.274 36.4865 25.4459 36.5107 27.6174C36.5186 28.3272 36.2646 28.6029 35.5483 28.5811C34.426 28.5469 33.3013 28.5987 32.1781 28.5832C31.6325 28.5756 31.431 28.7878 31.4336 29.337C31.4445 31.5807 31.6115 33.8251 31.437 36.0683C31.3958 36.5969 31.6256 36.7652 32.135 36.7637C33.307 36.7598 34.478 36.7707 35.6511 36.8576C36.3186 36.907 36.5035 37.1566 36.5 37.7668C36.4864 40.0632 36.5036 42.36 36.5035 44.6566C36.5032 50.0732 36.4997 55.4899 36.4972 60.9066C36.4967 61.9925 36.4832 61.9972 35.4226 61.9966C27.2078 61.9925 18.9929 62.0014 10.7781 61.987C4.77677 61.9762 0.0301478 57.2291 0.0262475 51.2316C0.0172469 37.5518 0.0699005 23.8717 0.000145753 10.192C-0.0271561 4.79694 3.78415 0.901475 8.86109 0.200823C11.4897 -0.161961 14.1469 0.0817959 16.7905 0.0609324C21.6342 0.0228079 26.4784 0.0501255 31.3224 0.0502756Z" fill="#E7E1DB"/>
</g>
</svg>
