<svg width="62" height="62" viewBox="0 0 62 62" fill="none" xmlns="http://www.w3.org/2000/svg">
<mask id="mask0" mask-type="alpha" maskUnits="userSpaceOnUse" x="0" y="0" width="62" height="62">
<path fill-rule="evenodd" clip-rule="evenodd" d="M0 0H62V62H0V0Z" fill="white"/>
</mask>
<g mask="url(#mask0)">
<path fill-rule="evenodd" clip-rule="evenodd" d="M14.2409 20.0616C14.6422 20.0568 15.0407 20.0383 15.4389 19.9694C17.7321 19.5725 19.2347 17.7786 19.431 15.8201C19.6367 13.7692 18.6139 11.8434 16.7492 10.9788C15.6152 10.4529 14.4124 10.3916 13.21 10.5897C11.2772 10.9082 9.84646 11.953 9.30303 13.8703C8.78131 15.711 9.1345 17.4287 10.5982 18.7891C11.6209 19.7396 12.875 20.0715 14.2409 20.0616ZM9.66628 37.9079C9.66628 42.3838 9.66601 46.8596 9.66677 51.3354C9.66683 51.8416 9.68613 51.8603 10.1889 51.8605C12.2429 51.8613 14.2968 51.8608 16.3509 51.8607C17.0509 51.8607 17.751 51.8533 18.4507 51.8636C18.7331 51.8678 18.8542 51.7509 18.8376 51.4748C18.8329 51.3947 18.8374 51.3142 18.8374 51.2338C18.8341 47.1142 18.8279 42.9945 18.8282 38.8748C18.8285 34.0896 18.8347 29.3043 18.8376 24.5191C18.8379 24.0217 18.7992 23.9814 18.3156 23.9812C15.6307 23.9802 12.9458 23.9801 10.2609 23.9807C9.68124 23.9809 9.66628 23.9977 9.66628 24.5838C9.66621 29.0251 9.66621 33.4665 9.66628 37.9079ZM33.3425 27.9763C33.1985 26.7835 33.4071 25.6179 33.2933 24.4556C33.2522 24.0351 33.2275 23.9835 32.8019 23.9821C31.976 23.9793 31.1499 23.9858 30.3238 23.9856C28.3735 23.9851 26.4231 23.9852 24.4728 23.979C24.1969 23.9781 24.0746 24.0821 24.0867 24.3667C24.1125 24.974 24.1358 25.5819 24.1373 26.1896C24.1455 29.414 24.1509 32.6384 24.1489 35.8629C24.1465 39.8553 24.1613 43.848 24.1134 47.8398C24.0991 49.0316 24.1865 50.224 24.0915 51.416C24.0579 51.8374 24.1062 51.8599 24.5382 51.8603C26.1674 51.8616 27.7967 51.861 29.426 51.861C30.5733 51.861 31.7207 51.8576 32.868 51.8626C33.1226 51.8637 33.2764 51.8041 33.2904 51.5043C33.3606 49.9913 33.2887 48.4778 33.3159 46.9645C33.3398 45.6355 33.2864 44.3052 33.2996 42.9758C33.3047 42.4603 33.3256 41.9444 33.3217 41.4281C33.3117 40.0985 33.2867 38.7687 33.301 37.4394C33.3064 36.9237 33.3496 36.4062 33.3131 35.8922C33.2809 35.4381 33.315 34.9926 33.4293 34.5614C34.0427 32.2466 36.2609 30.1333 39.2622 30.602C40.9163 30.8603 42.0101 31.7571 42.6073 33.309C43.0606 34.4869 43.1931 35.7183 43.1973 36.9582C43.2134 41.7429 43.1989 46.5277 43.196 51.3124C43.1957 51.8478 43.2094 51.8608 43.7647 51.8609C46.4036 51.861 49.0427 51.861 51.6816 51.861C52.3697 51.8609 52.3678 51.8606 52.3674 51.1542C52.3663 48.7788 52.3849 46.4034 52.3621 44.0282C52.329 40.5869 52.4901 37.1429 52.2647 33.7049C52.1435 31.8569 51.7172 30.0714 50.8206 28.4332C49.5882 26.1812 47.7595 24.6296 45.295 23.8552C43.8893 23.4135 42.4567 23.2725 40.9825 23.3566C38.6234 23.4913 36.5967 24.3348 34.9115 25.9972C34.3134 26.5871 33.8302 27.2667 33.3425 27.9763ZM52.0165 62H10.0167C9.86176 61.9592 9.70888 61.9067 9.55159 61.8795C7.16535 61.4666 5.1474 60.3543 3.44534 58.6519C1.18194 56.3881 -0.00397776 53.6842 2.00984e-05 50.4489C0.0162183 37.4948 0.00649938 24.5407 0.00760224 11.5866C0.00767117 10.9903 0.00663724 10.3945 0.100656 9.80147C0.527255 7.11103 1.79389 4.87826 3.78647 3.04684C5.93435 1.07265 8.44769 -0.000344597 11.3911 8.30159e-08C24.5159 0.00172348 37.6407 0.000965188 50.7655 0.001172C52.9784 0.00124093 55.0004 0.646689 56.8103 1.89671C59.0439 3.43922 60.6771 5.46263 61.5282 8.07386C61.7349 8.70821 61.8176 9.37151 62 10.011V51.9465C61.9563 52.1477 61.9066 52.3479 61.8697 52.5504C61.556 54.2725 60.8864 55.8419 59.8274 57.2358C58.3504 59.18 56.5089 60.6421 54.1805 61.4518C53.4741 61.6974 52.7358 61.8095 52.0165 62Z" fill="#E7E1DB"/>
</g>
</svg>
