<svg width="61" height="68" viewBox="0 0 61 68" fill="none" xmlns="http://www.w3.org/2000/svg">
<mask id="mask0" mask-type="alpha" maskUnits="userSpaceOnUse" x="0" y="31" width="61" height="37">
<path fill-rule="evenodd" clip-rule="evenodd" d="M0 31.0571H60.9277V67.9999H0V31.0571Z" fill="white"/>
</mask>
<g mask="url(#mask0)">
<path fill-rule="evenodd" clip-rule="evenodd" d="M9.91119 49.7155C9.91119 53.3359 9.91081 56.9563 9.91157 60.5767C9.9117 61.2007 9.96042 61.2496 10.575 61.2508C11.3486 61.252 12.1223 61.2511 12.8959 61.2511C13.9139 61.2511 13.914 61.2511 13.914 60.2531C13.914 53.0878 13.9139 45.9225 13.9144 38.7571C13.9145 38.2399 13.9231 38.2316 14.4466 38.2307C15.2836 38.229 16.1205 38.2334 16.9577 38.2282C17.4199 38.2253 17.558 38.0992 17.5628 37.6509C17.5719 36.7961 17.5716 35.9413 17.5629 35.0864C17.5587 34.6818 17.3879 34.5102 16.9771 34.5097C13.5656 34.505 10.1542 34.5052 6.74261 34.509C6.30903 34.5095 6.18121 34.6456 6.1783 35.0834C6.17247 35.938 6.1726 36.793 6.17817 37.6476C6.18121 38.1123 6.29308 38.2235 6.76919 38.2274C7.61888 38.2344 8.46858 38.2295 9.31828 38.2304C9.90917 38.231 9.91081 38.2315 9.91081 38.8167C9.91132 42.4496 9.91107 46.0826 9.91119 49.7155ZM43.8703 51.6458C43.9114 52.958 43.861 54.578 43.9117 56.1993C44.0006 59.0439 46.6593 62.1493 50.4284 61.0063C51.997 60.5307 53.1709 59.618 53.7482 58.0522C54.1716 56.9031 54.121 55.7041 54.0924 54.5107C54.0861 54.24 53.8826 54.1671 53.6383 54.1682C52.9029 54.1716 52.1675 54.1696 51.4321 54.1723C50.9113 54.1744 50.8151 54.2655 50.8032 54.7871C50.7928 55.2392 50.8103 55.6925 50.7879 56.144C50.7422 57.0645 50.1442 57.7582 49.3254 57.868C48.5182 57.9761 47.7986 57.4785 47.4831 56.6046C47.3613 56.2668 47.327 55.9206 47.3274 55.5664C47.3282 54.3976 47.3257 53.2288 47.3276 52.06C47.3285 51.5992 47.3508 51.5781 47.8298 51.5787C49.6937 51.5815 51.5576 51.5875 53.4215 51.5904C54.0356 51.5913 54.108 51.5216 54.1086 50.9268C54.1104 49.6323 54.1095 48.3376 54.1085 47.043C54.1082 46.4632 54.0501 45.8901 53.9057 45.3263C53.3322 43.0873 51.6311 41.0412 48.5272 41.2706C46.6259 41.4111 44.9742 42.6094 44.3156 44.3742C43.9607 45.3251 43.8941 46.3117 43.8764 47.3035C43.8522 48.6478 43.8703 49.993 43.8703 51.6458ZM27.4578 51.2135V46.9528C27.4577 45.256 27.4596 43.5592 27.4562 41.8625C27.4551 41.3696 27.3371 41.2227 26.9199 41.2195C25.9184 41.2113 24.9166 41.2111 23.9149 41.22C23.5156 41.2235 23.4014 41.3524 23.3888 41.7477C23.3849 41.8734 23.3873 41.9991 23.3873 42.1248C23.3871 46.6997 23.3875 51.2748 23.3861 55.8498C23.386 56.0599 23.4324 56.2906 23.242 56.4509C22.7163 56.8934 22.1438 57.2661 21.4799 57.4671C21.1125 57.5784 20.8673 57.4177 20.7554 57.0533C20.6801 56.8083 20.6943 56.5555 20.6943 56.3047C20.6934 51.5035 20.694 46.7022 20.693 41.901C20.6929 41.3155 20.5944 41.2176 20.0114 41.216C19.1237 41.2137 18.236 41.2142 17.3485 41.2157C16.7126 41.2168 16.6274 41.3011 16.6274 41.9368C16.6268 47.2032 16.627 52.4693 16.6274 57.7356C16.6275 58.2648 16.6812 58.7901 16.7791 59.3091C17.0924 60.9712 18.5217 61.8424 20.1515 61.3758C21.0366 61.1223 21.8438 60.7072 22.6251 60.2332C23.3659 59.7839 23.368 59.7874 23.3878 60.6489C23.3979 61.0955 23.4738 61.1776 23.9264 61.1795C24.8647 61.1837 25.803 61.1802 26.7412 61.1781C27.3723 61.1766 27.4574 61.0907 27.4576 60.4516C27.4582 57.3722 27.4578 54.2929 27.4578 51.2135ZM30.1056 47.8698C30.1056 52.004 30.1055 56.1382 30.106 60.2726C30.106 60.4232 30.1007 60.575 30.116 60.7244C30.1459 61.0148 30.2954 61.1791 30.6113 61.1779C31.6509 61.1735 32.6904 61.175 33.73 61.1768C34.0106 61.1773 34.1374 61.0387 34.1694 60.7673C34.2135 60.3936 34.2747 60.3641 34.573 60.5864C35.1753 61.0352 35.861 61.2811 36.5876 61.4295C38.2509 61.769 39.8017 60.9033 40.3374 59.3393C40.5105 58.8338 40.5574 58.3076 40.5579 57.7785C40.5613 53.77 40.5637 49.7613 40.5576 45.7528C40.5567 45.1882 40.5166 44.6233 40.4816 44.0594C40.3379 41.7584 38.213 41.0165 36.8041 41.2958C36.0399 41.4474 35.3393 41.7758 34.7072 42.2385C34.5703 42.3387 34.4365 42.5571 34.2669 42.4737C34.0755 42.3796 34.1744 42.1318 34.174 41.9534C34.1681 39.6665 34.1712 37.3795 34.1686 35.0924C34.1679 34.6271 34.052 34.5108 33.5835 34.5078C32.6961 34.5021 31.8085 34.5053 30.9213 34.506C30.2194 34.5067 30.1059 34.619 30.1059 35.3161C30.1054 39.5008 30.1056 43.6853 30.1056 47.8698ZM30.4857 67.9961C22.6222 67.9959 14.7587 68.0082 6.89524 67.9894C4.03823 67.9828 1.97094 66.6358 0.673361 64.1358C0.222063 63.2662 0.00691742 62.317 0.00641119 61.3344C0.00286762 53.4645 -0.00788964 45.5946 0.0102079 37.7247C0.018434 34.1315 3.01376 31.1522 6.63693 31.0679C6.77627 31.0647 6.91586 31.0635 7.05545 31.0635C22.6683 31.0634 38.2811 31.0685 53.894 31.0571C55.9496 31.0558 57.7003 31.7278 59.1053 33.2061C60.2597 34.4207 60.9159 35.8764 60.9181 37.5627C60.9287 45.5457 60.9333 53.5288 60.9174 61.5118C60.9115 64.4928 58.5669 67.2527 55.6241 67.8455C55.0347 67.9642 54.4451 67.9976 53.8479 67.9974C46.0605 67.9957 38.273 67.9963 30.4857 67.9961Z" fill="#E7E1DB"/>
</g>
<path fill-rule="evenodd" clip-rule="evenodd" d="M43.3304 24.8238C42.8285 25.3534 42.3179 25.8746 41.6927 26.2546C40.876 26.7511 40.0169 27.1061 39.0329 26.9427C38.1744 26.7999 37.6189 26.2952 37.3344 25.4699C37.0629 24.6823 37.0111 23.8605 37.0088 23.0438C36.9949 17.8752 37.0013 12.7068 37.0023 7.53821C37.0024 7.036 37.036 7.00302 37.5193 7.00165C38.3205 6.99955 39.1219 6.99955 39.9233 7.00165C40.4032 7.00289 40.4209 7.02062 40.421 7.50833C40.4216 12.1053 40.4204 16.7022 40.4239 21.2992C40.4241 21.5963 40.4459 21.8949 40.4806 22.1901C40.5601 22.8668 41.0547 23.1831 41.677 22.8923C42.2896 22.6058 42.8637 22.2354 43.3843 21.7908C43.5928 21.6129 43.5791 21.3783 43.5791 21.1413C43.5788 16.6934 43.5788 12.2455 43.579 7.79756C43.579 6.91562 43.5205 7.00438 44.3838 7.00153C45.0863 6.99918 45.7891 6.9998 46.4918 7.00165C46.9788 7.00302 46.998 7.02099 46.9988 7.49966C47.0009 8.41904 46.9996 9.33843 46.9996 10.2578C46.9996 15.6375 46.9997 21.0173 46.9994 26.3969C46.9993 26.998 46.9985 26.9988 46.4089 26.9992C45.5829 26.9999 44.7569 27.0008 43.9309 26.9988C43.446 26.9977 43.4249 26.9762 43.423 26.4999C43.4208 25.9557 43.4225 25.4113 43.4225 24.8671C43.3918 24.8526 43.3611 24.8382 43.3304 24.8238Z" fill="#E7E1DB"/>
<mask id="mask1" mask-type="alpha" maskUnits="userSpaceOnUse" x="9" y="0" width="13" height="27">
<path fill-rule="evenodd" clip-rule="evenodd" d="M9.01575 0.123047H21.9736V26.9811H9.01575V0.123047Z" fill="white"/>
</mask>
<g mask="url(#mask1)">
<path fill-rule="evenodd" clip-rule="evenodd" d="M13.5351 21.7402C13.5351 20.3624 13.5211 18.9844 13.5417 17.6072C13.5504 17.0227 13.4534 16.4658 13.2984 15.9066C11.8905 10.8323 10.4891 5.75643 9.08756 0.680551C8.94711 0.172051 8.97782 0.133426 9.49859 0.132301C10.4946 0.130051 11.4905 0.140676 12.4863 0.126676C12.8132 0.122051 12.9537 0.235801 13.0287 0.555676C13.7822 3.76393 14.5523 6.9683 15.3176 10.1739C15.3264 10.2104 15.3299 10.2491 15.3443 10.2833C15.3815 10.3711 15.3757 10.5094 15.5037 10.5111C15.6354 10.5127 15.635 10.3796 15.6592 10.2858C15.8131 9.69143 15.9651 9.09668 16.1186 8.50205C16.799 5.8688 17.4844 3.23693 18.1543 0.601176C18.2441 0.247926 18.4096 0.113676 18.7877 0.123551C19.7191 0.147926 20.6516 0.128801 21.5836 0.133176C22.0017 0.134926 22.0312 0.173676 21.9144 0.571301C20.6052 5.02293 19.2942 9.4738 17.9826 13.9247C17.7273 14.7907 17.4706 15.6563 17.2072 16.5201C17.1362 16.7532 17.1295 16.9879 17.1295 17.2262C17.1296 20.2696 17.1298 23.3132 17.1292 26.3567C17.1291 26.9726 17.1205 26.9801 16.484 26.9807C15.7179 26.9813 14.9518 26.9813 14.1857 26.9807C13.5371 26.9802 13.5355 26.9787 13.5352 26.3242C13.5347 24.7961 13.5351 23.2682 13.5351 21.7402Z" fill="#E7E1DB"/>
</g>
<path fill-rule="evenodd" clip-rule="evenodd" d="M27.4496 16.9646H27.4448C27.4448 18.3795 27.4436 19.7944 27.4456 21.2093C27.4461 21.5816 27.4401 21.9548 27.4649 22.3259C27.5087 22.9841 27.8209 23.3988 28.441 23.516C29.5891 23.7331 30.6978 23.4339 30.6285 21.8601C30.6269 21.823 30.6285 21.7857 30.6285 21.7484C30.6285 18.5213 30.629 15.2944 30.6275 12.0673C30.6275 11.8816 30.6263 11.694 30.6025 11.5101C30.553 11.129 30.3656 10.8243 30.0162 10.6589C29.5612 10.4434 29.0802 10.3393 28.5764 10.4587C27.74 10.6568 27.4547 11.0048 27.4515 11.8633C27.4451 13.5638 27.4496 15.2641 27.4496 16.9646ZM33.9905 16.9223C33.9905 18.6982 34.0169 20.4749 33.9815 22.2502C33.9565 23.5025 33.5664 24.6516 32.6879 25.5734C31.5363 26.7815 30.0577 27.1006 28.4713 26.9743C27.0993 26.865 25.9188 26.3193 25.0597 25.1852C24.3919 24.3037 24.0453 23.2886 24.0351 22.2052C24.0018 18.6286 23.9737 15.0506 24.0417 11.475C24.0779 9.57244 25.0557 8.1809 26.8353 7.4435C28.9073 6.58503 31.2673 7.00187 32.6681 8.44273C33.5184 9.31743 33.9309 10.3826 33.9915 11.5942C33.9957 11.6809 33.9958 11.7679 33.9958 11.855C33.9961 13.5441 33.996 15.2331 33.996 16.9222C33.9941 16.9222 33.9923 16.9223 33.9905 16.9223Z" fill="#E7E1DB"/>
<path fill-rule="evenodd" clip-rule="evenodd" d="M34.0082 51.4282V46.206C34.0082 45.3974 34.7498 44.8864 35.7267 45.0216C36.4893 45.1273 36.8903 45.5109 36.9816 46.2378C37.0048 46.4225 36.9992 46.6103 36.9993 46.7968C37.0002 50.0047 37.0004 53.2127 36.9989 56.4206C36.9989 56.6068 37.0038 56.7956 36.9717 56.9789C36.8318 57.7764 36.067 58.1743 35.1429 57.9272C34.9187 57.8671 34.7077 57.7682 34.4985 57.6751C34.1355 57.5131 33.9966 57.2668 34.0001 56.9116C34.0178 55.084 34.0084 53.256 34.0082 51.4282Z" fill="#E7E1DB"/>
<path fill-rule="evenodd" clip-rule="evenodd" d="M49.4616 47.9991C49.0944 47.9987 48.727 47.9965 48.3597 47.9995C48.1288 48.0014 47.9996 47.8992 48.0045 47.6363C48.0201 46.8193 47.9496 45.9996 48.0873 45.1867C48.2029 44.5038 48.6438 44.0597 49.2731 44.0079C50.0613 43.943 50.6397 44.2807 50.8364 44.9619C51.1001 45.8752 50.9649 46.8182 50.9687 47.7495C50.9696 47.9849 50.7729 47.9973 50.6045 47.9985C50.2235 48.0013 49.8426 47.9994 49.4616 47.9991Z" fill="#E7E1DB"/>
</svg>
