<svg width="116" height="116" viewBox="0 0 116 116" fill="none" xmlns="http://www.w3.org/2000/svg">
<path fill-rule="evenodd" clip-rule="evenodd" d="M71.6964 0.133205C71.5297 0.0901096 71.3629 0.0470137 71.1981 0H5.49418C5.46942 0.0123631 5.44954 0.0296028 5.43069 0.0459484C5.40175 0.0710421 5.37524 0.0940286 5.33722 0.0940286C2.63749 0.407457 -0.0308484 2.91489 0.000543842 6.55066C0.0476349 15.0607 0.0417455 23.5532 0.0358591 32.0412C0.0338974 34.8699 0.0319361 37.6981 0.0319361 40.5263C0.0319361 48.1845 0.028448 55.8426 0.02496 63.5007C0.017984 78.8169 0.0110079 94.1331 0.0319361 109.449C0.0319361 110.202 0.126113 110.985 0.345858 111.706C1.19345 114.37 3.57926 116 6.49873 116H86.5175H86.9884C89.7823 115.937 92.3565 113.994 92.796 111.267C93.0711 109.537 93.0086 107.758 92.9467 105.995C92.938 105.746 92.9293 105.497 92.9215 105.249C92.9215 104.779 92.4506 104.246 92.0739 103.902C91.3833 103.275 90.5357 103.243 89.6881 103.651C88.8091 104.058 88.401 104.811 88.3696 105.782C88.3696 106.221 88.3731 106.66 88.3766 107.099C88.3836 107.976 88.3906 108.854 88.3696 109.731C88.3696 110.609 87.836 111.173 86.957 111.267C86.7059 111.299 86.4861 111.299 86.235 111.299H75.9697H6.81266C5.24304 111.299 4.67798 110.797 4.67798 109.355V6.58201C4.67798 5.20292 5.21165 4.67009 6.56152 4.67009H67.5566C67.644 4.67009 67.7382 4.67684 67.8391 4.68408C67.9557 4.69243 68.0813 4.70143 68.2158 4.70143V5.51635C68.2158 8.24318 68.2237 10.9778 68.2315 13.7125C68.2394 16.4472 68.2472 19.1818 68.2472 21.9087C68.2472 22.5982 68.3728 23.2251 68.8437 23.7579C69.4087 24.3534 70.0994 24.5101 70.8842 24.5101H87.5221H88.3069V25.2937V43.0965C88.3069 43.9427 88.4952 44.6949 89.1544 45.2278C89.9079 45.8233 90.7555 45.9487 91.6344 45.5412C92.5762 45.1024 92.9843 44.2875 92.9843 43.2532V22.3161C92.9843 20.4669 92.2937 18.8998 90.9752 17.6147C89.1963 15.8699 87.4209 14.1252 85.6454 12.3804C82.0947 8.89089 78.5439 5.4014 74.9652 1.91192C74.4315 1.41043 73.8037 0.971629 73.1444 0.626858C72.6971 0.391785 72.1968 0.262495 71.6964 0.133205ZM72.8619 6.42529C77.4452 10.9073 81.9342 15.3267 86.5489 19.8714H72.8619V6.42529Z" fill="#E8E2DC"/>
<path fill-rule="evenodd" clip-rule="evenodd" d="M115.732 93.3716C115.819 93.1025 115.906 92.8337 116 92.5695V57.4478C115.993 57.4331 115.984 57.4168 115.974 57.3995C115.943 57.3436 115.907 57.2781 115.907 57.2308C115.221 53.4489 112.263 51 108.401 51H34.5601C30.3557 51 27.0234 54.1619 27.0234 58.3467C26.9922 69.4443 26.9922 80.5419 27.0234 91.6395C27.0234 95.7623 30.3246 98.9862 34.4355 98.9862C42.6781 98.9862 50.9207 98.9897 59.1633 98.9931C75.6486 99 92.1338 99.0069 108.619 98.9862C111.36 98.9862 113.509 97.7463 114.91 95.4214C115.271 94.792 115.502 94.0812 115.732 93.3716ZM87.2858 94.3984H71.465C59.2568 94.3984 47.0174 94.3984 34.7781 94.4294C33.1897 94.4294 32.1309 93.7474 31.7572 92.4455C31.6949 92.1355 31.6637 91.8255 31.6637 91.5155V58.5637C31.6637 56.7968 32.7849 55.6808 34.5601 55.6498H34.8403H108.152C108.619 55.6498 109.086 55.6808 109.491 55.8048C110.674 56.1768 111.36 57.1998 111.36 58.5947V66.7164V91.2365C111.36 92.0115 111.266 92.7555 110.737 93.3754C110.083 94.1814 109.211 94.3984 108.214 94.3984H87.2858Z" fill="#E8E2DC"/>
<path fill-rule="evenodd" clip-rule="evenodd" d="M61.0318 66.2762V75.5176C61.0318 78.6905 61.0318 81.8325 61 84.9746C61 86.2068 61.7942 86.9769 63.0649 86.9769C64.5898 87.0077 66.0829 87.0077 67.5759 86.9769C67.8583 86.9713 68.1406 86.9677 68.4226 86.9642C69.6952 86.9481 70.96 86.9322 72.1823 86.7305C79.5207 85.4675 83.0787 79.1525 81.7127 72.8992C80.6325 67.8781 76.2486 64.428 70.6892 64.0891C68.9091 63.977 67.1122 63.9954 65.323 64.0138C64.6535 64.0206 63.9851 64.0275 63.3191 64.0275C61.7307 64.0275 61.0318 64.736 61.0318 66.2762ZM66.5718 83.3896C66.0534 83.3812 65.531 83.3728 65.0028 83.3728V67.6316C65.8506 67.683 66.6984 67.6624 67.5438 67.6418C69.2327 67.6008 70.9122 67.56 72.5635 68.0937C76.5663 69.3567 78.3453 72.9608 77.9005 76.6266C77.4558 80.3539 74.5331 83.0955 70.1174 83.342C68.9427 83.4279 67.768 83.4089 66.5718 83.3896Z" fill="#E8E2DC"/>
<path fill-rule="evenodd" clip-rule="evenodd" d="M43.9108 80.6839V79.9815C44.1631 79.9815 44.3839 79.9815 44.6046 79.9176H48.4208C49.9031 79.9176 51.3539 79.726 52.7416 79.2151C58.8286 77.0119 58.9863 70.2744 56.4632 67.1133C54.8232 65.0697 52.5839 64.1756 50.0608 64.0798C48.1449 63.984 46.2289 63.996 44.3129 64.008C43.6743 64.012 43.0356 64.016 42.3969 64.016C40.7254 64.016 40 64.7504 40 66.4427V85.6013C40 85.7929 40 86.0164 40.0315 86.208C40.1577 87.3256 41.0092 88.06 42.05 87.9961C43.1223 87.9642 43.9108 87.1021 43.9108 85.9845V80.6839ZM44.1631 76.2615C44.0921 76.2535 44.0212 76.2455 43.9423 76.2455V67.9115C43.9739 67.8796 44.0054 67.8477 44.037 67.8477C44.6708 67.8573 45.3046 67.8582 45.9376 67.8592C47.4149 67.8614 48.8875 67.8636 50.3447 67.9754C52.3001 68.1351 53.5616 69.3484 53.9401 71.0408C54.3816 73.0205 53.5301 74.8406 51.6693 75.6388C50.9755 75.9262 50.2185 76.1497 49.4931 76.1817C48.3577 76.2455 47.2224 76.2526 46.087 76.2597C45.5193 76.2633 44.9516 76.2668 44.3839 76.2775C44.305 76.2775 44.2341 76.2695 44.1631 76.2615Z" fill="#E8E2DC"/>
<path d="M89.8229 67.6491C89.8229 69.765 89.8229 71.8195 89.8229 73.9354C90.068 73.9354 90.2826 73.9354 90.5277 73.9354C93.5615 73.9354 96.5953 73.9354 99.5985 73.9354C101.008 73.9354 101.897 75.1006 101.468 76.2965C101.223 77.0325 100.548 77.4925 99.6904 77.4925C96.626 77.4925 93.5615 77.4925 90.4971 77.4925C90.2826 77.4925 90.068 77.4925 89.7922 77.4925C89.7922 77.7378 89.7922 77.9524 89.7922 78.1364C89.7922 80.4363 89.7922 82.7668 89.7922 85.0666C89.7922 85.9252 89.2406 86.6612 88.4745 86.9065C87.7084 87.1518 86.8504 86.9065 86.4214 86.2626C86.1762 85.9252 86.023 85.4346 86.023 85.036C85.9923 78.6577 85.9923 72.3101 86.023 65.9319C86.023 64.7666 86.8197 64 88.0149 64C92.397 64 96.7792 64 101.131 64C102.203 64 103 64.7973 103 65.7786C103 66.8212 102.173 67.5878 101.069 67.5878C97.5759 67.5878 94.0518 67.5878 90.5584 67.5878C90.3132 67.6491 90.0987 67.6491 89.8229 67.6491Z" fill="#E8E2DC"/>
</svg>
