<svg width="76" height="80" viewBox="0 0 76 80" fill="none" xmlns="http://www.w3.org/2000/svg">
<mask id="mask0" mask-type="alpha" maskUnits="userSpaceOnUse" x="0" y="0" width="76" height="80">
<path fill-rule="evenodd" clip-rule="evenodd" d="M0 0H76V80H0V0Z" fill="white"/>
</mask>
<g mask="url(#mask0)">
<path fill-rule="evenodd" clip-rule="evenodd" d="M38.3952 0.0648717C46.904 0.0650654 55.4131 0.0406625 63.9217 0.0780415C66.9639 0.0915986 69.7791 0.898829 72.1244 3.10787C74.7868 5.61574 75.9466 8.81406 75.9707 12.4793C76.017 19.5331 75.9843 26.5875 75.9843 33.6416C75.9845 44.529 76.0306 55.4165 75.9639 66.3033C75.9335 71.234 74.1331 75.3298 70.1265 78.1299C68.5181 79.2538 66.7101 79.8935 64.7742 79.9522C62.511 80.021 60.2444 79.9627 57.9803 79.9996C57.2173 80.0122 56.9665 79.6853 56.968 78.9087C56.9864 68.7945 56.991 58.6803 56.9818 48.5663C56.9812 47.7916 57.2955 47.5995 57.9801 47.576C60.2108 47.5001 62.4391 47.3469 64.6692 47.2454C65.1638 47.223 65.5088 47.0694 65.5701 46.5101C65.8885 43.6032 66.1907 40.694 66.524 37.7889C66.6263 36.8955 66.2462 36.6933 65.4761 36.7042C62.9973 36.7388 60.5179 36.7003 58.0387 36.7235C57.4038 36.7295 57.1149 36.562 57.0844 35.8158C57.0024 33.819 56.9627 31.8215 57.0474 29.8282C57.1329 27.8099 58.3971 26.59 60.3334 26.5621C62.0777 26.5373 63.8228 26.54 65.5671 26.5696C66.2477 26.5811 66.5761 26.3663 66.5707 25.586C66.5505 22.5587 66.5695 19.531 66.573 16.5033C66.5735 16.0526 66.5182 15.6383 65.9509 15.6517C61.8876 15.7483 57.8017 15.3124 53.7647 16.0263C48.0706 17.0336 44.8116 21.1373 44.7627 27.2289C44.7403 30.031 44.7254 32.8334 44.755 35.6353C44.7647 36.5512 44.4534 36.907 43.5754 36.8789C42.1996 36.8347 40.821 36.9015 39.4441 36.8816C38.7753 36.8717 38.5283 37.1456 38.5315 37.8542C38.5449 40.7492 38.7496 43.6452 38.5357 46.5397C38.4851 47.2218 38.7668 47.4389 39.3913 47.437C40.828 47.4319 42.2634 47.4461 43.7014 47.5582C44.5196 47.6219 44.7462 47.944 44.7419 48.7313C44.7252 51.6945 44.7464 54.6581 44.7462 57.6215C44.7458 64.6106 44.7416 71.5998 44.7385 78.5891C44.7379 79.9904 44.7214 79.9964 43.4213 79.9956C33.3515 79.9904 23.2817 80.0018 13.2118 79.9832C5.85539 79.9692 0.0369553 73.8439 0.0321744 66.1053C0.0211414 48.4539 0.0856844 30.8022 0.000178665 13.151C-0.0332881 6.1896 4.63864 1.16319 10.862 0.259126C14.0842 -0.208982 17.3413 0.105543 20.5819 0.0786225C26.5193 0.0294295 32.4574 0.064678 38.3952 0.0648717Z" fill="#0C293B"/>
</g>
</svg>
