<svg width="76" height="81" viewBox="0 0 76 81" fill="none" xmlns="http://www.w3.org/2000/svg">
<mask id="mask0" mask-type="alpha" maskUnits="userSpaceOnUse" x="0" y="0" width="76" height="81">
<path fill-rule="evenodd" clip-rule="evenodd" d="M0 0.0429688H75.9617V80.0016H0V0.0429688Z" fill="white"/>
</mask>
<g mask="url(#mask0)">
<path fill-rule="evenodd" clip-rule="evenodd" d="M67.439 13.3486C67.4356 10.9072 65.6041 9.011 63.2806 8.97921C60.9995 8.94812 59.0766 11.0082 59.1124 13.379C59.1491 15.818 60.9563 17.7434 63.2776 17.7439C65.6101 17.7445 67.4425 15.8087 67.439 13.3486ZM59.0177 40.0211C59.0055 27.8348 49.7506 18.077 38.3919 17.8562C26.3881 17.6225 16.9628 27.7797 16.9185 39.8924C16.8735 52.1864 26.2424 62.0052 37.6688 62.1628C49.506 62.3261 59.0065 52.2821 59.0177 40.0211ZM19.49 0.0429688H56.4454C56.5068 0.0564185 56.5677 0.0775539 56.6298 0.0822701C57.5876 0.151964 58.5341 0.303929 59.4685 0.531353C64.25 1.69485 68.2133 4.26568 71.2897 8.28786C74.3486 12.2873 75.9461 16.8723 75.9532 22.0218C75.9696 34.0666 75.9564 46.1114 75.961 58.1562C75.9615 59.538 75.821 60.9031 75.547 62.2486C74.4357 67.7097 71.7835 72.1654 67.5506 75.5326C63.8543 78.473 59.6693 79.9916 55.0218 79.996C43.6426 80.0061 32.2632 79.9996 20.8837 79.9981C20.3783 79.9979 19.8743 79.986 19.3684 79.9445C17.7638 79.8124 16.1958 79.4905 14.6685 78.9703C11.0709 77.7445 7.98597 75.6685 5.44329 72.7163C2.96948 69.8444 1.3217 66.5155 0.485703 62.7399C0.246253 61.6587 0.115493 60.5603 0 59.4592V20.559C0.0131092 20.483 0.0328559 20.4073 0.0381659 20.3308C0.113336 19.2461 0.278611 18.1754 0.521712 17.1198C1.63334 12.2943 4.00045 8.28105 7.62107 5.10428C10.2907 2.76175 13.3412 1.22288 16.7469 0.467074C17.6539 0.265851 18.5725 0.161222 19.49 0.0429688Z" fill="#0C293B"/>
</g>
<path fill-rule="evenodd" clip-rule="evenodd" d="M50.2572 40.6437C50.3408 48.084 44.3746 54.3684 37.0733 54.1908C30.2528 54.0247 24.3407 47.9854 24.5201 40.2713C24.6866 33.1151 30.4276 26.8713 37.8127 27.104C44.6468 27.3193 50.3252 33.3185 50.2572 40.6437Z" fill="#0C293B"/>
</svg>
