<svg width="74" height="89" viewBox="0 0 74 89" fill="none" xmlns="http://www.w3.org/2000/svg">
<mask id="mask0" mask-type="alpha" maskUnits="userSpaceOnUse" x="0" y="40" width="74" height="48">
<path fill-rule="evenodd" clip-rule="evenodd" d="M0 40.1914H73.9123V87.9997H0V40.1914Z" fill="white"/>
</mask>
<g mask="url(#mask0)">
<path fill-rule="evenodd" clip-rule="evenodd" d="M12.0234 64.3376C12.0234 69.0228 12.023 73.7079 12.0239 78.3932C12.024 79.2008 12.0831 79.2641 12.8287 79.2655C13.7672 79.2671 14.7057 79.266 15.6442 79.266C16.8792 79.266 16.8793 79.266 16.8793 77.9745C16.8793 68.7017 16.8792 59.4289 16.8798 50.1561C16.8799 49.4868 16.8904 49.476 17.5254 49.4749C18.5408 49.4726 19.5561 49.4783 20.5716 49.4717C21.1323 49.4679 21.2998 49.3046 21.3057 48.7245C21.3167 47.6184 21.3164 46.512 21.3058 45.4057C21.3007 44.8821 21.0935 44.6601 20.5951 44.6594C16.4567 44.6534 12.3182 44.6536 8.17956 44.6586C7.65357 44.6592 7.49851 44.8354 7.49498 45.4018C7.48792 46.5078 7.48807 47.6143 7.49483 48.7203C7.49851 49.3217 7.63423 49.4655 8.2118 49.4705C9.24258 49.4796 10.2734 49.4733 11.3041 49.4744C12.021 49.4752 12.023 49.4759 12.023 50.2332C12.0236 54.9346 12.0233 59.6362 12.0234 64.3376ZM53.2198 66.8356C53.2695 68.5337 53.2084 70.6301 53.27 72.7284C53.3777 76.4096 56.603 80.4283 61.1754 78.9492C63.0783 78.3337 64.5025 77.1525 65.2027 75.1262C65.7164 73.6391 65.655 72.0876 65.6203 70.5431C65.6126 70.1927 65.3657 70.0984 65.0694 70.0999C64.1773 70.1042 63.2851 70.1017 62.393 70.1052C61.7612 70.1078 61.6446 70.2258 61.6301 70.9007C61.6175 71.4859 61.6387 72.0725 61.6115 72.6568C61.5561 73.848 60.8307 74.7458 59.8374 74.8878C58.8582 75.0277 57.9852 74.3838 57.6025 73.2528C57.4547 72.8157 57.413 72.3677 57.4135 71.9093C57.4146 70.3967 57.4115 68.8841 57.4138 67.3715C57.4149 66.7752 57.4419 66.7479 58.023 66.7488C60.2842 66.7523 62.5453 66.7601 64.8064 66.7638C65.5514 66.765 65.6392 66.6749 65.6399 65.905C65.6421 64.2298 65.641 62.5544 65.6398 60.879C65.6395 60.1287 65.569 59.387 65.3938 58.6574C64.6981 55.7598 62.6345 53.112 58.8691 53.4089C56.5625 53.5907 54.5588 55.1414 53.7599 57.4253C53.3294 58.6558 53.2486 59.9326 53.2271 61.2161C53.1978 62.9558 53.2198 64.6966 53.2198 66.8356ZM33.3095 66.2761V60.7623C33.3093 58.5664 33.3116 56.3706 33.3075 54.1748C33.3062 53.537 33.163 53.3469 32.657 53.3427C31.442 53.3321 30.2266 53.3318 29.0115 53.3433C28.5271 53.3479 28.3886 53.5147 28.3733 54.0263C28.3685 54.189 28.3714 54.3516 28.3714 54.5142C28.3713 60.4348 28.3717 66.3555 28.37 72.276C28.3699 72.5479 28.4262 72.8465 28.1952 73.054C27.5574 73.6266 26.863 74.1088 26.0576 74.369C25.6119 74.513 25.3144 74.3051 25.1787 73.8336C25.0873 73.5164 25.1045 73.1893 25.1045 72.8647C25.1034 66.6514 25.1042 60.438 25.103 54.2247C25.1028 53.467 24.9834 53.3402 24.2761 53.3381C23.1993 53.3352 22.1224 53.3358 21.0457 53.3378C20.2743 53.3393 20.1709 53.4483 20.1709 54.2709C20.1702 61.0863 20.1705 67.9013 20.1709 74.7165C20.1711 75.4013 20.2362 76.0811 20.355 76.7528C20.735 78.9037 22.4689 80.0312 24.446 79.4273C25.5198 79.0993 26.499 78.5621 27.4469 77.9487C28.3455 77.3673 28.3481 77.3718 28.372 78.4866C28.3843 79.0646 28.4764 79.1709 29.0254 79.1733C30.1637 79.1787 31.3019 79.1741 32.4402 79.1715C33.2057 79.1696 33.309 79.0584 33.3092 78.2313C33.3099 74.2462 33.3095 70.2612 33.3095 66.2761ZM36.5216 61.949C36.5216 67.2992 36.5214 72.6493 36.522 77.9996C36.522 78.1946 36.5156 78.391 36.5341 78.5843C36.5704 78.9602 36.7518 79.1728 37.1351 79.1712C38.3961 79.1655 39.6572 79.1675 40.9184 79.1698C41.2588 79.1704 41.4126 78.9911 41.4515 78.6398C41.5049 78.1563 41.5792 78.1181 41.9411 78.4058C42.6717 78.9865 43.5035 79.3048 44.3849 79.4968C46.4027 79.9362 48.284 78.8159 48.9339 76.7919C49.1439 76.1377 49.2007 75.4567 49.2013 74.772C49.2055 69.5845 49.2084 64.3968 49.201 59.2093C49.2 58.4787 49.1513 57.7477 49.1088 57.0179C48.9345 54.0401 46.3568 53.08 44.6476 53.4415C43.7206 53.6376 42.8707 54.0627 42.1038 54.6615C41.9377 54.7911 41.7754 55.0737 41.5697 54.9658C41.3375 54.8441 41.4575 54.5233 41.457 54.2925C41.4498 51.3329 41.4536 48.3733 41.4504 45.4135C41.4496 44.8113 41.309 44.6609 40.7406 44.657C39.6641 44.6497 38.5874 44.6537 37.511 44.6547C36.6596 44.6555 36.5219 44.8009 36.5219 45.7031C36.5213 51.1185 36.5216 56.5337 36.5216 61.949ZM36.9826 87.9947C27.4434 87.9946 17.904 88.0105 8.36471 87.9861C4.89884 87.9775 2.39098 86.2344 0.816865 82.999C0.269387 81.8737 0.00839162 80.6453 0.00777751 79.3738C0.00347876 69.1891 -0.00957104 59.0046 0.0123833 48.82C0.0223626 44.17 3.65604 40.3144 8.05136 40.2054C8.2204 40.2012 8.38974 40.1997 8.55908 40.1997C27.4992 40.1995 46.4394 40.2062 65.3796 40.1914C67.8733 40.1896 69.997 41.0593 71.7015 42.9725C73.102 44.5443 73.898 46.4281 73.9006 48.6104C73.9135 58.9413 73.919 69.2724 73.8998 79.6033C73.8926 83.4612 71.0484 87.0327 67.4784 87.7999C66.7635 87.9535 66.0482 87.9967 65.3237 87.9965C55.8767 87.9942 46.4296 87.995 36.9826 87.9947Z" fill="#0C293B"/>
</g>
<path fill-rule="evenodd" clip-rule="evenodd" d="M52.5647 32.1247C51.9559 32.8101 51.3365 33.4845 50.5781 33.9763C49.5873 34.6188 48.545 35.0783 47.3514 34.8669C46.3099 34.682 45.636 34.0289 45.2909 32.9609C44.9615 31.9416 44.8987 30.8781 44.896 29.8211C44.8791 23.1324 44.8869 16.4438 44.8881 9.7551C44.8882 9.10518 44.929 9.0625 45.5153 9.06074C46.4872 9.05801 47.4593 9.05801 48.4316 9.06074C49.0137 9.06234 49.0352 9.08528 49.0354 9.71644C49.0361 15.6654 49.0346 21.6144 49.0388 27.5635C49.0391 27.9479 49.0655 28.3344 49.1076 28.7164C49.204 29.592 49.804 30.0015 50.559 29.6251C51.3021 29.2543 51.9986 28.7749 52.6301 28.1996C52.8831 27.9694 52.8665 27.6658 52.8665 27.3591C52.8661 21.603 52.8661 15.8469 52.8664 10.0907C52.8664 8.94939 52.7953 9.06426 53.8427 9.06057C54.6949 9.05753 55.5475 9.05833 56.3999 9.06074C56.9907 9.0625 57.0139 9.08576 57.015 9.70521C57.0175 10.895 57.0159 12.0848 57.0159 13.2746C57.0159 20.2365 57.016 27.1987 57.0157 34.1605C57.0156 34.9384 57.0145 34.9394 56.2993 34.9399C55.2973 34.9408 54.2952 34.9419 53.2932 34.9394C52.705 34.9379 52.6793 34.9102 52.6771 34.2938C52.6744 33.5895 52.6765 32.885 52.6765 32.1807C52.6392 32.1619 52.602 32.1433 52.5647 32.1247Z" fill="#0C293B"/>
<mask id="mask1" mask-type="alpha" maskUnits="userSpaceOnUse" x="10" y="0" width="17" height="35">
<path fill-rule="evenodd" clip-rule="evenodd" d="M10.937 0.160156H26.6564V34.9176H10.937V0.160156Z" fill="white"/>
</mask>
<g mask="url(#mask1)">
<path fill-rule="evenodd" clip-rule="evenodd" d="M16.4195 28.1353C16.4195 26.3523 16.4025 24.569 16.4275 22.7867C16.438 22.0303 16.3204 21.3096 16.1324 20.5859C14.4244 14.0192 12.7244 7.45041 11.0241 0.881633C10.8537 0.223574 10.891 0.173589 11.5228 0.172133C12.731 0.169221 13.9392 0.182971 15.1472 0.164853C15.5438 0.158868 15.7141 0.306074 15.8052 0.72003C16.7193 4.87188 17.6535 9.01872 18.5819 13.1672C18.5926 13.2144 18.5967 13.2644 18.6142 13.3087C18.6594 13.4223 18.6524 13.6014 18.8076 13.6035C18.9674 13.6056 18.9669 13.4333 18.9963 13.312C19.183 12.5428 19.3673 11.7731 19.5536 11.0036C20.379 7.59584 21.2105 4.18988 22.0231 0.778912C22.1321 0.321765 22.3328 0.14803 22.7915 0.160809C23.9214 0.192353 25.0526 0.167603 26.1833 0.173265C26.6904 0.17553 26.7263 0.225677 26.5845 0.74025C24.9963 6.50118 23.406 12.2611 21.8149 18.0211C21.5052 19.1418 21.1938 20.262 20.8742 21.3798C20.7881 21.6815 20.7799 21.9853 20.7799 22.2936C20.78 26.2321 20.7803 30.1709 20.7796 34.1096C20.7794 34.9066 20.7691 34.9163 19.9969 34.9171C19.0675 34.9179 18.1382 34.9179 17.2088 34.9171C16.422 34.9164 16.42 34.9145 16.4196 34.0675C16.419 32.0899 16.4195 30.1127 16.4195 28.1353Z" fill="#0C293B"/>
</g>
<path fill-rule="evenodd" clip-rule="evenodd" d="M33.2996 21.9539H33.2937C33.2937 23.7851 33.2922 25.616 33.2946 27.4472C33.2952 27.9289 33.288 28.4119 33.3181 28.8921C33.3713 29.744 33.75 30.2805 34.5022 30.4322C35.8949 30.7132 37.2399 30.3261 37.1559 28.2894C37.154 28.2412 37.1559 28.193 37.1559 28.1447C37.1559 23.9685 37.1565 19.7925 37.1547 15.6163C37.1547 15.3759 37.1532 15.1331 37.1243 14.8952C37.0643 14.4021 36.8369 14.0077 36.4131 13.7937C35.8611 13.5148 35.2776 13.3801 34.6664 13.5345C33.6518 13.7909 33.3057 14.2412 33.3018 15.3523C33.294 17.5529 33.2996 19.7533 33.2996 21.9539ZM41.2344 21.8993C41.2344 24.1975 41.2664 26.4967 41.2235 28.7942C41.1931 30.4147 40.7199 31.9019 39.6541 33.0948C38.2572 34.6581 36.4634 35.0712 34.539 34.9076C32.8746 34.7662 31.4425 34.06 30.4003 32.5924C29.5902 31.4516 29.1697 30.138 29.1573 28.7359C29.1169 24.1074 29.0829 19.4771 29.1654 14.8498C29.2092 12.3876 30.3954 10.5868 32.5542 9.63253C35.0679 8.52157 37.9309 9.06102 39.6302 10.9257C40.6617 12.0576 41.1621 13.4361 41.2356 15.004C41.2407 15.1163 41.2409 15.2289 41.2409 15.3416C41.2412 17.5274 41.241 19.7133 41.241 21.8991C41.2388 21.8991 41.2365 21.8993 41.2344 21.8993Z" fill="#0C293B"/>
<path fill-rule="evenodd" clip-rule="evenodd" d="M41.2561 66.5533V59.7951C41.2561 58.7487 42.1556 58.0874 43.3407 58.2624C44.2659 58.3992 44.7524 58.8956 44.8632 59.8362C44.8913 60.0753 44.8844 60.3183 44.8846 60.5596C44.8857 64.711 44.8859 68.8626 44.8841 73.014C44.8841 73.255 44.89 73.4993 44.8511 73.7364C44.6813 74.7686 43.7536 75.2834 42.6326 74.9636C42.3606 74.8859 42.1046 74.758 41.8508 74.6374C41.4105 74.4277 41.242 74.1091 41.2462 73.6494C41.2676 71.2843 41.2563 68.9186 41.2561 66.5533Z" fill="#0C293B"/>
<path fill-rule="evenodd" clip-rule="evenodd" d="M60.0026 62.1167C59.5571 62.1161 59.1114 62.1133 58.6658 62.1173C58.3857 62.1197 58.229 61.9874 58.2349 61.6472C58.2539 60.5899 58.1684 59.5292 58.3354 58.4771C58.4757 57.5933 59.0105 57.0186 59.7739 56.9516C60.7301 56.8676 61.4317 57.3047 61.6703 58.1862C61.9903 59.3681 61.8262 60.5885 61.8308 61.7937C61.832 62.0984 61.5934 62.1144 61.3891 62.116C60.9269 62.1195 60.4648 62.1171 60.0026 62.1167Z" fill="#0C293B"/>
</svg>
