<svg class="svg" width="518" height="747" viewBox="0 0 518 747" >
  <clipPath id="my-clip-path" clipPathUnits="objectBoundingBox"><path d="M0.998,0.347 C0.998,0.156,0.775,0.001,0.5,0.001 C0.225,0.001,0.002,0.156,0.002,0.347 V0.999 H0.998 V0.347 M0.002,0.999 H0 V1 H0.002 V0.999 M0.998,0.999 V1 H1 V0.999 H0.998 M0.5,0.003 C0.774,0.003,0.996,0.157,0.996,0.347 H1 C1,0.155,0.776,0,0.5,0 V0.003 M0.004,0.347 C0.004,0.157,0.226,0.003,0.5,0.003 V0 C0.224,0,0,0.155,0,0.347 H0.004 M0.004,0.999 V0.347 H0 V0.999 H0.004 M0.998,0.997 H0.002 V1 H0.998 V0.997 M0.996,0.347 V0.999 H1 V0.347 H0.996"></path></clipPath>
</svg>