<svg width="396" height="67" viewBox="0 0 396 67" fill="none" xmlns="http://www.w3.org/2000/svg">
<path fill-rule="evenodd" clip-rule="evenodd" d="M359.346 10.0106C359.664 9.51762 359.886 8.92143 360 8.39404L358.56 8.07875C358.488 8.52589 358.308 9.03035 358.008 9.45456C357.63 9.98768 357.126 10.3431 356.424 10.538C354.93 10.9507 353.376 10.1998 352.842 8.50296L359.538 6.65136C359.25 5.55071 358.554 4.36982 357.792 3.7851C357.06 3.21758 355.764 2.71885 354.084 3.18318C351.492 3.89975 350.496 6.23862 351.24 8.69213C352.164 11.7418 354.714 12.3839 356.79 11.8106C357.888 11.5068 358.764 10.9049 359.346 10.0106ZM354.462 4.4558C355.728 4.10612 357 4.67937 357.642 5.89467L352.584 7.2934C352.44 6.00358 353.196 4.80549 354.462 4.4558Z" fill="#E64020"/>
<path d="M362.768 0.0741656L365.254 6.40297L368.238 0.296663L370 0.370828L365.107 10L361 0L362.768 0.0741656Z" fill="#E64020"/>
<path fill-rule="evenodd" clip-rule="evenodd" d="M376.077 11.7566C376.663 11.557 377.231 11.2205 377.665 10.8726L376.706 9.78332C376.358 10.097 375.882 10.3821 375.363 10.5418C374.709 10.7357 374.075 10.7243 373.385 10.462C371.919 9.91449 371.162 8.4146 371.846 6.77214L378.428 9.23584C378.922 8.20359 379.136 6.86909 378.91 5.96801C378.696 5.08975 377.982 3.93775 376.334 3.32182C373.788 2.36942 371.455 3.61267 370.442 5.97372C369.184 8.90506 370.808 10.9068 372.847 11.671C373.928 12.0759 375.027 12.1101 376.077 11.7566ZM375.821 4.54797C377.06 5.01561 377.707 6.20754 377.42 7.53634L372.45 5.67146C373.183 4.57648 374.575 4.08602 375.821 4.54797Z" fill="#E64020"/>
<path d="M384.171 8L385.209 9.07628L384.494 9.77065C384.938 9.71857 386.08 9.67806 387.078 10.708C387.787 11.4429 388.139 12.4035 387.949 13.3119C387.787 14.0757 387.326 14.6139 386.645 15.2793L382.816 19L381.778 17.9237L385.573 14.2262C385.948 13.8674 386.345 13.4161 386.432 12.8432C386.495 12.3745 386.357 11.8711 385.896 11.3908C385.532 11.0147 385.042 10.7138 384.367 10.7659C383.473 10.8296 382.712 11.5066 382.268 11.9406L379.038 15.0826L378 14.0063L384.171 8Z" fill="#E64020"/>
<path d="M391.663 19.6379L384.649 23L384 21.4503L391.014 18.0816L390.616 17.136L391.939 16.4991L392.337 17.4447L395.351 16L396 17.5497L392.986 18.9944L393.636 20.5441L392.306 21.1811L391.663 19.6379Z" fill="#E64020"/>
<path d="M391.881 27.6742C392.363 27.4021 392.712 26.8646 392.683 26.2046C392.655 25.5719 392.322 25.0003 391.663 25.0412C391.044 25.082 390.884 25.5787 390.523 26.7557C390.07 28.2526 389.709 28.9602 389.314 29.3752C388.878 29.8447 388.431 29.9671 387.956 29.9943C386.162 30.1032 385.09 28.6268 385.004 26.6741C384.987 26.259 384.93 23.9866 387.033 23L387.635 24.4832C387.188 24.7078 386.271 25.3473 386.322 26.6196C386.374 27.7695 387.113 28.239 387.749 28.1981C388.552 28.1505 388.792 27.4497 389.096 26.4768C389.497 25.2249 389.789 24.422 390.242 23.9321C390.638 23.5171 391.044 23.415 391.48 23.3946C392.981 23.2994 393.921 24.4968 393.996 26.2046C394.019 26.7421 393.996 28.1913 392.575 29.0826L391.881 27.6742Z" fill="#E64020"/>
<path fill-rule="evenodd" clip-rule="evenodd" d="M72.0855 38.7306C72.9367 38.7306 73.6326 38.4657 74.1856 37.9419C74.7324 37.412 75.012 36.7526 74.9996 35.9639C74.9996 32.6426 74.3658 29.6972 73.0921 27.1338C71.8245 24.5704 69.9978 22.5739 67.6242 21.1444C65.2507 19.7148 62.436 19 59.1677 19C55.856 19 52.8984 19.7456 50.2949 21.2368C47.6915 22.728 45.6535 24.8107 44.1933 27.4789C42.727 30.1532 42 33.1664 42 36.5308C42 39.8952 42.7767 42.9023 44.3238 45.5519C45.871 48.2016 48.0208 50.272 50.7796 51.7632C53.5384 53.2544 56.6513 54 60.1308 54C62.0756 54 64.1261 53.6426 66.2635 52.9278C68.4071 52.2069 70.1966 51.2887 71.6381 50.1488C72.3154 49.6435 72.6571 49.015 72.6571 48.257C72.6571 47.4621 72.2781 46.7412 71.5139 46.1127C71.0479 45.6937 70.4141 45.4842 69.6063 45.4842C68.7986 45.4842 68.0965 45.7121 67.5062 46.1743C66.6115 46.846 65.4806 47.4129 64.1012 47.875C62.7218 48.3433 61.3922 48.5713 60.1246 48.5713C56.9061 48.5713 54.1784 47.6717 51.9539 45.86C49.7295 44.0484 48.3812 41.6761 47.9152 38.7306H72.0855ZM47.9835 33.6778C48.4868 30.8618 49.7047 28.6127 51.6371 26.9305C53.5694 25.2482 56.0797 24.4102 59.174 24.4102C61.97 24.4102 64.2379 25.2482 65.9777 26.9305C67.7174 28.6127 68.7737 30.8618 69.159 33.6778H47.9835Z" fill="#E64020"/>
<path d="M100.205 47.6288C100.733 48.2141 101 48.964 101 49.8785C101 50.793 100.652 51.5429 99.9503 52.1282C99.2547 52.7135 98.354 53 97.2484 53H96.0994C94.0248 53 92.1242 52.4696 90.4099 51.4088C88.6894 50.3479 87.3478 48.903 86.3727 47.074C85.3975 45.245 84.913 43.1843 84.913 40.898V25.4793H81.9876C81.0994 25.4793 80.3789 25.2294 79.8261 24.7294C79.2733 24.2295 79 23.6076 79 22.8577C79 22.0225 79.2733 21.3579 79.8261 20.858C80.3789 20.3581 81.0994 20.1081 81.9876 20.1081H84.913V11.1215C84.913 10.207 85.2112 9.45712 85.8012 8.87183C86.3913 8.28655 87.1553 8 88.0932 8C89.0248 8 89.7888 8.29264 90.3851 8.87183C90.9752 9.45102 91.2733 10.2009 91.2733 11.1215V20.1081H96.677C97.5652 20.1081 98.2857 20.3581 98.8385 20.858C99.3913 21.3579 99.6646 22.0225 99.6646 22.8577C99.6646 23.6076 99.3851 24.2295 98.8385 24.7294C98.2857 25.2294 97.5714 25.4793 96.677 25.4793H91.2733V40.8919C91.2733 42.5563 91.7391 43.9464 92.6708 45.0742C93.6025 46.196 94.7453 46.7569 96.1056 46.7569H98.2671C99.0311 46.7569 99.677 47.0496 100.205 47.6288Z" fill="#E64020"/>
<path fill-rule="evenodd" clip-rule="evenodd" d="M137.085 38.7306C137.937 38.7306 138.633 38.4657 139.186 37.9419C139.739 37.412 140.012 36.7526 140 35.9639C140 32.6426 139.366 29.6972 138.092 27.1338C136.825 24.5704 134.998 22.5739 132.624 21.1444C130.251 19.7148 127.436 19 124.168 19C120.856 19 117.898 19.7456 115.295 21.2368C112.692 22.728 110.654 24.8107 109.193 27.4789C107.727 30.1532 107 33.1664 107 36.5308C107 39.8952 107.777 42.9023 109.324 45.5519C110.871 48.2016 113.021 50.272 115.78 51.7632C118.538 53.2544 121.651 54 125.131 54C127.076 54 129.126 53.6426 131.263 52.9278C133.407 52.2069 135.197 51.2887 136.638 50.1488C137.315 49.6435 137.657 49.015 137.657 48.257C137.657 47.4621 137.278 46.7412 136.514 46.1127C136.048 45.6937 135.414 45.4842 134.606 45.4842C133.799 45.4842 133.096 45.7121 132.506 46.1743C131.611 46.846 130.481 47.4129 129.101 47.875C127.722 48.3433 126.392 48.5713 125.125 48.5713C121.906 48.5713 119.178 47.6717 116.954 45.86C114.73 44.0484 113.381 41.6761 112.915 38.7306H137.085ZM112.99 33.6778C113.493 30.8618 114.711 28.6127 116.643 26.9305C118.569 25.2482 121.08 24.4102 124.18 24.4102C126.976 24.4102 129.244 25.2482 130.984 26.9305C132.724 28.6127 133.78 30.8618 134.165 33.6778H112.99Z" fill="#E64020"/>
<path d="M171.032 19.014C172.346 19.6879 173 20.5349 173 21.5427C173 21.8394 172.981 22.0496 172.936 22.1733C172.538 23.5273 171.667 24.2012 170.314 24.2012C170.096 24.2012 169.769 24.1579 169.327 24.0775C167.577 23.7808 166.154 23.6324 165.064 23.6324C161.917 23.6324 159.378 24.3249 157.455 25.7221C155.532 27.1132 154.564 28.9928 154.564 31.3545V49.8345C154.564 50.8484 154.295 51.6275 153.744 52.1777C153.199 52.728 152.378 53 151.282 53C150.231 53 149.423 52.7403 148.853 52.2086C148.282 51.6831 148 50.8917 148 49.8345V21.5488C148 20.5349 148.282 19.7559 148.853 19.2056C149.423 18.6615 150.231 18.3833 151.282 18.3833C153.468 18.3833 154.558 19.4406 154.558 21.5488V22.7483C155.872 21.2706 157.487 20.1145 159.417 19.2674C161.34 18.4204 163.397 18 165.583 18C167.904 18 169.718 18.34 171.032 19.014Z" fill="#E64020"/>
<path d="M198.447 19.313C200.581 20.1943 202.271 21.4146 203.517 22.9676C204.058 23.6394 204.325 24.3173 204.325 24.9891C204.325 25.704 203.973 26.3573 203.267 26.9428C202.812 27.2817 202.228 27.4482 201.523 27.4482C200.447 27.4482 199.468 27.0476 198.599 26.2525C197.559 25.2849 196.459 24.6008 195.298 24.2002C194.137 23.7996 192.726 23.6024 191.067 23.6024C189.158 23.6024 187.596 23.9291 186.368 24.5824C185.14 25.2356 184.532 26.1478 184.532 27.3249C184.532 28.1692 184.739 28.8718 185.152 29.4388C185.565 30.0058 186.356 30.5297 187.517 31.0165C188.678 31.4972 190.356 31.9718 192.556 32.434C197.079 33.3585 200.283 34.6404 202.167 36.2797C204.052 37.9191 205 40.0453 205 42.6523C205 44.5875 204.483 46.3439 203.444 47.9217C202.404 49.4994 200.884 50.7382 198.872 51.6441C196.86 52.5501 194.441 53 191.62 53C188.799 53 186.149 52.5563 183.657 51.675C181.17 50.7936 179.213 49.635 177.809 48.2052C177.267 47.6567 177 47.0096 177 46.2515C177 45.2408 177.413 44.4211 178.246 43.7925C179.036 43.207 179.76 42.9111 180.422 42.9111C181.249 42.9111 182.04 43.2933 182.787 44.0513C183.578 44.9326 184.757 45.703 186.331 46.3563C187.906 47.0096 189.59 47.33 191.371 47.33C193.736 47.33 195.571 46.9294 196.878 46.1344C198.185 45.3332 198.836 44.2608 198.836 42.9173C198.836 41.6108 198.191 40.5322 196.909 39.6694C195.62 38.8066 193.444 38.0855 190.374 37.4939C182.41 35.9408 178.429 32.6128 178.429 27.5283C178.429 25.4698 179.03 23.7195 180.234 22.2897C181.438 20.8599 183.012 19.7875 184.964 19.0726C186.915 18.3577 188.988 18.0003 191.182 18.0003C193.894 17.9879 196.307 18.4255 198.447 19.313Z" fill="#E64020"/>
<path fill-rule="evenodd" clip-rule="evenodd" d="M218.554 4.88986C217.94 4.29869 217.164 4 216.233 4C215.259 4 214.477 4.29869 213.887 4.88986C213.292 5.48724 213 6.27131 213 7.24829V36.29C213 39.6067 213.776 42.6061 215.321 45.3068C216.866 48.0012 218.964 50.1232 221.607 51.6727C224.257 53.2284 227.205 54 230.469 54C233.727 54 236.706 53.2222 239.393 51.6727C242.08 50.1232 244.19 48.0012 245.71 45.3068C247.237 42.6061 248 39.6005 248 36.29C248 32.9795 247.293 29.9739 245.871 27.2794C244.45 24.5787 242.502 22.4692 240.026 20.9384C237.543 19.4138 234.782 18.6484 231.735 18.6484C229.277 18.6484 226.994 19.1525 224.878 20.173C222.762 21.1935 220.962 22.6185 219.479 24.4418V7.24829C219.479 6.27131 219.168 5.48724 218.554 4.88986ZM236.209 46.7069C234.496 47.7523 232.579 48.2688 230.463 48.2688C228.34 48.2688 226.429 47.7523 224.716 46.7069C223.004 45.6677 221.657 44.2365 220.683 42.407C219.702 40.5837 219.218 38.5489 219.218 36.2962C219.218 34.0498 219.708 32.0212 220.683 30.2166C221.657 28.4119 223.004 26.9869 224.716 25.9477C226.429 24.9085 228.347 24.3858 230.463 24.3858C232.579 24.3858 234.496 24.9085 236.209 25.9477C237.922 26.9869 239.281 28.4119 240.274 30.2166C241.273 32.0212 241.77 34.0436 241.77 36.2962C241.77 38.5426 241.267 40.5837 240.274 42.407C239.281 44.2365 237.928 45.6677 236.209 46.7069Z" fill="#E64020"/>
<path fill-rule="evenodd" clip-rule="evenodd" d="M303.614 18.6765C303.575 18.6765 303.542 18.6814 303.504 18.6868L303.49 18.6889C303.468 18.6889 303.447 18.6858 303.425 18.6827C303.403 18.6796 303.382 18.6765 303.36 18.6765C302.809 18.6765 302.357 18.844 301.998 19.1851C301.639 19.5262 301.46 19.9914 301.46 20.5807V40.007C301.46 41.874 300.933 43.5735 299.875 45.1179C298.816 46.6623 297.374 47.8718 295.535 48.734C293.697 49.6023 291.66 50.0303 289.425 50.0303C287.859 50.0303 286.423 49.8194 285.11 49.4287C286.503 48.2006 287.68 46.7554 288.633 45.0807C290.174 42.3702 290.948 39.3681 290.948 36.0622C290.948 32.719 290.174 29.6922 288.633 26.9817C287.091 24.2774 284.968 22.1499 282.263 20.5993C279.558 19.0549 276.561 18.2795 273.262 18.2795C269.925 18.2795 266.904 19.0549 264.199 20.5993C261.5 22.1437 259.37 24.2712 257.835 26.9817C256.294 29.6922 255.52 32.719 255.52 36.0622C255.52 39.3619 256.288 42.3702 257.835 45.0807C259.377 47.785 261.5 49.9187 264.199 51.4569C266.904 53.0013 269.925 53.7766 273.262 53.7766C276.159 53.7766 278.821 53.1812 281.26 51.9903C283.662 53.2246 286.386 53.8449 289.425 53.8449C291.877 53.8449 294.13 53.3487 296.204 52.35C298.271 51.3576 300.03 49.9683 301.466 48.1944V51.4941C301.466 52.0461 301.645 52.4989 302.004 52.8587C302.363 53.2184 302.815 53.3983 303.366 53.3983C303.411 53.3983 303.445 53.3933 303.483 53.3877L303.496 53.3859C303.518 53.3859 303.538 53.389 303.558 53.3921L303.558 53.3921C303.578 53.3952 303.598 53.3983 303.62 53.3983C304.208 53.3983 304.672 53.2184 305.013 52.8587C305.353 52.4989 305.52 52.0461 305.52 51.4941V20.5745C305.52 19.9852 305.353 19.52 305.013 19.1789C304.672 18.8378 304.208 18.6765 303.614 18.6765ZM285.327 28.83C286.534 30.9885 287.135 33.4013 287.135 36.0684C287.135 38.7355 286.534 41.1483 285.327 43.3068C284.349 45.0559 283.068 46.4949 281.495 47.6361C281.18 47.3942 280.87 47.1399 280.579 46.867C278.32 44.7519 277.193 41.6817 277.193 37.6625V22.3856C278.301 22.6957 279.36 23.1423 280.356 23.7316C282.467 24.9721 284.126 26.6778 285.327 28.83ZM261.16 43.3068C262.379 45.4652 264.05 47.1585 266.161 48.3866C268.272 49.6147 270.637 50.2288 273.262 50.2288C274.884 50.2288 276.407 49.9931 277.83 49.5217C276.914 48.6099 276.122 47.5679 275.453 46.3832C274.079 43.9518 273.392 41.0428 273.392 37.6562V21.8522C273.37 21.8522 273.349 21.8506 273.327 21.8491C273.305 21.8475 273.284 21.846 273.262 21.846C270.637 21.846 268.272 22.4725 266.161 23.7192C264.05 24.9659 262.385 26.6716 261.16 28.83C259.934 30.9885 259.321 33.4013 259.321 36.0684C259.321 38.7355 259.934 41.1483 261.16 43.3068Z" fill="#E64020"/>
<path d="M305.675 6.228C305.106 5.71939 304.419 5.46509 303.62 5.46509C302.815 5.46509 302.122 5.71939 301.528 6.228C300.933 6.73661 300.642 7.4561 300.642 8.38648C300.642 9.23623 300.915 9.94332 301.466 10.5139C302.017 11.0846 302.71 11.3699 303.558 11.3699C304.406 11.3699 305.112 11.0846 305.681 10.5139C306.251 9.94332 306.536 9.23623 306.536 8.38648C306.529 7.4561 306.245 6.74281 305.675 6.228Z" fill="#E64020"/>
<path d="M341.032 19.014C342.346 19.6879 343 20.5349 343 21.5427C343 21.8394 342.981 22.0496 342.936 22.1733C342.538 23.5273 341.667 24.2012 340.314 24.2012C340.096 24.2012 339.769 24.1579 339.327 24.0775C337.577 23.7808 336.154 23.6324 335.064 23.6324C331.917 23.6324 329.378 24.3249 327.455 25.7221C325.532 27.1132 324.564 28.9928 324.564 31.3545V49.8345C324.564 50.8484 324.295 51.6275 323.744 52.1777C323.199 52.728 322.378 53 321.282 53C320.231 53 319.423 52.7403 318.853 52.2086C318.282 51.6831 318 50.8917 318 49.8345V21.5488C318 20.5349 318.282 19.7559 318.853 19.2056C319.423 18.6615 320.231 18.3833 321.282 18.3833C323.468 18.3833 324.558 19.4406 324.558 21.5488V22.7483C325.872 21.2706 327.487 20.1145 329.417 19.2674C331.34 18.4204 333.397 18 335.583 18C337.904 18 339.718 18.34 341.032 19.014Z" fill="#E64020"/>
<path fill-rule="evenodd" clip-rule="evenodd" d="M377.747 26.4364C376.245 23.7904 374.166 21.7228 371.522 20.2337C368.877 18.7446 365.88 18 362.534 18C359.145 18 356.116 18.7446 353.447 20.2337C350.779 21.7228 348.705 23.7904 347.222 26.4364C345.739 29.0824 345 32.1037 345 35.5066C345 38.8664 345.683 41.8693 347.061 44.5153C348.439 47.1612 350.369 49.2288 352.845 50.7179C355.322 52.2071 358.127 52.9517 361.262 52.9517C363.968 52.9517 366.407 52.3055 368.567 51.001C370.733 49.7026 372.465 47.8935 373.781 45.586V48.6688C373.781 51.3148 373.272 53.5916 372.254 55.5053C371.236 57.4129 369.883 58.8651 368.189 59.8497C366.494 60.8404 364.607 61.3327 362.534 61.3327C360.331 61.3327 358.363 60.945 356.625 60.1697C354.887 59.3882 353.447 58.2682 352.305 56.7976C351.629 55.9176 350.76 55.4746 349.699 55.4746C349.103 55.4746 348.507 55.6592 347.917 56.0407C347.03 56.6683 346.583 57.4252 346.583 58.3052C346.583 58.8959 346.812 59.4866 347.278 60.0712C349.059 62.2988 351.263 64.0033 353.888 65.2032C356.514 66.4031 359.356 67 362.404 67C365.793 67 368.834 66.2124 371.522 64.6371C374.209 63.0618 376.295 60.9142 377.778 58.1821C379.255 55.45 380 52.4286 380 49.1119V35.5066C380 32.1037 379.249 29.0824 377.747 26.4364ZM372.347 41.5862C371.391 43.3707 370.063 44.7675 368.344 45.7767C366.631 46.7797 364.694 47.2843 362.534 47.2843C360.368 47.2843 358.438 46.7859 356.718 45.7767C355.005 44.7675 353.658 43.3707 352.684 41.5862C351.71 39.8079 351.225 37.7772 351.225 35.5127C351.225 33.2421 351.71 31.2115 352.684 29.4024C353.658 27.5994 354.999 26.1903 356.718 25.1811C358.438 24.1719 360.374 23.6673 362.534 23.6673C364.694 23.6673 366.631 24.1719 368.344 25.1811C370.057 26.1903 371.391 27.5994 372.347 29.4024C373.297 31.2115 373.775 33.2421 373.775 35.5127C373.775 37.7772 373.297 39.8017 372.347 41.5862Z" fill="#E64020"/>
<path fill-rule="evenodd" clip-rule="evenodd" d="M26.3927 20.2777C29.0798 21.7941 31.1897 23.8707 32.7101 26.5077C34.2367 29.1447 35 32.0861 35 35.3321C35 38.572 34.2926 41.5134 32.8715 44.1504C31.4504 46.7934 29.5018 48.858 27.0257 50.3561C24.5434 51.8481 21.7819 52.5972 18.7349 52.5972C16.2775 52.5972 13.9938 52.0978 11.8777 51.0991C9.76153 50.1003 7.89362 48.6935 6.41046 46.9031V47.3781C6.22429 53.5533 9.36436 56.6836 11.0151 57.7311C14.5275 59.96 11.2074 64.5579 7.68262 62.4691C5.00798 60.8857 0.18617 56.848 0.18617 47.8166L0 35.3321C0 32.0861 0.775709 29.1508 2.32092 26.5077C3.86613 23.8707 5.95745 21.7941 8.60727 20.2777C11.2571 18.7612 14.2048 18 17.469 18C20.7269 18 23.7057 18.7612 26.3927 20.2777ZM23.2154 45.4597C24.9282 44.4427 26.2872 43.0481 27.2801 41.282C28.2731 39.5159 28.7757 37.5306 28.7757 35.3321C28.7757 33.1275 28.2731 31.1361 27.2801 29.3456C26.2872 27.5552 24.9344 26.1545 23.2154 25.1375C21.5027 24.1204 19.5851 23.6089 17.469 23.6089C15.3528 23.6089 13.4415 24.1204 11.7225 25.1375C10.0098 26.1545 8.66312 27.5613 7.68883 29.3456C6.70833 31.1361 6.22429 33.1275 6.22429 35.3321C6.22429 37.5306 6.71454 39.5159 7.68883 41.282C8.66312 43.0481 10.0098 44.4427 11.7225 45.4597C13.4353 46.4829 15.3528 46.9883 17.469 46.9883C19.5851 46.9883 21.5027 46.4768 23.2154 45.4597Z" fill="#E64020"/>
</svg>
