<svg width="107" height="56" viewBox="0 0 107 56" fill="none" xmlns="http://www.w3.org/2000/svg">
<path fill-rule="evenodd" clip-rule="evenodd" d="M106.696 3.88392C106.795 3.26672 106.895 2.63999 107 2C106.372 2.47337 105.777 2.93857 105.198 3.39066C103.987 4.33677 102.849 5.22552 101.642 6.01173C95.6162 9.93262 89.074 11.5508 81.9522 9.92628C80.2335 9.53392 78.5456 9.00958 76.8574 8.48519C76.0005 8.21901 75.1436 7.95282 74.2826 7.70388C73.9412 7.6048 73.6003 7.50108 73.2594 7.39734C72.2193 7.08081 71.1783 6.76404 70.1158 6.57789C67.8821 6.18707 65.7331 7.69332 64.5169 10.372C62.3002 15.252 61.5493 20.3728 62.2579 25.669C63.2076 32.7714 66.1244 38.9801 71.1924 44.0904C74.3165 47.2423 77.6288 47.8507 81.3536 45.8311C88.5579 41.9271 94.2244 36.3458 98.4124 29.3195C102.342 22.7283 104.646 15.5351 106.006 8.02076C106.252 6.6619 106.47 5.29792 106.696 3.88392ZM96.3248 17.6519L96.5321 17.8335C95.9483 19.5278 94.9393 20.996 93.8014 22.3523C90.2627 26.552 85.9182 29.6363 80.6747 31.3496C78.5743 32.0362 76.3936 32.2834 74.3165 31.1848C72.2859 30.1117 71.5858 28.1766 71.1628 26.0936C70.8645 24.6233 70.8117 23.1508 71.5921 21.8072C72.5461 20.1616 74.1938 19.6524 75.9219 19.6884C77.7346 19.7264 79.5959 19.8658 81.3388 20.3263C86.3073 21.6361 90.9311 21.089 95.2545 18.2708C95.4927 18.1146 95.7421 17.9766 95.9914 17.8386C96.1029 17.7769 96.2143 17.7152 96.3248 17.6519Z" fill="#E0D5CD"/>
<path d="M31.4656 27.3095C32.8703 26.6854 34.1278 26.1985 35.3201 25.5808C37.8708 24.2574 38.6593 24.5663 39.1472 27.346C39.3301 28.3841 39.3091 29.4736 39.2607 30.5353C39.1892 32.174 38.3124 33.2292 36.7731 33.7204C35.6397 34.0807 34.5189 34.4754 33.3813 34.8228C32.7841 35.0051 32.5002 35.2668 32.6916 35.9725C33.1163 37.5489 33.4612 39.1489 33.8586 40.734C34.1824 42.023 34.9815 42.8766 36.2705 43.1147C37.9822 43.4322 39.7212 43.5995 41.4224 43.9619C41.9944 44.0842 42.6925 44.4853 42.9722 44.9721C44.3327 47.3529 44.9488 49.9782 44.9993 52.73C45.0245 54.1263 44.3769 54.7976 43.0163 54.9499C40.4404 55.2416 38.203 54.2163 36.0476 53.0195C31.5876 50.5444 27.9035 47.1363 24.8712 42.9925C22.6296 39.9297 20.552 36.7639 19.0422 33.2464C18.8046 32.6952 18.4724 32.4421 17.8394 32.4571C13.7558 32.5643 9.67211 32.6373 5.58635 32.7059C4.71159 32.7209 3.83682 32.6737 2.96205 32.6458C1.24405 32.5901 0.337744 31.7643 0.104332 30.0184C0.0391449 29.5273 -0.0302478 29.0211 0.0139112 28.5299C0.205267 26.4387 0.794053 26.0784 2.73284 26.6167C6.02794 27.5326 9.32515 28.4527 12.6497 29.2377C14.17 29.5959 15.7639 29.6302 17.32 29.8318C17.8899 29.9048 18.1464 29.701 18.2263 29.1112C19.1326 22.4515 21.9525 16.5897 25.7186 11.1997C27.4514 8.72033 29.4322 6.36317 31.596 4.26982C34.2245 1.72606 37.6268 0.59788 41.1806 0.0659637C43.1278 -0.225732 43.6977 0.430584 43.254 2.42313C42.4948 5.81838 41.1596 8.99487 39.4731 12.0083C38.4974 13.7521 36.6154 14.0631 34.9689 14.7065C32.9986 15.4744 31.3142 16.594 31.1733 18.934C31.0408 21.1346 31.1965 23.3523 31.2511 25.5636C31.2658 26.087 31.3773 26.6082 31.4656 27.3095Z" fill="#E0D5CD"/>
<path d="M42 23.3841C42.1356 16.7217 42.2906 11.7482 43.8601 6.94867C44.0905 6.24636 44.3768 5.5589 44.6869 4.88629C45.9829 2.06642 48.3124 0.865484 51.3459 1.01189C54.2975 1.15617 57.1588 1.82029 59.8801 2.97031C62.5755 4.10759 63.7101 6.11905 63.3527 8.97923C63.2881 9.50331 63.1826 10.0253 63.0599 10.5388C62.3925 13.3035 60.724 14.2583 57.9467 13.4562C57.3288 13.278 56.7389 13.0064 56.1232 12.8239C53.8196 12.1428 52.1252 12.9109 51.1478 15.0921C50.0584 17.5237 50.0067 20.1017 50.1596 22.6839C50.4761 28.0096 51.6989 33.1401 53.7141 38.0881C53.8217 38.3491 53.9186 38.6165 54.0435 38.869C55.5225 41.8756 56.6421 42.302 59.8391 41.256C61.1524 40.8253 62.5131 40.4773 63.878 40.2715C65.4454 40.0338 66.7371 40.698 67.7641 41.8734C70.0332 44.4726 70.6834 48.5528 69.213 51.1605C68.1753 53.0001 66.4206 53.9401 64.5325 54.6891C59.6734 56.6178 54.9757 56.5605 50.5191 53.5603C48.6332 52.2893 47.5545 50.437 46.6675 48.4489C44.5426 43.6854 43.4963 38.6419 42.8849 33.5178C42.4155 29.5967 42.1916 25.6502 42 23.3841Z" fill="#E0D5CD"/>
</svg>
