<svg width="333" height="56" viewBox="0 0 333 56" fill="none" xmlns="http://www.w3.org/2000/svg">
<path fill-rule="evenodd" clip-rule="evenodd" d="M63.4914 30.1541C64.2286 30.1541 64.8343 29.9256 65.3143 29.4627C65.7943 28.9998 66.0343 28.417 66.0343 27.7141C66.0343 24.7998 65.48 22.217 64.3714 19.9713C63.2686 17.7256 61.68 15.9713 59.6171 14.7198C57.5543 13.4627 55.1028 12.8398 52.2628 12.8398C49.3886 12.8398 46.8171 13.4913 44.5486 14.7998C42.28 16.1084 40.5086 17.9313 39.24 20.2741C37.9657 22.617 37.3314 25.257 37.3314 28.2113C37.3314 31.1656 38 33.7998 39.3486 36.1198C40.6914 38.4398 42.5657 40.257 44.96 41.5656C47.36 42.8741 50.0686 43.5256 53.0914 43.5256C54.7886 43.5256 56.5657 43.2113 58.4286 42.5884C60.2914 41.9598 61.8514 41.1484 63.1028 40.1541C63.6914 39.7141 63.9886 39.1598 63.9886 38.497C63.9886 37.7998 63.6571 37.1713 62.9943 36.617C62.5886 36.2513 62.0343 36.0684 61.3371 36.0684C60.6343 36.0684 60.0286 36.2684 59.5143 36.6741C58.7371 37.2627 57.7486 37.7598 56.5543 38.1656C55.3543 38.577 54.2 38.777 53.0971 38.777C50.2914 38.777 47.9257 37.9884 45.9886 36.3998C44.0514 34.817 42.88 32.737 42.4743 30.1541H63.4914ZM42.5314 25.7313C42.9714 23.257 44.0286 21.2856 45.7086 19.8113C47.3886 18.337 49.5714 17.5998 52.2628 17.5998C54.6971 17.5998 56.6686 18.337 58.1828 19.8113C59.6914 21.2913 60.6171 23.2627 60.9486 25.7313H42.5314Z" fill="#E0D5CD"/>
<path d="M87.7943 38.5542C88.2514 39.0742 88.4857 39.7371 88.4857 40.5428C88.4857 41.3542 88.1828 42.0171 87.5714 42.5314C86.9657 43.0514 86.1828 43.3028 85.2228 43.3028H84.2286C82.4228 43.3028 80.7714 42.8342 79.28 41.8914C77.7886 40.9542 76.6171 39.6685 75.7657 38.0457C74.92 36.4228 74.4971 34.5999 74.4971 32.5714V18.9142H71.9543C71.1828 18.9142 70.5543 18.6914 70.0743 18.2514C69.5943 17.8114 69.3543 17.2571 69.3543 16.5942C69.3543 15.8571 69.5943 15.2685 70.0743 14.8228C70.5543 14.3828 71.1828 14.1599 71.9543 14.1599H74.4971V6.19994C74.4971 5.38851 74.7543 4.72566 75.2686 4.21137C75.7828 3.69708 76.4457 3.43994 77.2571 3.43994C78.0686 3.43994 78.7314 3.69708 79.2457 4.21137C79.76 4.72566 80.0171 5.38851 80.0171 6.19994V14.1599H84.72C85.4914 14.1599 86.12 14.3828 86.6 14.8228C87.08 15.2685 87.32 15.8571 87.32 16.5942C87.32 17.2571 87.08 17.8114 86.6 18.2514C86.12 18.6914 85.4971 18.9142 84.72 18.9142H80.0171V32.5714C80.0171 34.0457 80.4228 35.2799 81.2343 36.2799C82.0457 37.2742 83.04 37.7714 84.2228 37.7714H86.1028C86.7714 37.7828 87.3314 38.0399 87.7943 38.5542Z" fill="#E0D5CD"/>
<path fill-rule="evenodd" clip-rule="evenodd" d="M120.006 30.1541C120.743 30.1541 121.349 29.9256 121.829 29.4627C122.309 28.9998 122.549 28.417 122.554 27.7141C122.554 24.7998 122 22.217 120.891 19.9713C119.789 17.7256 118.2 15.9713 116.137 14.7198C114.074 13.4627 111.623 12.8398 108.783 12.8398C105.909 12.8398 103.337 13.4913 101.069 14.7998C98.8 16.1084 97.0286 17.9313 95.76 20.2741C94.4857 22.617 93.8514 25.257 93.8514 28.2113C93.8514 31.1656 94.52 33.7998 95.8686 36.1198C97.2114 38.4398 99.0857 40.257 101.48 41.5656C103.88 42.8741 106.589 43.5256 109.611 43.5256C111.309 43.5256 113.086 43.2113 114.949 42.5884C116.811 41.9598 118.371 41.1484 119.623 40.1541C120.211 39.7141 120.509 39.1598 120.509 38.497C120.509 37.7998 120.177 37.1713 119.514 36.617C119.109 36.2513 118.554 36.0684 117.857 36.0684C117.154 36.0684 116.549 36.2684 116.034 36.6741C115.257 37.2627 114.269 37.7598 113.074 38.1656C111.874 38.577 110.72 38.777 109.617 38.777C106.811 38.777 104.446 37.9884 102.509 36.3998C100.571 34.817 99.4 32.737 98.9943 30.1541H120.006ZM99.0457 25.7313C99.4857 23.257 100.543 21.2856 102.223 19.8113C103.903 18.337 106.086 17.5998 108.777 17.5998C111.211 17.5998 113.183 18.337 114.697 19.8113C116.206 21.2913 117.131 23.2627 117.463 25.7313H99.0457Z" fill="#E0D5CD"/>
<path d="M149.143 13.6172C150.251 14.2057 150.8 14.9429 150.8 15.8286C150.8 16.0857 150.783 16.2686 150.749 16.3772C150.417 17.56 149.68 18.1486 148.537 18.1486C148.354 18.1486 148.074 18.1143 147.709 18.04C146.234 17.7829 145.034 17.6514 144.114 17.6514C141.457 17.6514 139.32 18.2572 137.697 19.4743C136.074 20.6914 135.263 22.3314 135.263 24.3943V40.5429C135.263 41.4286 135.034 42.1086 134.571 42.5886C134.109 43.0686 133.417 43.3086 132.497 43.3086C131.611 43.3086 130.931 43.08 130.451 42.6172C129.971 42.1543 129.731 41.4629 129.731 40.5429V15.8286C129.731 14.9429 129.971 14.2629 130.451 13.7829C130.931 13.3086 131.611 13.0629 132.497 13.0629C134.337 13.0629 135.263 13.9829 135.263 15.8286V16.88C136.371 15.5886 137.731 14.5772 139.354 13.84C140.977 13.1029 142.709 12.7314 144.554 12.7314C146.509 12.7314 148.034 13.0286 149.143 13.6172Z" fill="#E0D5CD"/>
<path d="M173.669 14.0056C175.566 14.777 177.069 15.8456 178.171 17.2113C178.651 17.7998 178.891 18.3941 178.891 18.9827C178.891 19.6056 178.577 20.177 177.949 20.697C177.543 20.9941 177.029 21.1427 176.4 21.1427C175.44 21.1427 174.577 20.7941 173.8 20.0913C172.88 19.2456 171.903 18.6456 170.869 18.2913C169.84 17.9427 168.583 17.7656 167.109 17.7656C165.411 17.7656 164.023 18.0513 162.937 18.6227C161.846 19.1941 161.309 19.9941 161.309 21.0284C161.309 21.7656 161.491 22.3827 161.863 22.8798C162.229 23.377 162.931 23.8398 163.96 24.2627C164.994 24.6856 166.486 25.097 168.44 25.5084C172.457 26.3198 175.303 27.4456 176.983 28.8798C178.657 30.3198 179.497 32.177 179.497 34.4627C179.497 36.1598 179.034 37.697 178.114 39.0798C177.194 40.4627 175.84 41.5484 174.051 42.3427C172.263 43.137 170.114 43.5313 167.606 43.5313C165.097 43.5313 162.743 43.1427 160.531 42.3713C158.32 41.5998 156.583 40.5827 155.331 39.3313C154.851 38.8513 154.611 38.2798 154.611 37.617C154.611 36.7313 154.983 36.0113 155.72 35.457C156.417 34.9427 157.063 34.6856 157.657 34.6856C158.394 34.6856 159.097 35.017 159.76 35.6798C160.457 36.4513 161.509 37.1256 162.914 37.697C164.314 38.2684 165.806 38.5541 167.394 38.5541C169.497 38.5541 171.126 38.2056 172.286 37.5084C173.446 36.8056 174.029 35.8684 174.029 34.6856C174.029 33.5427 173.457 32.5941 172.314 31.8341C171.171 31.0798 169.234 30.4456 166.509 29.9256C159.429 28.5598 155.891 25.6456 155.891 21.1884C155.891 19.3827 156.429 17.8513 157.497 16.5998C158.566 15.3484 159.966 14.4056 161.703 13.777C163.434 13.1541 165.28 12.8398 167.229 12.8398C169.623 12.8456 171.771 13.2284 173.669 14.0056Z" fill="#E0D5CD"/>
<path fill-rule="evenodd" clip-rule="evenodd" d="M191.474 0.896917C190.943 0.382631 190.269 0.125488 189.457 0.125488C188.611 0.125488 187.926 0.382631 187.411 0.891203C186.897 1.40549 186.64 2.0912 186.64 2.93692V28.1541C186.64 31.0341 187.314 33.6398 188.657 35.9826C190 38.3198 191.829 40.1655 194.131 41.5083C196.434 42.8569 199.006 43.5255 201.846 43.5255C204.686 43.5255 207.274 42.8569 209.617 41.5083C211.96 40.1655 213.794 38.3255 215.12 35.9826C216.446 33.6398 217.109 31.0283 217.109 28.1541C217.109 25.2798 216.491 22.6741 215.257 20.3312C214.023 17.9883 212.326 16.1541 210.171 14.8283C208.011 13.5026 205.606 12.8398 202.954 12.8398C200.817 12.8398 198.823 13.2798 196.983 14.1655C195.137 15.0569 193.571 16.2912 192.28 17.8741V2.94263C192.28 2.09692 192.011 1.41692 191.474 0.896917ZM206.851 37.1998C205.36 38.1026 203.686 38.5541 201.846 38.5541C200 38.5541 198.331 38.1026 196.84 37.1998C195.349 36.2969 194.177 35.0569 193.331 33.4683C192.48 31.8855 192.057 30.1141 192.057 28.1598C192.057 26.2055 192.48 24.4455 193.331 22.8798C194.177 21.3141 195.349 20.0798 196.84 19.1769C198.337 18.2741 200.006 17.8226 201.846 17.8226C203.691 17.8226 205.36 18.2741 206.851 19.1769C208.343 20.0798 209.52 21.3141 210.389 22.8798C211.257 24.4455 211.691 26.2055 211.691 28.1598C211.691 30.1141 211.257 31.8855 210.389 33.4683C209.526 35.0512 208.343 36.2969 206.851 37.1998Z" fill="#E0D5CD"/>
<path fill-rule="evenodd" clip-rule="evenodd" d="M252.749 20.3086C251.4 17.9486 249.549 16.0972 247.189 14.7486C244.829 13.4057 242.211 12.7314 239.337 12.7314C236.423 12.7314 233.789 13.4057 231.429 14.7486C229.074 16.0972 227.217 17.9486 225.874 20.3086C224.526 22.6686 223.857 25.3029 223.857 28.2172C223.857 31.0914 224.526 33.7086 225.874 36.0686C227.217 38.4229 229.069 40.28 231.429 41.6229C233.789 42.9714 236.423 43.64 239.337 43.64C242.211 43.64 244.829 42.9714 247.189 41.6229C249.549 40.28 251.4 38.4286 252.749 36.0686C254.091 33.7086 254.766 31.0914 254.766 28.2172C254.766 25.3086 254.091 22.6686 252.749 20.3086ZM228.777 21.9143C229.846 20.0343 231.303 18.5486 233.143 17.4629C234.983 16.3714 237.051 15.8286 239.337 15.8343C241.623 15.8343 243.691 16.3772 245.531 17.4629C247.377 18.5486 248.823 20.0343 249.874 21.9143C250.926 23.7943 251.451 25.8972 251.451 28.2172C251.451 30.5372 250.926 32.64 249.874 34.52C248.823 36.4 247.371 37.8743 245.531 38.9429C243.686 40.0172 241.623 40.5486 239.337 40.5486C237.051 40.5486 234.983 40.0114 233.143 38.9429C231.303 37.8743 229.846 36.4 228.777 34.52C227.703 32.64 227.171 30.5372 227.171 28.2172C227.171 25.8972 227.709 23.7943 228.777 21.9143Z" fill="#E0D5CD"/>
<path d="M266.823 13.5085C267.12 13.8057 267.269 14.2057 267.269 14.7257V41.6571C267.269 42.1371 267.12 42.5314 266.823 42.8457C266.526 43.1599 266.126 43.3142 265.606 43.3142C265.126 43.3142 264.726 43.1542 264.417 42.8457C264.109 42.5371 263.949 42.1371 263.949 41.6571V38.7828C262.697 40.3314 261.166 41.5371 259.36 42.4057C257.554 43.2742 255.583 43.7085 253.446 43.7085C250.754 43.7085 248.349 43.1542 246.229 42.0514C244.109 40.9428 242.446 39.3314 241.251 37.2114C240.051 35.0914 239.451 32.5599 239.451 29.6057V14.7314C239.451 14.2514 239.611 13.8571 239.92 13.5428C240.229 13.2285 240.629 13.0742 241.109 13.0742C241.589 13.0742 241.983 13.2342 242.297 13.5428C242.611 13.8571 242.766 14.2514 242.766 14.7314V29.6057C242.766 33.1085 243.749 35.7828 245.72 37.6228C247.691 39.4628 250.263 40.3885 253.434 40.3885C255.389 40.3885 257.166 40.0114 258.771 39.2571C260.377 38.5028 261.64 37.4514 262.56 36.1028C263.48 34.7599 263.943 33.2742 263.943 31.6514V14.7314C263.943 14.2171 264.103 13.8114 264.411 13.5142C264.72 13.2171 265.12 13.0685 265.6 13.0685C266.126 13.0628 266.531 13.2114 266.823 13.5085Z" fill="#E0D5CD"/>
<path fill-rule="evenodd" clip-rule="evenodd" d="M268.377 4.10292C268.377 3.29149 268.126 2.66863 267.629 2.22292C267.131 1.78292 266.531 1.56006 265.829 1.56006C265.126 1.56006 264.52 1.7772 264.006 2.22292C263.491 2.66292 263.234 3.29149 263.234 4.10292C263.234 4.84006 263.474 5.4572 263.954 5.95434C264.434 6.45149 265.04 6.70292 265.777 6.70292C266.514 6.70292 267.131 6.45149 267.629 5.95434C268.131 5.4572 268.377 4.84006 268.377 4.10292ZM265.829 13.0629C265.349 13.0629 264.954 13.2115 264.64 13.5086C264.331 13.8001 264.171 14.2058 264.171 14.7258V41.6572C264.171 42.1372 264.331 42.5372 264.64 42.8458C264.949 43.1543 265.349 43.3143 265.829 43.3143C266.349 43.3143 266.749 43.1601 267.046 42.8458C267.343 42.5315 267.491 42.1372 267.491 41.6572V14.7258C267.491 14.2058 267.343 13.8058 267.046 13.5086C266.749 13.2115 266.343 13.0629 265.829 13.0629Z" fill="#E0D5CD"/>
<path d="M298.28 13.6172C299.389 14.2057 299.937 14.9429 299.937 15.8286C299.937 16.0857 299.92 16.2686 299.886 16.3772C299.554 17.56 298.817 18.1486 297.674 18.1486C297.491 18.1486 297.211 18.1143 296.846 18.04C295.371 17.7829 294.171 17.6514 293.251 17.6514C290.594 17.6514 288.457 18.2572 286.834 19.4743C285.211 20.6914 284.4 22.3314 284.4 24.3943V40.5429C284.4 41.4286 284.171 42.1086 283.709 42.5886C283.246 43.0686 282.554 43.3086 281.634 43.3086C280.749 43.3086 280.069 43.08 279.589 42.6172C279.109 42.1543 278.869 41.4629 278.869 40.5429V15.8286C278.869 14.9429 279.109 14.2629 279.589 13.7829C280.069 13.3086 280.749 13.0629 281.634 13.0629C283.474 13.0629 284.4 13.9829 284.4 15.8286V16.88C285.509 15.5886 286.869 14.5772 288.491 13.84C290.114 13.1029 291.846 12.7314 293.691 12.7314C295.64 12.7314 297.171 13.0286 298.28 13.6172Z" fill="#E0D5CD"/>
<path fill-rule="evenodd" clip-rule="evenodd" d="M330.491 20.2516C329.177 17.9316 327.371 16.1145 325.069 14.8059C322.766 13.4974 320.16 12.8459 317.246 12.8516C314.297 12.8516 311.663 13.5031 309.337 14.8116C307.017 16.1202 305.211 17.9374 303.92 20.2574C302.629 22.5831 301.983 25.2345 301.983 28.2231C301.983 31.1774 302.583 33.8116 303.777 36.1316C304.977 38.4516 306.651 40.2688 308.811 41.5774C310.966 42.8859 313.406 43.5373 316.137 43.5373C318.497 43.5373 320.617 42.9659 322.497 41.8231C324.377 40.6802 325.891 39.0974 327.034 37.0688V39.7773C327.034 42.0973 326.594 44.0973 325.709 45.7774C324.829 47.4516 323.646 48.7202 322.171 49.5888C320.697 50.4573 319.057 50.8916 317.251 50.8916C315.337 50.8916 313.623 50.5545 312.109 49.8688C310.594 49.1831 309.343 48.2002 308.349 46.9088C307.76 46.1373 307 45.7488 306.08 45.7488C305.566 45.7488 305.046 45.9145 304.531 46.2459C303.76 46.7945 303.371 47.4631 303.371 48.2345C303.371 48.7545 303.571 49.2688 303.977 49.7831C305.526 51.7374 307.44 53.2402 309.726 54.2916C312.011 55.3431 314.48 55.8688 317.137 55.8688C320.08 55.8688 322.726 55.1773 325.069 53.7945C327.406 52.4116 329.223 50.5202 330.514 48.1259C331.806 45.7259 332.451 43.0745 332.451 40.1602V28.2174C332.451 25.2288 331.8 22.5716 330.491 20.2516ZM325.789 33.5488C324.96 35.1202 323.794 36.3431 322.303 37.2288C320.811 38.1145 319.126 38.5545 317.246 38.5545C315.36 38.5545 313.674 38.1145 312.183 37.2288C310.686 36.3431 309.514 35.1145 308.669 33.5488C307.823 31.9831 307.4 30.2002 307.4 28.2116C307.4 26.2174 307.823 24.4345 308.669 22.8459C309.52 21.2574 310.691 20.0231 312.183 19.1374C313.68 18.2574 315.366 17.8116 317.246 17.8116C319.126 17.8116 320.811 18.2516 322.303 19.1374C323.8 20.0288 324.96 21.2631 325.789 22.8459C326.617 24.4345 327.034 26.2231 327.034 28.2116C327.034 30.2002 326.617 31.9831 325.789 33.5488Z" fill="#E0D5CD"/>
<path fill-rule="evenodd" clip-rule="evenodd" d="M22.628 15.0214C24.9353 16.3671 26.7417 18.211 28.0473 20.5587C29.3528 22.9065 30 25.5177 30 28.3981C30 31.2784 29.3922 33.8896 28.1767 36.2374C26.9612 38.5852 25.2898 40.4234 23.1683 41.7519C21.0411 43.0804 18.6719 43.7446 16.0608 43.7446C13.9561 43.7446 11.9977 43.3037 10.1801 42.4161C8.36241 41.5343 6.76421 40.2802 5.4924 38.6883V39.112C5.33483 44.5979 8.03039 47.3866 9.44288 48.3142C12.4536 50.2956 9.60608 54.3842 6.58413 52.5288C4.29375 51.1201 0.157569 47.5297 0.157569 39.5014L0 28.4038C0 25.5177 0.66404 22.9065 1.98649 20.5587C3.30895 18.2167 5.10974 16.3671 7.3776 15.0214C9.64547 13.6757 12.1778 13 14.9747 13C17.7715 13 20.3208 13.6757 22.628 15.0214ZM19.91 37.4056C21.3787 36.5008 22.538 35.264 23.3934 33.6949C24.2431 32.1259 24.6764 30.3565 24.6764 28.4038C24.6764 26.4511 24.2487 24.676 23.3934 23.0841C22.5436 21.4979 21.3787 20.2495 19.91 19.3448C18.4412 18.44 16.798 17.9876 14.9803 17.9876C13.1626 17.9876 11.5194 18.44 10.0506 19.3448C8.58188 20.2495 7.42825 21.4979 6.59539 23.0841C5.75689 24.6703 5.34046 26.4454 5.34046 28.4038C5.34046 30.3622 5.75689 32.1259 6.59539 33.6949C7.42825 35.264 8.58188 36.5008 10.0506 37.4056C11.525 38.3104 13.1626 38.7627 14.9803 38.7627C16.798 38.7627 18.4412 38.3104 19.91 37.4056Z" fill="#E0D5CD"/>
</svg>
