<svg width="305" height="76" viewBox="0 0 305 76" fill="none" xmlns="http://www.w3.org/2000/svg">
<path fill-rule="evenodd" clip-rule="evenodd" d="M40.7346 34.2975L46.4269 24.3325L63 17L50.6253 65.7629L22 67L28.1902 56.2103C30.3347 58.8427 33.3053 60.577 36.6889 61.0685C44.1183 62.1418 50.9648 57.1141 52.1191 49.7025C53.1942 42.2853 48.1583 35.4499 40.7346 34.2975ZM31.5738 50.1149L28.8522 54.8093L37.5243 39.7357C37.933 39.6528 38.2594 39.6528 38.6693 39.6528C42.4604 39.6528 46.093 42.6977 46.093 47.5615C46.093 52.4254 42.7942 55.4702 38.6693 55.4702C35.3705 55.4702 32.4792 53.3292 31.5738 50.1149ZM37.5243 39.7357L40.6497 34.3031L37.515 39.7375C37.5181 39.7369 37.5212 39.7363 37.5243 39.7357Z" fill="#B7AFA9"/>
<path d="M63.2865 17L58.2079 37.3314C60.6629 35.4171 63.6124 34.3314 66.7247 34.4171C71.4775 34.4171 75.3258 36.4171 77.2079 39.4171L73.2753 43C71.7191 41.0857 69.427 40 67.0506 40C62.382 40 59.1854 43.08 59.1854 48C59.0225 52.2514 62.1348 55.7486 66.3146 56C66.5618 56 66.7247 56 66.9719 56C69.7584 56 72.3764 54.7486 74.1011 52.5029L77.5393 56.2514C75.2472 59.7486 71.0674 61.6686 66.4831 61.6686C60.3371 61.6686 55.8371 58.5029 54.1124 53.3371L57.7191 39.4229L51 66.3371L80 76V20.8457L63.2865 17Z" fill="#E0D5CD"/>
<path fill-rule="evenodd" clip-rule="evenodd" d="M17.6143 34.526L38.739 18L46 24.2794L21.2048 67L13.8578 60.5562V52.4576H18.9486C27.2976 52.4576 30.1379 47.8273 30.1379 43.5315C30.1379 39.2356 27.9676 34.526 18.9486 34.526H17.6143ZM24.131 43.5315C24.131 41.4629 22.8769 39.978 19.1204 39.978H13.8578V47.0849H18.8684C22.5448 47.0849 24.131 45.7644 24.131 43.5315ZM8.01693 42.126L0 48.4054L8.01693 55.4272V42.126Z" fill="#E0D5CD"/>
<path fill-rule="evenodd" clip-rule="evenodd" d="M114 12.7839L134.014 67L151 59.0279V52.3882H146.461L139.649 61.1063H132.67L140.491 51.3063C136.627 50.1447 134.522 47.5708 134.522 43.6702C134.522 38.6876 138.219 34.7869 145.705 34.7869H146.547L129.809 0L114 12.7839ZM145.451 40.2649H149.235L151 44.0858V46.99H145.198C142.504 46.99 140.739 45.498 140.739 43.6702C140.739 41.4266 142.089 40.2649 145.451 40.2649Z" fill="#B7AFA9"/>
<path fill-rule="evenodd" clip-rule="evenodd" d="M96 12L114.21 13.2368L123.144 37.5079L112.3 51.1139V35.0583H106.477V61.1606H111.216L124.02 45.2688V61.1606H129.928V55.9375L134 67L105.479 64.5321L96 12ZM129.928 55.9375V55.7278L123.193 37.4472L123.144 37.5079L129.928 55.9375Z" fill="#E0D5CD"/>
<path d="M95.6983 12L80.0733 21.3446V38.7068C82.623 36.1439 86.1597 34.7377 89.7811 34.8227C94.5532 34.8227 98.4172 36.8073 100.307 39.7842L96.3583 43.3394C94.7958 41.4399 92.4944 40.3625 90.1083 40.3625C85.4208 40.3625 82.2112 43.4188 82.2112 48.3009C82.0476 52.5195 85.1726 55.9897 89.3694 56.2392C89.6176 56.2392 89.7811 56.2392 90.0293 56.2392C92.8272 56.2392 95.4558 54.9974 97.1875 52.769L100.64 56.4887C98.2536 59.9589 94.1415 61.8641 89.5386 61.8641C86.0018 61.9491 82.6286 60.7074 80 58.3088V76L105 64.7559L95.6983 12Z" fill="#B7AFA9"/>
<path fill-rule="evenodd" clip-rule="evenodd" d="M165 40.2689H167.894V34.9637H173.809V40.2689H176.703V27H173.809V32.1792H167.894V27H165V40.2689ZM184.24 34.1451C183.731 34.0405 183.288 33.9496 182.755 33.9496C180.488 33.9496 178.347 34.9637 178.359 37.221V37.5991C178.61 39.3695 180.117 40.6299 181.881 40.3778C182.886 40.3778 183.771 39.9997 184.525 39.3695V40.2518H187.293V34.3163V33.686C187.042 31.5433 185.278 30.025 183.263 30.2771C181.624 30.1511 180.112 30.661 178.981 31.7954L180.112 33.8178C180.865 33.1876 181.876 32.8095 182.88 32.8095C184.016 32.8095 184.519 33.1933 184.519 34.2017C184.423 34.1827 184.331 34.1637 184.24 34.1451ZM183.006 36.0981C181.876 36.0981 181.116 36.3501 181.116 37.1064C181.116 37.6106 181.619 37.9887 182.378 37.9887C183.257 37.9887 184.142 37.6106 184.519 36.8543V36.3501L184.502 36.3459C184 36.2213 183.503 36.0981 183.006 36.0981ZM199.499 37.7423V42.4174H196.981V40.2689H189.177V30.4146H191.946V37.7423H195.469V30.4146H198.237V37.7423H199.499ZM207.554 34.9637V40.2689H210.323V30.4146H208.057L203.649 35.7199V30.4146H200.881V40.2689H203.147L207.554 34.9637ZM211.71 35.5939C211.836 38.3726 214.228 40.521 216.997 40.395H217.248C220.017 40.395 222.283 38.1205 222.283 35.3418V34.9637C222.032 32.185 219.766 30.1625 216.997 30.2886H216.495C213.726 30.4146 211.585 32.6891 211.71 35.3418V35.5939ZM219.515 35.3418C219.515 33.9496 218.384 32.8152 216.997 32.8152C215.61 32.8152 214.479 33.9496 214.479 35.3418C214.479 36.734 215.61 37.8684 216.997 37.8684C218.259 37.9944 219.389 36.9861 219.515 35.5939V35.3418ZM230.344 36.6022H226.565V40.2689H223.796V30.4146H226.565V34.0814H230.344V30.4146H233.113V40.2689H230.344V36.6022ZM240.666 39.3809C239.913 40.0111 239.028 40.3893 238.023 40.3893C236.259 40.6413 234.752 39.3809 234.5 37.6106V37.2324C234.5 34.9579 236.641 33.9496 238.908 33.9496C239.441 33.9496 239.884 34.0405 240.393 34.1451C240.484 34.1637 240.576 34.1827 240.672 34.2017C240.672 33.1933 240.169 32.8095 239.033 32.8095C238.029 32.8095 237.018 33.1876 236.265 33.8178L235.003 31.7954C236.133 30.661 237.646 30.1511 239.285 30.2771C241.3 30.025 243.064 31.5433 243.315 33.686V34.3163V40.2518H240.672L240.666 39.3809ZM240.666 36.3501V36.8543C240.289 37.6163 239.404 37.9944 238.651 37.9887C237.766 37.9887 237.264 37.6106 237.264 37.1064C237.264 36.3501 238.023 36.0981 239.153 36.0981C239.661 36.0981 240.164 36.2241 240.666 36.3501ZM249.098 33.1933V32.9412H251.741V40.2689H254.51V30.4146H246.581V32.5631C246.581 37.3642 245.827 37.9944 244.44 37.8684V40.2689C247.717 40.8992 249.098 38.4986 249.098 33.1933ZM259.3 30.4146H256.531L256.657 40.2689H260.813C264.09 40.2689 265.22 38.4929 265.22 36.6022C265.22 34.7116 264.21 33.0673 260.938 33.0673H259.3V30.4146ZM259.3 37.7423H260.687C261.949 37.7423 262.326 37.3642 262.326 36.734C262.326 36.1038 261.823 35.7257 260.687 35.7257L259.3 35.5996V37.7423ZM272.899 36.6022H269.119V40.2689H266.351V30.4146H269.119V34.0814H272.899V30.4146H275.668V40.2689H272.899V36.6022ZM282.336 40.395C279.567 40.521 277.175 38.3726 277.049 35.5939V35.3418C276.924 32.6891 279.064 30.4146 281.833 30.2886H282.336C285.104 30.1625 287.371 32.185 287.622 34.9637V35.3418C287.622 38.1205 285.356 40.395 282.587 40.395H282.336ZM282.336 32.8152C283.723 32.8152 284.853 33.9496 284.853 35.3418V35.5939C284.728 36.9861 283.597 37.9944 282.336 37.8684C280.948 37.8684 279.818 36.734 279.818 35.3418C279.818 33.9496 280.948 32.8152 282.336 32.8152ZM298.201 38.4986C297.196 39.7648 295.557 40.521 293.919 40.521C291.276 40.7731 288.884 38.7507 288.633 35.972V35.4678C288.381 32.8152 290.397 30.6667 292.914 30.4146H293.668C296.06 30.2886 298.201 32.0589 298.326 34.5855V34.9637C298.326 35.4678 298.326 36.0981 298.201 36.608H291.401C291.653 37.7423 292.663 38.1262 293.919 38.1262C294.924 38.1262 295.809 37.7481 296.437 36.9918L298.201 38.4986ZM295.557 33.9496H291.527C291.904 33.0673 292.789 32.5631 293.668 32.6834C294.553 32.5574 295.306 33.1933 295.557 33.9496ZM174.819 48.479H171.297L167.775 52.0139V48.479H165.006V58.3333H167.775V55.1765L168.403 54.5462L171.423 58.339H174.945L170.412 52.9077L174.819 48.479ZM179.609 58.2072C182.504 58.4593 185.021 56.1848 185.272 53.2801C185.272 50.3753 182.88 47.9748 179.986 47.9748C177.092 47.9748 174.699 50.3753 174.699 53.2801C174.825 55.9327 176.966 58.0812 179.609 58.2072ZM182.498 53.4061C182.498 52.0139 181.367 50.8795 179.98 50.8795C178.593 50.8795 177.463 52.0139 177.463 53.4061C177.463 54.7983 178.467 55.9327 179.855 55.9327H179.98C181.242 56.0588 182.372 55.0504 182.498 53.6582V53.4061ZM189.423 51.8936H193.202V48.3587H195.971V58.213H193.202V54.5462H189.423V58.213H186.654V48.3587H189.423V51.8936ZM197.986 58.3333H200.755V51.0056H205.665V48.479H197.986V58.3333ZM212.087 58.3333C214.605 58.0812 216.62 55.8067 216.369 53.154V52.5238C216.243 49.9972 214.102 48.1008 211.585 48.2269C210.831 48.2269 210.072 48.479 209.444 48.9831V48.479H206.675V62H209.318V57.8291C209.946 58.2072 210.706 58.4593 211.459 58.3333H212.087ZM213.469 53.4061C213.469 51.6358 212.59 50.7535 211.202 50.7535C210.449 50.7535 209.689 51.1316 209.313 51.8879V55.0447C209.689 55.6749 210.317 55.927 211.077 55.927C212.338 56.053 213.469 55.0447 213.469 53.7785V53.4061ZM226.942 54.5462C227.067 54.0363 227.067 53.4061 227.067 52.9019V52.5353C226.942 50.0087 224.801 48.2383 222.409 48.3644H221.655C219.012 48.4904 217.122 50.7649 217.248 53.4176V53.9218C217.499 56.7004 219.891 58.7229 222.535 58.4708C224.173 58.4708 225.811 57.7145 226.816 56.4484L225.178 54.9301C224.55 55.6864 223.665 56.0645 222.66 56.0645C221.404 56.0645 220.394 55.6806 220.143 54.5462H226.942ZM224.299 52.0196C223.796 50.8853 222.409 50.3753 221.279 51.0113C220.776 51.2634 220.525 51.6415 220.274 52.0196H224.299ZM235.756 52.1457C235.254 51.3837 234.369 50.8795 233.49 50.8795C233.364 50.8795 233.239 50.8795 233.239 50.7592C231.852 50.8853 230.847 52.0196 230.972 53.2858V53.4118C231.098 54.8041 232.354 55.9385 233.741 55.8124C234.62 55.8124 235.505 55.3025 235.882 54.5462L237.772 55.6806C236.887 57.3249 235.254 58.3333 233.364 58.3333C230.596 58.4593 228.329 56.1848 228.329 53.4061C228.204 50.6274 230.47 48.3529 233.239 48.3529C235.128 48.2269 236.893 49.2352 237.772 50.8795L235.756 52.1457ZM243.812 50.8795C244.691 50.8795 245.576 51.3837 246.078 52.1457L248.093 50.8795C247.214 49.2352 245.45 48.2269 243.561 48.3529C240.792 48.3529 238.525 50.6274 238.651 53.4061C238.776 56.1848 240.917 58.4593 243.686 58.3333C245.576 58.3333 247.209 57.3249 248.093 55.6806L246.204 54.5462C245.827 55.3025 244.942 55.8124 244.063 55.8124C242.676 55.9385 241.42 54.8041 241.294 53.4118V53.2858C241.168 52.0196 242.173 50.8853 243.561 50.7592C243.561 50.8795 243.686 50.8795 243.812 50.8795ZM254.761 54.2942H248.973V51.7676H254.761V54.2942ZM266.727 53.5322C266.853 56.1848 264.838 58.4593 262.32 58.5854H261.692C258.546 58.5854 256.28 56.5629 256.28 52.6499C256.28 49.1149 257.285 46.9664 259.551 45.7003C260.583 45.1841 261.647 45.0312 262.66 44.8859C263.625 44.7473 264.543 44.6155 265.34 44.182L266.094 46.7086C265.229 47.1079 264.295 47.2261 263.384 47.3415C262.569 47.4446 261.773 47.5455 261.058 47.843C259.928 48.2211 259.043 49.2352 258.918 50.4957C259.797 49.4873 261.058 48.9774 262.314 49.1035C264.581 48.9774 266.596 50.6217 266.722 52.8962C266.727 53.028 266.727 53.2801 266.727 53.5322ZM262.194 51.6358C263.331 51.6358 264.084 52.5238 264.084 53.6582V54.0363C263.959 55.1765 263.074 56.0588 261.943 55.9327C260.556 55.9327 259.426 54.6723 259.426 53.2801V53.154C259.928 52.14 260.813 51.5097 261.943 51.6358H262.194ZM282.336 53.2801C282.461 56.0588 280.195 58.3333 277.551 58.3333H277.175C274.783 58.4593 272.642 56.689 272.265 54.2884H271.135V58.0812H268.366V48.479H271.135V52.0139H272.396C272.773 49.7394 274.914 48.0951 277.18 48.2211C279.949 48.0951 282.216 50.2436 282.341 52.8962C282.336 53.028 282.336 53.154 282.336 53.2801ZM277.175 50.8795C278.562 50.8795 279.441 51.7618 279.441 53.4061C279.441 55.0504 278.562 55.9327 277.175 55.9327H276.798C275.662 55.6806 274.783 54.5405 275.034 53.4061V53.2801C274.908 52.0139 275.913 51.0056 277.175 50.8795ZM293.417 53.154C293.668 55.8067 291.653 58.0812 289.135 58.3333H288.507C287.753 58.4593 286.994 58.2072 286.366 57.8291V62H283.597L283.723 48.479H286.492V48.9831C287.12 48.479 287.879 48.2269 288.633 48.2269C291.15 48.1008 293.291 49.9972 293.417 52.5238V53.154ZM288.381 50.7535C289.769 50.7535 290.648 51.6358 290.648 53.4061V53.7785C290.648 55.0447 289.517 56.053 288.256 55.927C287.496 55.927 286.868 55.6749 286.492 55.0447V51.8879C286.868 51.1316 287.628 50.7535 288.381 50.7535ZM305 53.2801C304.749 56.1848 302.231 58.4593 299.337 58.2072C296.694 58.0812 294.553 55.9327 294.427 53.2801C294.427 50.3753 296.819 47.9748 299.714 47.9748C302.608 47.9748 305 50.3753 305 53.2801ZM299.714 50.8795C301.101 50.8795 302.231 52.0139 302.231 53.4061V53.6582C302.106 55.0504 300.975 56.0588 299.714 55.9327H299.588C298.201 55.9327 297.196 54.7983 297.196 53.4061C297.196 52.0139 298.326 50.8795 299.714 50.8795Z" fill="#E0D5CD"/>
</svg>
