<svg width="234" height="66" viewBox="0 0 234 66" fill="none" xmlns="http://www.w3.org/2000/svg">
<ellipse cx="88" cy="7" rx="8" ry="7" fill="#E0D5CD"/>
<path d="M73 18V27.6908H84.5826V55.3044H73V65H107V55.3044H95.6408V18H73Z" fill="#E0D5CD"/>
<path d="M181.267 28.2717C181.097 28.5206 181.001 28.645 180.923 28.7838C179.239 31.6175 177.556 34.4511 175.872 37.2847C175.308 38.2324 174.702 38.2372 174.138 37.2943C172.478 34.5037 170.822 31.7132 169.161 28.9226C169.06 28.7551 168.95 28.5924 168.753 28.4392C168.753 28.6163 168.753 28.7934 168.753 28.9705C168.753 32.8572 168.753 36.7438 168.748 40.6305C168.748 40.8507 168.739 41.0756 168.689 41.291C168.592 41.7218 168.313 41.9851 167.891 41.9947C167.437 42.0042 167.166 41.717 167.042 41.2815C167.005 41.1522 167.001 41.0134 167.001 40.8746C167.001 35.6334 167.001 30.3969 167.001 25.1556C167.001 25.0695 166.996 24.9833 167.01 24.8972C167.065 24.4951 167.253 24.1696 167.638 24.0595C168.042 23.9399 168.381 24.0978 168.611 24.476C169.097 25.2897 169.579 26.1034 170.065 26.9171C171.62 29.5353 173.175 32.1488 174.73 34.767C174.817 34.9106 174.909 35.0494 175.024 35.2313C175.845 33.848 176.647 32.503 177.446 31.1532C178.702 29.0279 179.959 26.9027 181.216 24.7775C181.294 24.6483 181.372 24.5143 181.459 24.3898C181.689 24.0643 182.046 23.892 182.363 24.0739C182.624 24.2223 182.794 24.5717 182.964 24.8589C183.033 24.9738 182.982 25.1604 182.982 25.3136C182.982 30.4352 182.982 35.552 182.982 40.6736C182.982 41.5399 182.702 41.9851 182.152 41.9994C181.588 42.0186 181.276 41.5447 181.276 40.664C181.276 36.7582 181.276 32.8572 181.276 28.9514C181.267 28.7743 181.267 28.5924 181.267 28.2717Z" fill="#E0D5CD"/>
<path fill-rule="evenodd" clip-rule="evenodd" d="M123.971 55.8768C124.933 56.6663 125.565 57.627 125.856 58.7875C126.532 61.5174 124.763 64.2854 121.93 64.8989C121.55 64.9798 121.148 64.9941 120.757 64.9941C119.626 65.0012 118.494 65.0003 117.364 64.9994H117.364H117.363C116.987 64.9991 116.611 64.9988 116.236 64.9988C115.338 64.9988 115.008 64.7182 115.008 63.8859C114.997 58.6115 114.997 53.3371 115.008 48.0627C115.008 47.2875 115.343 47.0021 116.171 47.0021C116.708 47.0021 117.247 47.0016 117.785 47.0011C118.863 47 119.942 46.9989 121.018 47.0021C123.399 47.0069 125.555 48.7999 125.916 51.04C126.217 52.9899 125.53 54.5737 123.971 55.8768ZM118.246 63.0197L118.246 63.0197C119.189 63.0297 120.11 63.0394 121.028 62.9965C122.617 62.9252 123.866 61.7457 123.976 60.3142C124.101 58.6496 123.154 57.1324 121.615 56.9612C120.563 56.8423 119.492 56.8702 118.412 56.8983H118.412C117.937 56.9107 117.46 56.9231 116.983 56.9231V63.0108C117.409 63.0108 117.83 63.0153 118.246 63.0197ZM116.978 54.9209V48.9426C117.413 48.9426 117.843 48.9386 118.269 48.9348C119.251 48.9258 120.212 48.917 121.174 48.9568C122.828 49.0234 124.036 50.3979 123.991 52.0482C123.946 53.6177 122.657 54.8543 121.018 54.8828C120.1 54.9018 119.181 54.9087 118.263 54.9155C118.033 54.9172 117.804 54.9189 117.574 54.9209H116.978Z" fill="#E0D5CD"/>
<path d="M127.994 36.5744C127.994 36.3922 127.994 36.21 127.994 36.0278C127.994 32.4795 127.994 28.9264 127.999 25.3781C127.999 25.1383 128.004 24.8938 128.076 24.6684C128.204 24.2513 128.51 24.0259 128.949 24.0019C129.393 23.9779 129.722 24.1793 129.885 24.5773C129.971 24.7883 129.994 25.0424 129.994 25.2774C129.999 30.4224 129.999 35.5675 129.999 40.7125C129.999 40.8324 130.004 40.9522 129.99 41.0721C129.918 41.566 129.632 41.8921 129.145 41.9832C128.691 42.0647 128.343 41.8441 128.128 41.4509C127.923 41.0769 127.741 40.6885 127.55 40.3049C125.813 36.819 124.071 33.333 122.333 29.847C122.252 29.684 122.166 29.5162 121.961 29.3579C121.961 29.5306 121.961 29.7032 121.961 29.871C121.961 33.4529 121.961 37.0395 121.961 40.6214C121.961 41.5181 121.641 41.9784 121.011 41.9928C120.366 42.0071 120.008 41.5229 120.008 40.6118C120.008 35.5339 120.008 30.4608 120.008 25.3829C120.008 25.1623 119.965 24.889 120.075 24.7308C120.257 24.4526 120.514 24.1074 120.796 24.0451C121.078 23.9875 121.445 24.2081 121.736 24.3711C121.875 24.4479 121.932 24.6828 122.013 24.8506C123.889 28.6099 125.765 32.374 127.646 36.1333C127.722 36.2819 127.799 36.4354 127.88 36.584C127.913 36.584 127.956 36.5792 127.994 36.5744Z" fill="#E0D5CD"/>
<path d="M232.042 36.6612C232.042 36.4792 232.042 36.3019 232.042 36.1199C232.042 32.4891 232.037 28.8583 232.047 25.2227C232.047 24.9592 232.09 24.6622 232.219 24.4419C232.45 24.0443 232.863 23.9198 233.295 24.0491C233.746 24.1832 234 24.5042 234 25.0023C233.995 26.5112 234 28.0152 234 29.5241C234 33.2938 234 37.0635 234 40.8333C234 41.4703 233.76 41.8296 233.256 41.9685C232.8 42.093 232.339 41.844 232.066 41.2979C230.137 37.4659 228.217 33.6291 226.292 29.7923C226.216 29.639 226.139 29.4905 225.956 29.3421C225.956 29.5145 225.956 29.6869 225.956 29.8594C225.956 33.5237 225.952 37.1929 225.961 40.8572C225.961 41.3075 225.851 41.7242 225.414 41.8631C225.126 41.9589 224.675 41.9685 224.469 41.8008C224.219 41.6045 224.027 41.1782 224.022 40.8524C223.989 37.5473 224.003 34.2374 224.003 30.9323C224.003 29.0499 224.003 27.1626 224.003 25.2801C224.003 24.5425 224.233 24.1545 224.742 24.0347C225.265 23.9102 225.64 24.1401 225.971 24.7963C227.89 28.614 229.81 32.4316 231.725 36.2492C231.797 36.3929 231.884 36.5318 231.96 36.6755C231.989 36.6755 232.018 36.666 232.042 36.6612Z" fill="#E0D5CD"/>
<path fill-rule="evenodd" clip-rule="evenodd" d="M142.089 58.6695V58.1024C142.311 58.0913 142.527 58.0839 142.739 58.0767C143.158 58.0624 143.56 58.0487 143.953 58.0078C144.323 57.97 144.529 58.074 144.734 58.3717C146.112 60.3471 147.504 62.3131 148.897 64.2791C148.919 64.3091 148.941 64.3396 148.962 64.3701C149.04 64.4792 149.119 64.5895 149.213 64.6855C149.583 65.0541 150.149 65.1014 150.58 64.8131C151.016 64.5201 151.126 64.0333 150.846 63.556C150.754 63.3968 150.647 63.2486 150.539 63.0988C150.506 63.053 150.473 63.007 150.44 62.9606C149.502 61.6233 148.562 60.2861 147.627 58.9566C147.303 58.4959 146.98 58.0362 146.658 57.5778C146.851 57.4809 147.044 57.3891 147.236 57.298C147.662 57.0958 148.079 56.8974 148.466 56.6562C150.51 55.385 151.352 53.2867 150.771 50.9994C150.19 48.7168 148.652 47.3841 146.127 47.1572C144.911 47.0458 143.685 47.0307 142.46 47.0156C142.126 47.0115 141.792 47.0073 141.458 47.0013C140.301 46.9776 140 47.2801 140 48.3812V63.6458C140 63.8301 140 64.0192 140.035 64.1987C140.145 64.7422 140.576 65.0399 141.157 64.9927C141.733 64.9502 142.089 64.5485 142.089 63.8916C142.092 62.732 142.091 61.5703 142.09 60.4093C142.09 59.8291 142.089 59.249 142.089 58.6695ZM142.134 56.1506V48.9058C143.637 48.8774 145.08 48.9105 146.487 49.3028C147.71 49.6478 148.561 50.3708 148.772 51.6043C148.997 52.9181 148.617 54.0475 147.474 54.8888C146.267 55.7772 144.844 56.0702 143.356 56.1458C143.089 56.162 142.818 56.1582 142.534 56.1543C142.404 56.1524 142.271 56.1506 142.134 56.1506Z" fill="#E0D5CD"/>
<path fill-rule="evenodd" clip-rule="evenodd" d="M162.639 37.0557C162.105 36.2218 161.567 35.3827 161.024 34.5335C161.202 34.4532 161.32 34.4012 161.439 34.3492C163.514 33.4656 165.215 31.6368 164.905 28.6504C164.672 26.3964 163.313 24.596 161.152 24.2747C159.763 24.0685 158.35 24.0443 156.939 24.0202C156.604 24.0145 156.269 24.0088 155.935 24.0006C155.301 23.9817 155 24.4211 155 25.1583V40.823C155 41.5744 155.328 41.9855 155.926 41.9902C156.528 41.9949 156.87 41.5933 156.87 40.8466C156.873 39.6872 156.872 38.5256 156.871 37.3647C156.87 36.7845 156.87 36.2045 156.87 35.6251V35.0958C157.059 35.086 157.241 35.0783 157.417 35.0708C157.836 35.053 158.224 35.0365 158.612 34.9966C158.926 34.9635 159.113 35.058 159.291 35.3368C160.354 37.0218 161.431 38.6963 162.507 40.3693C162.686 40.6482 162.865 40.927 163.044 41.2058C163.05 41.2147 163.055 41.2237 163.061 41.2327C163.16 41.3942 163.261 41.5582 163.391 41.6925C163.715 42.0185 164.102 42.0942 164.513 41.8768C164.932 41.65 165.069 41.2625 164.969 40.8088C164.929 40.6298 164.822 40.4648 164.721 40.3077C164.704 40.2824 164.688 40.2573 164.672 40.2323C163.997 39.1753 163.321 38.1197 162.639 37.0557ZM156.897 33.1773V25.8907C158.384 25.8766 159.838 25.8671 161.211 26.4247C163.295 27.2706 163.696 30.1294 161.973 31.7219C161.079 32.5488 159.984 32.9221 158.817 33.0639C158.395 33.1118 157.969 33.1295 157.532 33.1476C157.323 33.1563 157.112 33.1651 156.897 33.1773Z" fill="#E0D5CD"/>
<path fill-rule="evenodd" clip-rule="evenodd" d="M198.89 17.6197V12.0192C199.066 12.0192 199.237 12.0175 199.404 12.0159C199.861 12.0113 200.292 12.007 200.72 12.0381C200.903 12.0476 201.155 12.1656 201.255 12.3167C201.748 13.0486 202.226 13.7923 202.703 14.5361C202.903 14.848 203.103 15.16 203.305 15.4711C203.632 15.9764 203.958 16.4817 204.284 16.987C204.61 17.4923 204.936 17.9975 205.263 18.5027C205.501 18.8711 205.835 19.0458 206.269 18.9655C206.663 18.8899 206.965 18.6444 206.997 18.2477C207.02 17.9597 206.923 17.6102 206.768 17.3647C205.974 16.1006 205.166 14.8458 204.36 13.5922C204.018 13.0616 203.677 12.5312 203.337 12.0003C203.276 11.9031 203.219 11.7996 203.16 11.6912C203.13 11.6365 203.099 11.5805 203.067 11.5234C203.175 11.4742 203.276 11.4304 203.373 11.3885C203.519 11.3257 203.653 11.2674 203.785 11.2023C205.505 10.3665 207.111 8.79874 206.965 5.94185C206.837 3.45328 205.304 1.53609 202.911 1.21971C201.749 1.06425 200.57 1.04442 199.391 1.02459C199.03 1.01852 198.669 1.01245 198.309 1.00249C197.261 0.969437 197.001 1.25749 197.001 2.33413V17.6339C197.001 17.6641 197.001 17.6943 197 17.7245C197 17.8454 196.999 17.9663 197.01 18.0872C197.056 18.6066 197.412 18.9702 197.897 18.9986C198.373 19.0269 198.817 18.635 198.881 18.125C198.898 18.0049 198.895 17.8823 198.892 17.759C198.891 17.7126 198.89 17.6662 198.89 17.6197ZM198.918 10.1162V2.79218C199.31 2.83722 199.698 2.87511 200.082 2.91258C200.945 2.9969 201.787 3.07914 202.614 3.23606C203.817 3.46745 204.718 4.17577 204.97 5.49797C205.235 6.891 204.856 8.06681 203.735 8.9404C202.765 9.69595 201.64 10.0123 200.45 10.1115C200.112 10.1371 199.769 10.1301 199.419 10.123C199.254 10.1196 199.087 10.1162 198.918 10.1162Z" fill="#E0D5CD"/>
<path fill-rule="evenodd" clip-rule="evenodd" d="M188.003 34.9064H194C194 35.0956 194 35.2422 193.991 35.3842C193.991 37.2148 193.991 39.0408 193.995 40.8667C194 41.5526 194.428 42.0115 195.021 41.9973C195.591 41.9878 195.986 41.5384 195.986 40.862C195.988 39.8689 195.99 38.8755 195.993 37.882C196.001 34.9002 196.009 31.917 195.977 28.9366C195.939 25.6915 192.922 23.3878 189.783 24.1447C187.589 24.6745 186.017 26.6944 186.007 29.0596C185.996 32.3157 186 35.5718 186.005 38.8279C186.006 39.4791 186.007 40.1303 186.007 40.7816C186.007 40.9802 186.026 41.1931 186.097 41.3776C186.266 41.8223 186.619 42.0446 187.09 41.9926C187.533 41.9452 187.834 41.6898 187.923 41.2357C187.961 41.037 187.97 40.8336 187.97 40.6302C187.975 38.9036 187.975 37.1817 187.975 35.4551C187.975 35.3379 187.983 35.2208 187.991 35.101C187.996 35.037 188 34.9723 188.003 34.9064ZM193.976 32.8294C193.971 32.8528 193.964 32.8792 193.958 32.9101H187.98V32.2857C187.981 31.9353 187.979 31.5846 187.977 31.2337C187.973 30.4004 187.968 29.5668 188.008 28.7379C188.088 27.1154 189.462 25.9233 191.138 25.9611C192.668 25.9943 193.972 27.3093 193.995 28.8704C194.005 29.7252 194.002 30.5821 193.998 31.4383C193.997 31.8661 193.995 32.2938 193.995 32.7209C193.995 32.7519 193.987 32.785 193.976 32.8294Z" fill="#E0D5CD"/>
<path fill-rule="evenodd" clip-rule="evenodd" d="M167.319 57.8829H173C173 58.1524 173 58.3558 172.995 58.5638C172.995 59.007 172.995 59.4505 172.995 59.8941C172.994 61.2256 172.993 62.5585 173 63.8886C173.005 64.5554 173.415 64.9952 173.994 64.9999C174.559 65.0047 174.983 64.5743 174.983 63.9454C174.985 62.8919 174.988 61.8387 174.991 60.7857C175.001 57.7786 175.011 54.7735 174.969 51.7684C174.927 48.7513 171.935 46.4625 169.01 47.1104C166.612 47.6447 165.015 49.6072 165.005 52.0899C164.996 55.9771 165.001 59.869 165.005 63.7562C165.005 63.9406 165.02 64.1298 165.071 64.3048C165.199 64.7398 165.51 64.9763 165.962 64.9905C166.414 65.0047 166.739 64.7777 166.885 64.3521C166.951 64.1487 166.965 63.9217 166.965 63.7042C166.972 62.3989 166.971 61.0909 166.971 59.7842C166.97 59.3488 166.97 58.9136 166.97 58.4787V57.9065C166.983 57.9054 166.995 57.9042 167.007 57.9031C167.141 57.8908 167.228 57.8829 167.319 57.8829ZM172.974 55.8118C172.969 55.8385 172.963 55.868 172.958 55.9015C170.951 55.9015 168.991 55.9015 167.008 55.8967C167.008 55.4323 166.997 54.9697 166.987 54.5089C166.964 53.4728 166.941 52.4458 167.036 51.4279C167.173 49.9004 168.704 48.8364 170.282 48.9546C171.733 49.0634 172.939 50.3118 172.981 51.8109C173.005 52.7509 173.002 53.6934 172.998 54.6347C172.997 54.9768 172.995 55.3187 172.995 55.6603C172.995 55.7061 172.986 55.7519 172.974 55.8118Z" fill="#E0D5CD"/>
<path fill-rule="evenodd" clip-rule="evenodd" d="M173.005 8.62952C173.007 9.06353 173.009 9.49771 173.009 9.93237C173.007 9.93237 173.006 9.93237 173.005 9.93177C173.005 9.93117 173.005 9.92997 173.005 9.92758C173.005 10.3512 173.004 10.7744 173.004 11.1973C173.002 12.0427 173.001 12.8874 173.005 13.7342C173.005 13.7764 173.004 13.8188 173.004 13.8612C173.003 14.1802 173.002 14.504 173.057 14.8129C173.556 17.5408 175.885 19.1517 178.248 18.9887C181.046 18.7969 182.992 16.6635 182.997 13.8972C183.002 11.3083 183.002 8.71943 182.992 6.13053C182.992 5.77576 182.954 5.41619 182.896 5.06141C182.551 2.94236 180.476 0.741799 177.404 1.02466C175.084 1.2404 173.062 3.36425 173.014 5.76617C172.994 6.72185 173 7.67526 173.005 8.62952ZM174.955 10.9633C174.955 10.6373 174.955 10.3112 174.955 9.98511C174.955 9.72433 174.955 9.46356 174.955 9.20275C174.954 8.15934 174.953 7.11531 174.965 6.06821C174.969 4.31351 176.225 2.9903 177.912 2.96153C179.647 2.92798 180.989 4.17927 181.018 5.96753C181.056 8.66189 181.056 11.3563 181.013 14.0458C180.984 15.6951 179.819 16.8744 178.19 17.0422C176.771 17.1861 175.382 16.1457 175.027 14.6547C174.965 14.4102 174.96 14.1465 174.96 13.8924C174.953 12.9181 174.954 11.941 174.955 10.9633Z" fill="#E0D5CD"/>
<path fill-rule="evenodd" clip-rule="evenodd" d="M222.975 34.3732C222.975 33.9223 222.974 33.4717 222.974 33.0216C222.969 33.0216 222.96 33.0216 222.95 33.0168C222.95 32.5337 222.963 32.0493 222.975 31.5647C223.003 30.4876 223.03 29.4101 222.922 28.3462C222.649 25.654 220.237 23.8097 217.486 24.0157C215.003 24.2025 213.008 26.43 213.003 29.036C212.998 31.6755 212.998 34.3102 213.008 36.9497C213.008 37.285 213.041 37.6299 213.104 37.9652C213.568 40.4227 215.883 42.1856 218.362 41.9844C220.941 41.7736 222.965 39.6275 222.974 37.079C222.977 36.1783 222.976 35.2754 222.975 34.3732ZM214.949 34.291C214.95 33.8519 214.95 33.4128 214.95 32.9737C214.95 32.6444 214.95 32.3151 214.95 31.9858C214.949 30.9975 214.948 30.0085 214.955 29.0168C214.965 27.3498 216.257 25.9893 217.85 25.951C219.582 25.9127 220.979 27.1582 221.008 28.8971C221.051 31.618 221.051 34.3389 221.008 37.0599C220.979 38.7652 219.548 40.097 217.912 40.0443C216.252 39.9964 214.96 38.6359 214.95 36.9257C214.947 36.0475 214.948 35.1693 214.949 34.291Z" fill="#E0D5CD"/>
<path fill-rule="evenodd" clip-rule="evenodd" d="M152.993 34.3402C152.992 33.9006 152.992 33.4611 152.992 33.0222C152.992 32.6094 152.994 32.1966 152.996 31.7838C153.001 30.7931 153.006 29.8024 152.982 28.8117C152.925 25.8132 150.023 23.4996 147.087 24.0935C144.631 24.5869 143.022 26.5269 143.008 29.0369C142.996 31.2357 143 33.4312 143.005 35.6289C143.006 36.0692 143.007 36.5095 143.008 36.9501C143.008 36.9748 143.008 36.9997 143.008 37.0245C143.007 37.2735 143.007 37.5253 143.046 37.7692C143.462 40.3318 145.809 42.1904 148.361 41.9844C150.976 41.7737 152.973 39.6181 152.992 36.9788C152.995 36.1004 152.994 35.22 152.993 34.3402ZM151.024 33.0222H150.966C150.966 33.4635 150.974 33.9051 150.982 34.3467C151 35.3768 151.018 36.4065 150.937 37.4291C150.818 38.9858 149.357 40.1355 147.844 40.0444C146.249 39.9486 144.976 38.6553 144.961 37.065C144.942 34.4113 144.947 31.7624 144.957 29.1087C144.961 27.3172 146.23 25.976 147.911 25.9569C149.683 25.9377 150.981 27.2214 151.019 29.0704C151.035 29.9824 151.031 30.8943 151.027 31.8063C151.025 32.2116 151.024 32.6169 151.024 33.0222Z" fill="#E0D5CD"/>
<path d="M217.984 1.00003C220.68 0.990435 222.983 3.20703 222.993 5.82664C222.998 6.47914 222.624 6.93493 222.064 6.96852C221.509 7.0021 221.092 6.58469 221.03 5.93219C220.886 4.40648 219.995 3.31258 218.65 3.00552C217.381 2.71765 216.025 3.32218 215.36 4.47845C214.253 6.39278 215.503 8.82527 217.716 8.96441C219.325 9.06996 220.733 9.52096 221.81 10.7828C223.161 12.3709 223.386 14.6258 222.361 16.4442C221.317 18.3058 219.258 19.2797 217.093 18.9295C215.163 18.6176 213.516 17.0104 213.118 15.0337C213.056 14.7362 213.027 14.4243 213.023 14.1173C213.008 13.4648 213.363 13.0665 213.933 13.0474C214.526 13.0234 214.919 13.4216 214.962 14.0837C215.053 15.4894 215.862 16.5594 217.16 16.924C218.338 17.255 219.377 16.9672 220.201 16.07C221.039 15.1584 221.26 14.0741 220.809 12.9178C220.374 11.7951 219.531 11.0898 218.305 10.9987C217.141 10.9123 216.035 10.7204 215.068 10.0103C213.31 8.72452 212.577 6.49833 213.243 4.44007C213.904 2.3962 215.815 1.00963 217.984 1.00003Z" fill="#E0D5CD"/>
<path d="M177 54.1998C177 52.2254 177 50.2511 177 48.2814C177 47.4156 177.303 47.0064 177.953 47.0064C178.603 47.0017 178.935 47.4251 178.935 48.2672C178.935 52.1826 178.925 56.0933 178.939 60.0088C178.949 62.2733 181.305 63.7482 183.297 62.7443C184.312 62.2305 184.881 61.3932 184.971 60.2466C184.99 59.9945 184.994 59.7376 184.994 59.4807C184.994 55.7698 184.994 52.0637 184.999 48.3528C184.999 48.1339 185.004 47.9056 185.061 47.6963C185.17 47.2966 185.454 47.0683 185.862 47.0112C186.289 46.9541 186.635 47.1158 186.844 47.4964C186.929 47.6534 186.981 47.8485 186.981 48.0293C186.986 52.1112 187.029 56.198 186.967 60.2799C186.929 62.8395 184.781 64.871 182.187 64.9947C179.655 65.1136 177.379 63.2344 177.033 60.7319C177.009 60.5464 177.014 60.3561 177.014 60.1705C177 58.1771 177 56.1885 177 54.1998Z" fill="#E0D5CD"/>
<path d="M128.003 54.2413C128.003 52.2705 128.003 50.2998 128.003 48.3338C128.003 47.422 128.297 47.0136 128.957 47.0088C129.621 47.0041 129.944 47.4315 129.944 48.3195C129.944 52.1898 129.939 56.0648 129.948 59.9351C129.953 61.7301 131.305 63.0503 133.089 63.0218C134.622 62.9981 135.96 61.7064 135.978 60.1678C136.002 57.8741 135.988 55.5804 135.988 53.2915C135.988 51.5914 135.983 49.8961 135.988 48.196C135.988 47.555 136.273 47.1371 136.761 47.0278C137.402 46.8806 137.966 47.3318 137.99 48.0393C138.009 48.6329 137.995 49.2265 137.995 49.8201C137.995 53.1823 138.004 56.5444 137.99 59.9066C137.981 62.395 136.363 64.3657 133.943 64.8928C130.992 65.5387 128.027 63.1785 128.008 60.1535C127.994 58.1828 128.003 56.212 128.003 54.2413Z" fill="#E0D5CD"/>
<path d="M186 8.21537C186 6.19267 186 4.16996 186 2.14726C186 1.40911 186.34 1.01128 186.949 1.00169C187.577 0.996901 187.946 1.4187 187.946 2.16643C187.951 6.12556 187.941 10.0895 187.955 14.0486C187.96 15.4962 189.043 16.752 190.433 16.9772C192.408 17.2984 194.014 15.894 194.023 13.8138C194.033 10.0224 194.028 6.23581 194.028 2.44443C194.028 2.2575 194.023 2.06577 194.038 1.87884C194.081 1.38515 194.45 1.03045 194.948 1.00169C195.461 0.972935 195.907 1.31325 195.983 1.80215C196.007 1.95074 195.998 2.10891 195.998 2.26229C195.998 6.12077 196.003 9.97925 195.998 13.8377C195.998 16.6657 193.999 18.7986 191.191 18.9904C188.545 19.1677 186.048 16.8718 186.01 14.2308C186.01 14.1972 186.01 14.1637 186.01 14.1301C186 12.1553 186 10.1854 186 8.21537Z" fill="#E0D5CD"/>
<path d="M115.016 9.98119C115.016 8.53721 114.974 7.09322 115.026 5.64924C115.111 3.17926 117.261 1.10353 119.776 1.00378C122.3 0.904033 124.592 2.78976 124.915 5.22649C124.943 5.44499 124.986 5.66349 124.991 5.88198C125 6.48523 124.568 6.96972 124.023 6.97922C123.496 6.98872 123.059 6.56123 122.998 5.97698C122.974 5.74424 122.969 5.50199 122.912 5.27399C122.537 3.79675 121.152 2.78976 119.747 2.96551C118.091 3.16976 116.967 4.381 116.962 5.99598C116.952 8.64646 116.952 11.2969 116.962 13.9474C116.967 15.6764 118.257 17.0064 119.947 17.0444C121.584 17.0776 122.884 15.8331 122.998 14.1279C123.04 13.4487 123.501 12.9832 124.079 13.0307C124.663 13.0782 125.047 13.6007 124.995 14.2752C124.796 16.8686 122.86 18.8399 120.241 18.9919C117.735 19.1344 115.548 17.3911 115.111 14.9639C114.983 14.2372 115.026 13.4772 115.012 12.7314C114.997 11.8147 115.007 10.8979 115.007 9.98119C115.007 9.98119 115.012 9.98119 115.016 9.98119Z" fill="#E0D5CD"/>
<path d="M154.959 48.9749C154.959 53.6696 154.959 58.3075 154.959 63.0069C155.149 63.0163 155.343 63.0352 155.537 63.04C157.553 63.04 159.569 63.04 161.585 63.0447C161.788 63.0447 161.992 63.0447 162.191 63.0777C162.645 63.1486 162.915 63.4272 162.981 63.8759C163.047 64.3482 162.853 64.7072 162.413 64.8914C162.219 64.9717 161.987 64.9953 161.769 64.9953C159.261 65 156.758 65 154.249 65C153.336 65 153 64.6599 153 63.7484C153 58.5815 153 53.4145 153 48.2523C153 47.3644 153.331 47.0102 154.212 47.0055C156.734 46.996 159.256 47.0007 161.784 47.0055C161.883 47.0055 161.987 47.0055 162.087 47.0196C162.65 47.1046 163.005 47.4825 163 47.9926C163 48.5168 162.612 48.9277 162.03 48.9702C161.628 48.9986 161.216 48.9797 160.809 48.9797C159.048 48.9797 157.288 48.9797 155.522 48.9797C155.347 48.9749 155.168 48.9749 154.959 48.9749Z" fill="#E0D5CD"/>
<path d="M133.966 33.4317C135.744 33.4317 137.48 33.4317 139.221 33.4317C139.764 33.4317 140.301 33.427 140.844 33.4317C141.509 33.4365 141.981 33.8328 141.995 34.3897C142.014 34.9748 141.552 35.3759 140.839 35.3759C138.764 35.3806 136.683 35.3759 134.608 35.3759C134.409 35.3759 134.211 35.3759 133.961 35.3759C133.952 35.6024 133.938 35.7817 133.938 35.9563C133.933 37.6456 133.942 39.3303 133.928 41.0196C133.924 41.5623 133.589 41.9209 133.084 41.9917C132.659 42.053 132.202 41.7699 132.06 41.3357C132.013 41.1942 132.004 41.0385 132.004 40.8875C131.999 35.6213 131.999 30.3551 132.004 25.0889C132.004 24.3763 132.381 24.0035 133.103 24.0035C135.688 23.9988 138.273 23.9988 140.853 24.0035C141.519 24.0035 141.986 24.4046 142 24.9615C142.014 25.5277 141.561 25.9383 140.886 25.9383C138.773 25.943 136.664 25.943 134.551 25.943C134.367 25.943 134.188 25.943 133.971 25.943C133.966 28.4534 133.966 30.9072 133.966 33.4317Z" fill="#E0D5CD"/>
<path d="M147.997 7.806C148.129 7.55238 148.233 7.36451 148.332 7.17195C149.244 5.35904 150.15 3.54613 151.062 1.73322C151.397 1.06629 151.945 0.836156 152.488 1.11796C153.017 1.39036 153.149 1.94926 152.823 2.5974C151.628 4.97861 150.419 7.35982 149.239 9.75042C149.083 10.0651 148.988 10.4455 148.984 10.7978C148.96 13.1649 148.979 15.532 148.97 17.8991C148.965 18.7304 148.28 19.2236 147.595 18.8995C147.17 18.6976 147.014 18.3359 147.014 17.8709C147.024 15.5226 147.029 13.1696 147.005 10.8213C147 10.4549 146.911 10.0557 146.75 9.72694C145.593 7.3786 144.403 5.04906 143.236 2.71012C143.113 2.4612 142.995 2.1747 143 1.90699C143.01 1.44203 143.312 1.12735 143.775 1.03342C144.271 0.934786 144.629 1.16962 144.851 1.60171C145.607 3.08116 146.353 4.5653 147.104 6.04475C147.387 6.60835 147.676 7.17195 147.997 7.806Z" fill="#E0D5CD"/>
<path d="M137.977 2.96345C137.977 3.25451 137.977 3.45167 137.977 3.65353C137.977 8.2494 137.977 12.85 137.977 17.4458C137.977 17.596 137.981 17.7463 137.977 17.9012C137.958 18.5725 137.563 19.0138 136.99 18.9997C136.426 18.9856 136.031 18.5302 136.031 17.8683C136.031 13.1175 136.031 8.37145 136.031 3.62067C136.031 3.42351 136.031 3.22634 136.031 2.96345C135.383 2.96345 134.786 2.96345 134.185 2.96345C133.767 2.96345 133.344 2.98223 132.926 2.94937C132.385 2.90712 132.005 2.48931 132 1.9964C131.995 1.4847 132.399 1.0622 132.949 1.00587C133.034 0.996479 133.118 1.00117 133.203 1.00117C135.74 1.00117 138.282 1.00117 140.819 1.00117C141.453 1.00117 141.876 1.28284 141.975 1.76167C142.111 2.40951 141.679 2.93528 140.965 2.95876C140.175 2.98223 139.386 2.96345 138.592 2.96345C138.409 2.96345 138.226 2.96345 137.977 2.96345Z" fill="#E0D5CD"/>
<path d="M201.024 25.9511C199.998 25.9511 199.024 25.9606 198.051 25.9463C197.394 25.9415 196.986 25.5435 197 24.9441C197.01 24.4214 197.37 24.0139 197.897 24.0091C200.626 23.9995 203.355 23.9947 206.083 24.0091C206.611 24.0139 207.019 24.4838 206.999 24.9921C206.98 25.5099 206.553 25.9271 205.973 25.9415C205.182 25.9559 204.395 25.9463 203.604 25.9463C203.417 25.9463 203.23 25.9463 202.976 25.9463C202.976 26.1812 202.976 26.3778 202.976 26.5744C202.976 31.2543 202.976 35.9343 202.976 40.6142C202.976 40.7676 202.985 40.9259 202.971 41.0745C202.913 41.6164 202.487 42.0048 201.978 42C201.436 41.9952 201.034 41.5828 201.029 40.9978C201.019 39.6264 201.024 38.2551 201.024 36.8837C201.024 33.4409 201.024 29.9933 201.024 26.5504C201.024 26.373 201.024 26.186 201.024 25.9511Z" fill="#E0D5CD"/>
<path d="M167.025 2.95378C166.071 2.95378 165.18 2.95858 164.293 2.95378C164.107 2.95378 163.915 2.94899 163.733 2.90586C163.23 2.78603 162.961 2.3978 163.005 1.88017C163.043 1.40088 163.364 1.06058 163.867 1.02223C164.293 0.988684 164.725 1.00306 165.151 1.00306C167.418 1.00306 169.679 0.99827 171.946 1.01265C172.574 1.01744 173 1.43443 173 1.97603C173 2.50804 172.559 2.92503 171.946 2.95378C171.706 2.96816 171.467 2.95858 171.227 2.95858C170.508 2.95858 169.79 2.95858 168.98 2.95858C168.98 3.17905 168.98 3.37556 168.98 3.57207C168.98 8.26914 168.98 12.9662 168.975 17.6585C168.975 17.8933 168.961 18.1426 168.889 18.363C168.75 18.7896 168.299 19.0532 167.882 18.9909C167.403 18.9238 167.073 18.5787 167.039 18.0994C167.025 17.9269 167.034 17.7591 167.034 17.5866C167.034 12.9422 167.034 8.2979 167.034 3.65355C167.025 3.45225 167.025 3.25095 167.025 2.95378Z" fill="#E0D5CD"/>
<path d="M227.023 2.95135C225.979 2.95135 225.022 2.97052 224.064 2.94656C223.254 2.92739 222.737 2.17024 223.139 1.54727C223.307 1.2885 223.7 1.03452 223.997 1.02973C226.669 0.991394 229.346 0.996186 232.018 1.01056C232.622 1.01535 233 1.42268 233 1.97377C233 2.52006 232.617 2.92739 232.018 2.94656C231.214 2.97531 230.409 2.95614 229.6 2.95614C229.413 2.95614 229.231 2.95614 228.982 2.95614C228.982 3.21012 228.982 3.40659 228.982 3.60786C228.982 8.28491 228.982 12.962 228.982 17.639C228.982 18.5399 228.661 18.9952 228.024 19C227.382 19.0048 227.028 18.5064 227.028 17.6055C227.028 12.9428 227.028 8.28491 227.028 3.62224C227.023 3.42097 227.023 3.21491 227.023 2.95135Z" fill="#E0D5CD"/>
<path d="M129.999 10.062C129.999 12.664 130.004 15.2707 129.994 17.8728C129.994 18.7135 129.385 19.1879 128.664 18.9295C128.272 18.7886 128.054 18.5068 128.006 18.1029C127.996 18.0184 128.001 17.9338 128.001 17.8493C128.001 12.6077 128.001 7.37075 128.001 2.12913C128.001 1.50916 128.296 1.11933 128.828 1.016C129.259 0.931454 129.776 1.18978 129.917 1.60779C129.989 1.82384 129.989 2.06808 129.989 2.30292C129.999 4.89085 129.999 7.47408 129.999 10.062Z" fill="#E0D5CD"/>
<path d="M117.999 32.9943C117.999 35.5954 117.999 38.1965 117.999 40.8024C117.999 41.5545 117.636 41.9952 117.012 42C116.393 42.0048 116.005 41.5497 116.005 40.812C116.005 35.5906 116.005 30.3693 116 25.148C116 24.6306 116.177 24.2282 116.693 24.0606C117.105 23.9265 117.523 24.0079 117.768 24.3767C117.911 24.5875 117.989 24.8797 117.989 25.1384C118.004 27.7586 117.999 30.3741 117.999 32.9943Z" fill="#E0D5CD"/>
<path d="M210.991 10.0246C210.991 12.5617 210.991 15.1036 210.991 17.6408C210.991 17.8134 210.996 17.9861 210.971 18.1539C210.908 18.624 210.533 18.9645 210.061 18.9981C209.632 19.0268 209.194 18.7343 209.072 18.3074C209.018 18.1108 209.004 17.8997 209.004 17.6983C208.999 12.5521 208.999 7.40589 209.004 2.25969C209.004 1.47792 209.291 1.07026 209.875 1.00791C210.504 0.940762 210.957 1.30527 210.986 1.94794C211.01 2.52827 210.996 3.11339 210.996 3.69852C210.991 5.804 210.991 7.91428 210.991 10.0246Z" fill="#E0D5CD"/>
<path d="M208.002 33.0019C208.002 30.3941 207.997 27.7912 208.002 25.1834C208.002 24.4595 208.325 24.0521 208.893 24.0041C209.432 23.961 209.853 24.2582 209.961 24.7807C210 24.9629 210 25.1546 210 25.3416C210 30.4325 210 35.5282 210 40.6191C210 40.7054 210 40.7917 210 40.8779C209.976 41.5682 209.564 42.014 208.967 41.9997C208.389 41.9853 208.002 41.5538 208.002 40.8779C208.002 38.2462 208.002 35.624 208.002 33.0019Z" fill="#E0D5CD"/>
<path d="M157.88 53C158.225 53.2139 158.509 53.3047 158.695 53.5186C160.041 55.0263 161.368 56.5553 162.691 58.0897C163.101 58.5602 163.096 59.2552 162.719 59.6829C162.337 60.116 161.755 60.1106 161.336 59.6348C159.999 58.1165 158.672 56.5874 157.335 55.0637C157 54.6841 156.893 54.2083 157.121 53.7645C157.279 53.4544 157.605 53.2673 157.88 53Z" fill="#E0D5CD"/>
<path d="M23.667 18.3359C23.6624 18.6566 23.8483 18.6706 24.0853 18.6659C25.0335 18.6613 25.9817 18.6659 26.9299 18.6659C27.1715 18.6659 27.4179 18.6659 27.6828 18.6659C27.6828 17.6713 27.7572 16.7371 27.6642 15.8261C27.5527 14.7199 26.6324 13.9762 25.6284 14.0366C24.5501 14.1017 23.7553 14.8733 23.6856 15.998C23.6392 16.7742 23.681 17.5551 23.667 18.3359Z" fill="#E0D5CD"/>
<path d="M36.3093 44.4386C36.1513 43.6764 35.6586 43.1884 34.9289 43.035C34.0458 42.8491 33.1394 42.77 32.1866 42.6353C32.1866 44.3596 32.1866 45.926 32.1866 47.4923C33.4508 47.5806 34.6175 47.4365 35.6028 46.6278C36.2907 46.0607 36.4906 45.3031 36.3093 44.4386Z" fill="#E0D5CD"/>
<path d="M18.3963 42.8535C17.5504 42.807 16.7045 42.8442 15.7749 42.8442C15.7749 44.1177 15.7703 45.3261 15.7889 46.5346C15.7889 46.6229 15.9934 46.7809 16.1049 46.7809C16.8858 46.7902 17.6713 46.7995 18.4475 46.7437C19.47 46.6647 20.1858 45.8142 20.1718 44.7823C20.1579 43.7644 19.4003 42.9092 18.3963 42.8535Z" fill="#E0D5CD"/>
<path d="M17.1553 33.1346C18.0989 33.0184 18.9727 32.721 19.6001 31.9541C20.3763 31.0012 20.1532 29.4767 19.126 28.919C18.1128 28.3659 16.9973 28.4217 15.8725 28.4077C15.8725 30.0159 15.8725 31.5543 15.8725 33.1439C16.3327 33.1439 16.7463 33.1857 17.1553 33.1346Z" fill="#E0D5CD"/>
<path d="M18.6706 48.138C17.7456 48.0218 16.7928 48.1148 15.8075 48.1148C15.8075 49.4301 15.8075 50.7455 15.8075 52.1027C16.6534 52.1027 17.4621 52.112 18.2755 52.098C19.2655 52.0794 20.0556 51.3311 20.1579 50.3318C20.2648 49.2489 19.6745 48.2635 18.6706 48.138Z" fill="#E0D5CD"/>
<path d="M50.0763 28.8401C49.0863 28.3428 48.0127 28.3568 46.9251 28.3847C46.9251 29.9975 46.9251 31.5452 46.9251 33.1301C48.2637 33.2231 49.3327 32.9861 50.1228 32.433C51.4568 31.5034 51.4428 29.5234 50.0763 28.8401Z" fill="#E0D5CD"/>
<path fill-rule="evenodd" clip-rule="evenodd" d="M0.148727 32.9534C0.148727 14.8684 14.8128 0.208984 32.8977 0.208984C50.9827 0.208984 65.6421 14.8684 65.6421 32.9534C65.6421 51.0383 50.9827 65.6977 32.8977 65.6977C14.8082 65.6977 0.148727 51.0383 0.148727 32.9534ZM42.2632 12.7908C42.0773 12.7955 41.8217 12.9674 41.7241 13.1348C41.4731 13.5484 41.7659 14.0039 42.2818 14.0272C42.7367 14.0432 43.1915 14.0393 43.657 14.0354C43.867 14.0336 44.0791 14.0318 44.2944 14.0318V14.65V23.625L44.2941 23.6811L44.2938 23.7263C44.2929 23.8271 44.292 23.9272 44.299 24.0248C44.3362 24.4152 44.5686 24.6522 44.9404 24.6615C45.2983 24.6708 45.5168 24.4291 45.5911 24.0852C45.612 23.9771 45.6094 23.8637 45.6068 23.751V23.751V23.7507V23.7505V23.7503V23.7501V23.7499V23.7497V23.7494V23.7492V23.749L45.6056 23.6944C45.6053 23.6759 45.6051 23.6574 45.6051 23.639V16.458V14.0318C45.8122 14.0318 46.0138 14.0326 46.2115 14.0334C46.6925 14.0352 47.1504 14.037 47.6083 14.0272C48.0034 14.0179 48.2311 13.7948 48.2311 13.3997C48.2311 13 47.9987 12.7769 47.6037 12.7769C45.8235 12.7676 44.0434 12.7629 42.2632 12.7908ZM33.5624 13.725C33.5624 13.4973 33.581 13.2463 33.6832 13.0511C33.911 12.6235 34.557 12.6886 34.8127 13.1719C35.0337 13.5852 35.2405 14.0073 35.4473 14.4296L35.4473 14.4296L35.4474 14.4297L35.4474 14.4298L35.4475 14.4299L35.4475 14.43L35.4476 14.4301L35.4476 14.4302L35.4477 14.4303L35.4477 14.4304L35.4478 14.4305L35.4478 14.4306L35.4479 14.4307L35.4479 14.4308L35.4479 14.4309L35.448 14.431L35.448 14.4311L35.4481 14.4312L35.4481 14.4313L35.4482 14.4314C35.576 14.6924 35.7039 14.9534 35.8352 15.2124L35.8886 15.319C36.8469 17.2311 37.8073 19.1474 38.8842 21.0548V20.5621V13.8319L38.884 13.7482C38.8833 13.6089 38.8827 13.4702 38.8982 13.3346C38.94 12.9907 39.1492 12.8048 39.4931 12.7862C39.837 12.7676 40.0741 12.9256 40.1484 13.2649C40.1856 13.4415 40.1903 13.6274 40.1903 13.8087C40.1903 14.8967 40.1908 15.9851 40.1913 17.0738V17.0743V17.0748V17.0753V17.0758V17.0764V17.0769V17.0774V17.0779V17.0784V17.0789V17.0794V17.08V17.0805V17.081V17.0815C40.1923 19.2645 40.1934 21.4481 40.1903 23.6297C40.1903 23.6655 40.1914 23.7026 40.1925 23.7401C40.1969 23.8925 40.2016 24.0523 40.1345 24.1642C40.0183 24.3594 39.8231 24.6011 39.6325 24.6336C39.4373 24.6662 39.1863 24.4988 38.9958 24.3687C38.9182 24.3147 38.8748 24.2068 38.832 24.1001L38.832 24.1001C38.8159 24.0599 38.7998 24.0198 38.782 23.9829L38.7747 23.9684C37.5873 21.6028 36.3998 19.2372 35.2124 16.867C35.147 16.7363 35.0791 16.6082 35.0106 16.4788L35.0099 16.4774L35.0098 16.4772L34.9382 16.3418L34.9195 16.3444L34.887 16.3488L34.8605 16.3523L34.8359 16.3557V21.1245C34.8359 21.4299 34.8364 21.7347 34.8369 22.0394V22.0399V22.0405V22.041V22.0415V22.042V22.0425V22.043V22.0435V22.0441V22.0446V22.0451V22.0456V22.0461V22.0466V22.0471C34.838 22.6534 34.839 23.2591 34.8359 23.8667C34.8359 24.378 34.6128 24.6569 34.2224 24.6662C33.8413 24.6755 33.567 24.378 33.5624 23.89C33.5524 22.9176 33.5543 21.9452 33.5562 20.9728V20.9718C33.557 20.5827 33.5577 20.1936 33.5577 19.8045C33.5577 19.2978 33.5575 18.791 33.5572 18.2843C33.5563 16.7646 33.5554 15.2448 33.5624 13.725ZM31.4476 12.7769C31.02 12.7862 30.8201 13.0464 30.8201 13.6088C30.8155 15.3007 30.8155 16.9972 30.8201 18.689V23.7691C30.8201 24.3455 31.0432 24.6615 31.4522 24.6662C31.8473 24.6708 32.1215 24.3269 32.1215 23.7877C32.1262 20.3994 32.1262 17.0111 32.1215 13.6228C32.1215 13.0418 31.8938 12.7676 31.4476 12.7769ZM24.3503 37.6942C24.6598 37.6942 24.9694 37.6932 25.2789 37.6921C26.2845 37.6888 27.2894 37.6855 28.2917 37.7174C28.5334 37.7267 28.8308 37.9452 28.9796 38.1543C29.0632 38.2705 28.9517 38.6052 28.8308 38.7679C28.7332 38.8934 28.4822 38.9584 28.301 38.9584C26.5859 38.9724 24.8755 38.9724 23.1604 38.9631C22.6399 38.9631 22.4307 38.7539 22.4261 38.2426C22.4214 34.7707 22.4214 31.2987 22.4261 27.8267C22.4261 27.3062 22.6584 27.0738 23.193 27.0738C24.8708 27.0645 26.5534 27.0691 28.2313 27.0738C28.71 27.0738 29.0214 27.3341 29.0307 27.7152C29.04 28.1195 28.7286 28.3752 28.2127 28.3798C27.3486 28.3829 26.4845 28.3819 25.6203 28.3809H25.6191C25.1869 28.3803 24.7546 28.3798 24.3224 28.3798H23.76V37.7035C23.9644 37.6942 24.1549 37.6942 24.35 37.6942H24.3503ZM25.5959 12.7583C23.8855 12.8373 22.4725 14.1062 22.4353 15.7422C22.3913 17.5873 22.392 19.4324 22.3927 21.2761C22.393 22.154 22.3934 23.0315 22.3889 23.9086C22.3889 24.3408 22.5887 24.615 23.0256 24.6476C23.4161 24.6801 23.6624 24.378 23.667 23.8714C23.674 23.0388 23.6731 22.2036 23.6723 21.3698V21.3696V21.3694V21.3693V21.3691V21.3689V21.3687V21.3686V21.3684V21.3682V21.368V21.3679V21.3677V21.3673C23.672 21.0894 23.6717 20.8116 23.6717 20.5342V19.9857H27.7153V20.5574C27.7153 20.9332 27.7164 21.309 27.7174 21.6848L27.7174 21.6869C27.7195 22.4398 27.7215 23.1928 27.7153 23.9457C27.7153 24.3734 27.9384 24.6197 28.3335 24.6429C28.7425 24.6662 28.9656 24.3966 29.0214 24.0015C29.0354 23.8934 29.0336 23.78 29.0319 23.6673C29.0313 23.6298 29.0307 23.5924 29.0307 23.5553C29.0307 22.9649 29.031 22.3748 29.0313 21.7848V21.7843V21.7839V21.7835V21.783V21.7826V21.7822V21.7817V21.7813V21.7809V21.7804V21.78V21.7795C29.0322 20.0119 29.033 18.2456 29.0261 16.4766C29.0261 16.128 28.9982 15.7794 28.9424 15.4355C28.6961 13.8784 27.1994 12.6839 25.5959 12.7583ZM14.7524 15.1752C15.1242 13.7715 16.4442 12.7769 17.9315 12.7722C19.6094 12.7676 21.0131 13.9807 21.2362 15.6353C21.2455 15.7128 21.2465 15.7902 21.2476 15.8677V15.8677C21.2481 15.9064 21.2486 15.9452 21.2501 15.9839C21.2548 16.3976 21.0596 16.6486 20.6506 16.6997C20.2787 16.7415 20.037 16.4441 19.9255 16.0304C19.8 15.5656 19.6606 15.059 19.3724 14.6964C18.8472 14.0272 17.9269 13.8831 17.1507 14.2177C16.3745 14.5524 15.9051 15.3146 15.9562 16.1698C15.9934 16.8205 16.4117 17.2342 16.9044 17.5503C17.2762 17.7873 17.7038 17.95 18.1221 18.0848C19.0145 18.3776 19.8837 18.7169 20.5204 19.4373C22.0635 21.1942 21.0038 24.1177 18.6659 24.5779C16.7417 24.959 15.0127 23.7784 14.6687 21.8449C14.6501 21.7334 14.6455 21.6125 14.6455 21.4963C14.6408 21.0269 14.9011 20.6829 15.2822 20.7062C15.7145 20.7294 15.933 21.0083 15.9515 21.4266C15.9841 22.1284 16.2955 22.6629 16.8811 23.0394C17.8153 23.6436 19.0331 23.3648 19.6327 22.4259C20.2322 21.4824 19.9999 20.4087 19.0099 19.7998C18.7405 19.6369 18.4379 19.5287 18.1361 19.4207L18.136 19.4207L18.136 19.4207L18.1359 19.4207L18.1359 19.4207L18.1359 19.4207L18.1358 19.4207L18.1358 19.4206L18.1358 19.4206L18.1358 19.4206L18.1357 19.4206L18.1357 19.4206C18.0157 19.3777 17.8958 19.3348 17.7782 19.2886C17.6244 19.2267 17.4676 19.1698 17.3108 19.1129L17.3108 19.1128L17.3107 19.1128C16.9842 18.9942 16.6573 18.8755 16.3559 18.7122C14.9244 17.95 14.3573 16.6486 14.7524 15.1752ZM14.5386 28.0731V38.1357C14.5386 38.1508 14.5391 38.1662 14.5396 38.1822C14.5406 38.2157 14.5417 38.2514 14.5386 38.2891C14.5246 38.7214 14.7338 38.991 15.1614 39.0421C15.5425 39.0886 15.84 38.7586 15.8446 38.2938C15.8516 37.4849 15.8507 36.6734 15.8499 35.8632C15.8496 35.5933 15.8493 35.3236 15.8493 35.0542V34.4593C15.9654 34.4593 16.0731 34.4607 16.175 34.462H16.1751H16.1751C16.3954 34.4648 16.5882 34.4673 16.7789 34.4546C17.9362 34.3803 19.0424 34.1246 19.9952 33.4135C21.1339 32.5629 21.5337 31.3963 21.3059 30.0345C21.0689 28.6215 20.2927 27.585 18.8146 27.3573C17.9522 27.2268 17.07 27.2066 16.1901 27.1864L16.1896 27.1863C15.941 27.1806 15.6926 27.1749 15.4449 27.1667C14.7245 27.1435 14.5386 27.348 14.5386 28.0731ZM21.3989 49.7136C21.608 51.6146 20.1811 53.4226 18.2522 53.4133C17.6095 53.4103 16.9687 53.4113 16.3273 53.4123H16.3268H16.3263H16.3258H16.3253H16.3247H16.3242H16.3237H16.3232H16.3227C16.0009 53.4128 15.679 53.4133 15.3566 53.4133C14.757 53.4133 14.5432 53.2135 14.5432 52.6046C14.5386 49.1791 14.5386 45.7536 14.5432 42.3328C14.5432 41.8912 14.7338 41.5659 15.2032 41.5566C15.3509 41.5547 15.4987 41.5526 15.6465 41.5504L15.6473 41.5504L15.6481 41.5504L15.6489 41.5504H15.649C16.6167 41.5361 17.5861 41.5219 18.5451 41.5984C19.9022 41.7053 20.8132 42.4908 21.2408 43.7736C21.6824 45.0936 21.3338 46.251 20.3577 47.2317C20.3338 47.2556 20.3086 47.2783 20.2777 47.3062L20.2776 47.3063C20.2486 47.3324 20.2146 47.3631 20.1718 47.4036C20.8783 48.0497 21.3013 48.8026 21.3989 49.7136ZM26.1769 53.3157C27.6875 53.1624 28.9656 51.8098 29.0028 50.1412C29.0451 48.2937 29.0396 46.4461 29.034 44.5954V44.5952V44.5951V44.595V44.5949V44.5948V44.5947V44.5946V44.5945V44.5944C29.0317 43.8009 29.0293 43.0069 29.0307 42.2119C29.0261 41.7425 28.7239 41.4357 28.3475 41.4497C27.9524 41.4636 27.7246 41.7472 27.7246 42.2491V46.0883C27.7246 46.4801 27.7264 46.8723 27.7282 47.2646V47.2651V47.2657V47.2662V47.2667V47.2672V47.2677V47.2682V47.2687C27.7321 48.1551 27.7361 49.0424 27.72 49.9274C27.6921 51.3869 26.5394 52.3257 25.2055 52.0004C24.2713 51.7726 23.6856 50.9686 23.681 49.8717C23.674 48.0394 23.6749 46.2097 23.6758 44.3787V44.3783V44.3779V44.3774V44.377V44.3765V44.3761V44.3757V44.3752C23.676 43.7643 23.6763 43.1533 23.6763 42.5419C23.6763 42.49 23.6798 42.435 23.6833 42.3795C23.6932 42.2213 23.7033 42.0595 23.6345 41.9563C23.4951 41.7472 23.2441 41.4869 23.0396 41.4869C22.8351 41.4822 22.598 41.7472 22.44 41.947C22.3729 42.0283 22.3809 42.1712 22.3887 42.3086C22.3911 42.352 22.3935 42.3949 22.3935 42.435C22.3935 43.0603 22.3932 43.6859 22.3929 44.3116V44.3123V44.313V44.3136V44.3143V44.315V44.3157V44.3165V44.3172V44.3179V44.3186V44.3193V44.3201C22.3921 46.1987 22.3912 48.0793 22.3982 49.96C22.3982 50.2714 22.4261 50.5967 22.5051 50.8942C22.9559 52.5581 24.3968 53.497 26.1769 53.3157ZM28.8494 32.0749C28.5769 32.3712 28.292 32.6526 28.0055 32.9354L28.0052 32.9357L28.0049 32.936L28.0019 32.939C27.8987 33.0409 27.7952 33.1431 27.6921 33.2462C27.5711 33.3672 27.4507 33.4884 27.3305 33.6096C26.9703 33.9724 26.6113 34.3339 26.242 34.6824C26.1371 34.7811 26.0076 34.8552 25.8618 34.9388L25.8616 34.9389C25.7877 34.9812 25.7097 35.0259 25.6284 35.0774C25.5631 35.0266 25.4942 34.9817 25.428 34.9386C25.2822 34.8436 25.1497 34.7574 25.0986 34.6359C25.0242 34.4593 25.0289 34.1246 25.1497 33.9991C26.0793 33.0231 27.0321 32.0749 27.9989 31.1407C28.2638 30.8804 28.5892 30.9269 28.8448 31.1872C29.1237 31.466 29.1051 31.7914 28.8494 32.0749ZM30.7783 27.0691C30.267 27.0691 30.0068 27.2969 30.0021 27.7105C29.9975 28.1474 30.2624 28.3659 30.8015 28.3705C31.1834 28.3736 31.5653 28.3726 31.9696 28.3716C32.1804 28.3711 32.3973 28.3705 32.6235 28.3705V29.0212C32.6235 32.0005 32.6235 34.9752 32.6282 37.9498C32.6328 38.1497 32.6421 38.3542 32.6932 38.5401C32.7908 38.8887 33.079 39.0514 33.3858 38.9352C33.5953 38.8594 33.7621 38.6168 33.9025 38.4125L33.9203 38.3867C33.9654 38.3255 33.9547 38.2263 33.9438 38.1263C33.939 38.082 33.9342 38.0376 33.9342 37.9963V28.919V28.3752C34.1656 28.3752 34.3879 28.3757 34.6041 28.3763H34.6045H34.605H34.6054H34.6059H34.6063H34.6067C35.0234 28.3773 35.4177 28.3782 35.812 28.3752C36.2721 28.3705 36.6068 28.0917 36.6114 27.7291C36.6161 27.3712 36.2768 27.0691 35.8213 27.0691C34.1387 27.0645 32.4608 27.0645 30.7783 27.0691ZM37.5038 52.256C37.6386 52.4652 37.7176 52.8091 37.6432 53.0229C37.4527 53.5667 36.8159 53.5249 36.4348 52.9579C36.257 52.6946 36.0766 52.4331 35.8963 52.1716L35.896 52.1712C35.3505 51.3804 34.8055 50.5902 34.3339 49.7555C33.8924 48.9793 33.3672 48.6214 32.4934 48.8166C32.4337 48.8315 32.3702 48.8349 32.2918 48.8392C32.2481 48.8415 32.1997 48.8441 32.1448 48.8491V51.7912C32.1448 52.1259 32.1448 52.4559 32.1401 52.7905C32.1355 53.1763 31.8799 53.4226 31.5499 53.3855C31.3175 53.3576 31.0804 53.1019 30.9084 52.8974C30.8384 52.8164 30.8444 52.6622 30.8498 52.5207C30.8513 52.4838 30.8527 52.4477 30.8527 52.4141C30.848 49.1048 30.848 45.8001 30.8527 42.4908C30.8527 41.6495 31.0293 41.459 31.8845 41.4822C31.9974 41.4848 32.1104 41.4872 32.2234 41.4897C33.1244 41.5089 34.027 41.5282 34.9149 41.6356C36.393 41.8076 37.2482 42.7279 37.5921 44.1408C37.9453 45.6049 37.4294 46.9993 36.2349 47.8219C35.9871 47.9914 35.7222 48.1333 35.4448 48.2819L35.4444 48.2822C35.3109 48.3536 35.1746 48.4267 35.0358 48.5052C35.2391 48.8119 35.4427 49.1175 35.646 49.4226C36.2745 50.3658 36.8997 51.3043 37.5038 52.256ZM37.3076 35.8483C37.3065 36.6121 37.3055 37.3752 37.3086 38.1404C37.3086 38.7864 37.4852 38.9584 38.1499 38.9677C38.4682 38.9708 38.7885 38.9698 39.1096 38.9687H39.1101H39.1106H39.1111H39.1116C39.2727 38.9682 39.434 38.9677 39.5953 38.9677C40.2019 38.9654 40.8096 38.9654 41.4173 38.9654C42.025 38.9654 42.6327 38.9654 43.2393 38.9631C43.6576 38.9631 43.9132 38.7446 43.9132 38.331C43.9132 37.9452 43.6623 37.736 43.2765 37.7081C43.1231 37.6988 42.9744 37.6988 42.8256 37.6988C42.2098 37.6965 41.5939 37.6965 40.9781 37.6965C40.3623 37.6965 39.7464 37.6965 39.1306 37.6942C39.009 37.6909 38.8897 37.676 38.7695 37.661L38.7692 37.6609C38.7195 37.6547 38.6696 37.6485 38.6193 37.6431V28.3705H39.1538H42.9976C43.5972 28.3705 43.9272 28.1288 43.9179 27.7059C43.9086 27.3015 43.5879 27.0645 43.0208 27.0645C41.4034 27.0598 39.7906 27.0598 38.1777 27.0645C37.5177 27.0645 37.3086 27.269 37.3086 27.9197V34.701C37.3086 35.0812 37.3081 35.4609 37.3076 35.8404L37.3076 35.8483ZM44.0108 34.371C43.9556 34.4396 43.9071 34.5126 43.8609 34.5821C43.763 34.7293 43.6753 34.8613 43.5553 34.9055C43.3555 34.9752 43.0069 34.9659 42.8675 34.8357C41.9007 33.9248 40.9618 32.9812 40.0369 32.0238C39.7906 31.7681 39.8277 31.4195 40.0787 31.1686C40.3344 30.9129 40.6504 30.9083 40.9339 31.136C41.0949 31.2662 41.2408 31.4166 41.3864 31.5667C41.4383 31.6202 41.4902 31.6737 41.5428 31.7263C41.7479 31.9314 41.9534 32.1356 42.1588 32.3398L42.1591 32.3401L42.1593 32.3403L42.1596 32.3406C42.6383 32.8163 43.1165 33.2916 43.5879 33.776C43.6905 33.8818 43.7724 34.0084 43.864 34.1502L43.8641 34.1503L43.8641 34.1504L43.8642 34.1504C43.9094 34.2205 43.9571 34.2942 44.0108 34.371ZM42.3515 52.0794C41.3476 52.0329 40.4413 51.2242 40.4273 50.2714C40.3994 48.3611 40.3901 46.4508 40.418 44.5405C40.4413 43.4018 41.6776 42.528 42.7884 42.7929C43.7459 43.0207 44.3083 43.6807 44.3873 44.6939C44.4152 45.0564 44.5825 45.3307 44.9218 45.3679C45.131 45.3911 45.4424 45.2703 45.5539 45.1122C45.6887 44.9217 45.7166 44.6103 45.6841 44.3639C45.4703 42.6581 43.9039 41.3288 42.2725 41.445C40.4366 41.5752 39.1073 42.9603 39.098 44.7636C39.0934 46.5252 39.0934 48.2867 39.1027 50.0483C39.1073 50.3411 39.1399 50.6479 39.2142 50.9314C39.5814 52.3536 40.9293 53.3669 42.4259 53.3576C43.9551 53.3483 45.3262 52.3536 45.5539 50.8803C45.6898 49.9936 45.6882 49.0821 45.6865 48.1734V48.1734V48.1733V48.1732C45.686 47.9007 45.6855 47.6284 45.6887 47.3572C45.6934 46.976 45.4238 46.7436 45.038 46.739C44.1363 46.7204 43.2393 46.7157 42.3423 46.739C41.8868 46.7483 41.6311 47.0318 41.673 47.4315C41.7194 47.8498 41.9751 48.0311 42.3887 48.0265C42.816 48.0234 43.2412 48.0244 43.6934 48.0254C43.9299 48.0259 44.1738 48.0265 44.4291 48.0265C44.4291 48.1721 44.4303 48.3105 44.4313 48.4443V48.4445V48.4447V48.4449V48.445C44.4333 48.6995 44.4352 48.937 44.4291 49.1745C44.4271 49.2605 44.4262 49.347 44.4253 49.4337C44.422 49.7451 44.4186 50.059 44.3641 50.3643C44.1875 51.3962 43.3044 52.1259 42.3515 52.0794ZM52.1818 38.9073C51.8518 39.1397 51.5311 39.0607 51.2987 38.7725C51.1132 38.5458 50.9531 38.2961 50.7939 38.0481L50.7938 38.0479C50.7377 37.9605 50.6817 37.8732 50.6248 37.7872C50.4195 37.4779 50.2134 37.169 50.0073 36.8601L50.0052 36.857C49.5397 36.1595 49.0738 35.4615 48.6169 34.7567C48.4449 34.4918 48.2822 34.3617 47.9383 34.4267C47.721 34.4683 47.4926 34.4593 47.2472 34.4496C47.1358 34.4452 47.0208 34.4407 46.9018 34.4407V37.7825C46.9018 37.834 46.9026 37.8858 46.9033 37.9378L46.9033 37.9383C46.9052 38.0693 46.9072 38.2013 46.8972 38.331C46.8646 38.7632 46.5718 39.0746 46.2139 39.0374C45.7817 38.991 45.5911 38.726 45.5958 38.2891C45.6027 36.9435 45.6019 35.5953 45.601 34.2484C45.6007 33.7994 45.6004 33.3507 45.6004 32.9022C45.6004 32.4266 45.6012 31.9514 45.6019 31.4763C45.6038 30.2894 45.6057 29.1034 45.5958 27.915C45.5911 27.4595 45.7631 27.1203 46.2232 27.1342C46.4495 27.1393 46.6764 27.1428 46.9036 27.1464C47.9223 27.1623 48.9467 27.1782 49.9462 27.3341C51.2569 27.5386 52.0099 28.4728 52.3027 29.7417C52.6187 31.1081 52.3259 32.3259 51.2151 33.2462C50.917 33.4924 50.5761 33.6866 50.2269 33.8856C50.0751 33.9721 49.9217 34.0595 49.7696 34.1525C50.5411 35.3191 51.3266 36.5043 52.1168 37.6942C52.1401 37.7292 52.1641 37.7634 52.1881 37.7976L52.1881 37.7976C52.2501 37.8859 52.3115 37.9735 52.3584 38.0707C52.5118 38.3914 52.4839 38.6935 52.1818 38.9073ZM53.711 36.2905C54.041 38.2334 55.8072 39.4418 57.7407 39.0421C60.0507 38.5634 61.1011 35.6724 59.5906 33.9248C58.9492 33.1811 58.0661 32.8325 57.1504 32.5443C56.7414 32.4188 56.3277 32.2608 55.9745 32.0284C55.4679 31.6984 55.031 31.2801 55.0031 30.6062C54.9566 29.4953 55.7653 28.6029 56.8994 28.51C57.9313 28.4263 58.898 29.2862 58.9863 30.3645C59.0282 30.8943 59.2745 31.1825 59.6742 31.1686C60.1018 31.1546 60.3249 30.8339 60.3017 30.2715C60.232 28.6076 58.7493 27.2411 57.0063 27.1993C56.9016 27.2172 56.7954 27.2308 56.6892 27.2445C56.4654 27.2732 56.2414 27.3019 56.0303 27.3712C54.8544 27.757 54.0921 28.5518 53.79 29.7603C53.5065 30.8897 53.7482 31.9262 54.6638 32.6373C55.1276 32.9973 55.6842 33.2464 56.2376 33.4941C56.4274 33.579 56.6167 33.6638 56.8018 33.7528C56.9728 33.8343 57.1531 33.8979 57.3333 33.9616C57.5744 34.0467 57.8154 34.1317 58.0335 34.2594C58.7911 34.7056 59.1165 35.4307 58.9677 36.1883C58.8097 37.0017 58.1683 37.6384 57.3317 37.8104C56.6206 37.9591 55.7421 37.6105 55.3517 36.9412C55.1845 36.6585 55.1093 36.3213 55.0357 35.9908C55.0234 35.9355 55.0111 35.8804 54.9984 35.8257C54.9101 35.4353 54.7103 35.1564 54.3013 35.1843C53.9015 35.2076 53.6784 35.4725 53.6877 35.8908C53.6889 35.9244 53.6895 35.9581 53.6901 35.9916C53.6918 36.0926 53.6935 36.1929 53.711 36.2905Z" fill="#E0D5CD"/>
</svg>
