<svg width="62" height="62" viewBox="0 0 62 62" fill="none" xmlns="http://www.w3.org/2000/svg">
<mask id="mask0" mask-type="alpha" maskUnits="userSpaceOnUse" x="0" y="0" width="62" height="63">
<path fill-rule="evenodd" clip-rule="evenodd" d="M0 0.0322266H61.9688V62.0001H0V0.0322266Z" fill="white"/>
</mask>
<g mask="url(#mask0)">
<path fill-rule="evenodd" clip-rule="evenodd" d="M55.0161 10.3441C55.0132 8.45204 53.5191 6.98245 51.6237 6.95782C49.7627 6.93372 48.194 8.53029 48.2233 10.3677C48.2532 12.2579 49.7275 13.7501 51.6212 13.7505C53.524 13.7509 55.0189 12.2507 55.0161 10.3441ZM48.146 31.0153C48.1361 21.5709 40.586 14.0086 31.3197 13.8375C21.5271 13.6564 13.838 21.5282 13.8019 30.9155C13.7652 40.4434 21.4083 48.053 30.7298 48.1751C40.3865 48.3017 48.1369 40.5175 48.146 31.0153ZM15.8998 0.0322266H46.0476C46.0977 0.0426501 46.1474 0.0590301 46.198 0.0626851C46.9793 0.116698 47.7515 0.234471 48.5138 0.410724C52.4145 1.31243 55.6477 3.30483 58.1574 6.42202C60.6528 9.52161 61.956 13.075 61.9618 17.0658C61.9752 26.4005 61.9644 35.7353 61.9682 45.0699C61.9686 46.1409 61.8539 47.1988 61.6304 48.2416C60.7239 52.4739 58.5602 55.9271 55.107 58.5367C52.0916 60.8155 48.6776 61.9924 44.8862 61.9958C35.6032 62.0037 26.3199 61.9987 17.0367 61.9974C16.6244 61.9973 16.2133 61.9881 15.8005 61.9559C14.4915 61.8535 13.2124 61.604 11.9664 61.2009C9.03156 60.2509 6.51487 58.642 4.44058 56.3541C2.42247 54.1283 1.07823 51.5484 0.396231 48.6224C0.200891 47.7844 0.0942183 46.9332 0 46.0798V15.9321C0.0106943 15.8732 0.0268035 15.8146 0.0311354 15.7553C0.0924585 14.9147 0.227288 14.0848 0.425607 13.2668C1.33246 9.52703 3.26353 6.41674 6.21719 3.95474C8.39504 2.13928 10.8836 0.946659 13.6619 0.360908C14.4019 0.20496 15.1513 0.123873 15.8998 0.0322266Z" fill="#E7E1DB"/>
</g>
<path fill-rule="evenodd" clip-rule="evenodd" d="M40.9993 31.4982C41.0675 37.2644 36.2004 42.1348 30.2441 41.9972C24.68 41.8684 19.8569 37.188 20.0032 31.2096C20.1391 25.6635 24.8225 20.8246 30.8472 21.0049C36.4224 21.1718 41.0548 25.8212 40.9993 31.4982Z" fill="#E7E1DB"/>
</svg>
