<svg width="76" height="80" viewBox="0 0 76 80" fill="none" xmlns="http://www.w3.org/2000/svg">
<mask id="mask0" mask-type="alpha" maskUnits="userSpaceOnUse" x="0" y="0" width="76" height="80">
<path fill-rule="evenodd" clip-rule="evenodd" d="M0 0H76V80H0V0Z" fill="white"/>
</mask>
<g mask="url(#mask0)">
<path fill-rule="evenodd" clip-rule="evenodd" d="M17.4565 25.886C17.9485 25.8798 18.437 25.8558 18.9251 25.767C21.7361 25.2549 23.578 22.9401 23.8187 20.413C24.0707 17.7666 22.817 15.2818 20.5312 14.1661C19.1412 13.4876 17.6668 13.4085 16.1929 13.6641C13.8237 14.0751 12.0699 15.4232 11.4037 17.8971C10.7642 20.2723 11.1971 22.4886 12.9913 24.244C14.245 25.4704 15.7823 25.8987 17.4565 25.886ZM11.849 48.9135C11.849 54.6887 11.8487 60.464 11.8496 66.2392C11.8497 66.8924 11.8733 66.9166 12.4896 66.9168C15.0074 66.9178 17.5252 66.9172 20.043 66.9171C20.9011 66.917 21.7593 66.9075 22.617 66.9207C22.9631 66.9262 23.1117 66.7754 23.0913 66.4192C23.0855 66.3158 23.091 66.2118 23.091 66.1082C23.087 60.7925 23.0794 55.4767 23.0797 50.161C23.0801 43.9865 23.0877 37.812 23.0912 31.6376C23.0916 30.9957 23.0442 30.9438 22.4514 30.9435C19.1603 30.9422 15.8691 30.9421 12.5779 30.9429C11.8673 30.943 11.849 30.9648 11.849 31.721C11.8489 37.4518 11.8489 43.1826 11.849 48.9135ZM40.8714 36.0984C40.6949 34.5594 40.9507 33.0553 40.8112 31.5556C40.7607 31.013 40.7305 30.9465 40.2088 30.9446C39.1964 30.9411 38.1837 30.9494 37.1711 30.9492C34.7804 30.9486 32.3896 30.9486 29.9989 30.9406C29.6607 30.9395 29.5107 31.0737 29.5256 31.4409C29.5572 32.2245 29.5859 33.0089 29.5877 33.7931C29.5977 37.9535 29.6043 42.1141 29.6019 46.2747C29.599 51.4261 29.6171 56.578 29.5584 61.7288C29.5408 63.2666 29.648 64.8052 29.5315 66.3432C29.4904 66.8869 29.5495 66.916 30.079 66.9165C32.0762 66.9182 34.0734 66.9174 36.0705 66.9174C37.477 66.9174 38.8835 66.9131 40.2899 66.9195C40.6019 66.9209 40.7905 66.844 40.8075 66.4572C40.8936 64.505 40.8055 62.5521 40.8388 60.5993C40.8681 58.8845 40.8026 57.168 40.8189 55.4526C40.8251 54.7875 40.8507 54.1218 40.8459 53.4556C40.8337 51.74 40.8031 50.0242 40.8206 48.3089C40.8272 47.6435 40.8802 46.9757 40.8354 46.3125C40.796 45.7266 40.8378 45.1517 40.9778 44.5953C41.7297 41.6085 44.4489 38.8816 48.1279 39.4864C50.1555 39.8198 51.4963 40.9769 52.2283 42.9794C52.7839 44.4993 52.9464 46.0881 52.9516 47.688C52.9713 53.8618 52.9535 60.0358 52.95 66.2096C52.9495 66.9004 52.9664 66.9172 53.647 66.9173C56.8818 66.9174 60.1168 66.9174 63.3516 66.9174C64.1951 66.9173 64.1928 66.9169 64.1924 66.0054C64.1909 62.9404 64.2137 59.8753 64.1858 56.8106C64.1453 52.3702 64.3427 47.9263 64.0665 43.4902C63.9178 41.1056 63.3952 38.8018 62.2962 36.688C60.7855 33.7821 58.5439 31.7802 55.5229 30.7809C53.7998 30.211 52.0437 30.0291 50.2366 30.1376C47.3449 30.3113 44.8604 31.3997 42.7947 33.5447C42.0616 34.3059 41.4693 35.1828 40.8714 36.0984ZM63.7621 80H12.2786C12.0886 79.9473 11.9012 79.8796 11.7084 79.8445C8.78333 79.3118 6.30971 77.8765 4.22333 75.6799C1.44883 72.7589 -0.00487596 69.27 2.46367e-05 65.0953C0.0198805 48.3804 0.00796698 31.6654 0.00931887 14.9504C0.00940336 14.181 0.00813597 13.4122 0.123384 12.6471C0.646312 9.17552 2.19896 6.29453 4.64148 3.9314C7.27437 1.38406 10.3552 -0.000444642 13.9633 1.07117e-07C30.0518 0.00222385 46.1402 0.0012454 62.2286 0.00151225C64.9412 0.0016012 67.4198 0.834438 69.6384 2.44736C72.3763 4.4377 74.3784 7.04856 75.4216 10.4179C75.675 11.2364 75.7764 12.0923 76 12.9175V67.0277C75.9464 67.2874 75.8855 67.5457 75.8403 67.8069C75.4557 70.0291 74.6349 72.0541 73.3368 73.8527C71.5263 76.3612 69.2689 78.2479 66.4149 79.2926C65.5489 79.6096 64.6439 79.7542 63.7621 80Z" fill="#0C293B"/>
</g>
</svg>
