<svg width="82" height="77" viewBox="0 0 82 77" fill="none" xmlns="http://www.w3.org/2000/svg">
<path fill-rule="evenodd" clip-rule="evenodd" d="M53.2779 34.7257C50.7915 30.4524 47.3766 27.0975 43.0292 24.6568C38.6752 22.2225 33.8516 21 28.5498 21C23.1765 21 18.3183 22.2225 13.9665 24.6568C9.61686 27.0996 6.19989 30.4545 3.7221 34.7257C1.23565 39.0012 0 43.7784 0 49.0532C0 54.262 1.23781 59.003 3.7221 63.2785C6.19989 67.5519 9.61902 70.9089 13.9665 73.3432C18.3183 75.786 23.1765 77 28.5498 77C33.8516 77 38.6773 75.7839 43.0292 73.3432C47.3788 70.9089 50.7936 67.5497 53.2779 63.2785C55.7557 59.003 57 54.262 57 49.0532C57 43.7784 55.7557 39.0012 53.2779 34.7257ZM9.07369 37.6299C11.0429 34.2261 13.7285 31.5367 17.126 29.568C20.5256 27.5992 24.3321 26.6128 28.5476 26.6128C32.7631 26.6128 36.5674 27.5992 39.9649 29.568C43.3624 31.5367 46.035 34.2261 47.9718 37.6299C49.9085 41.038 50.8759 44.8457 50.8759 49.051C50.8759 53.2563 49.9085 57.0641 47.9718 60.4679C46.035 63.8759 43.3624 66.5441 39.9649 68.4809C36.5674 70.422 32.7631 71.3872 28.5476 71.3872C24.3321 71.3872 20.5235 70.422 17.126 68.4809C13.7285 66.5462 11.0451 63.8759 9.07369 60.4679C7.09795 57.0641 6.11549 53.2585 6.11549 49.051C6.11549 44.8436 7.09795 41.038 9.07369 37.6299Z" fill="#E8E2DC"/>
<path d="M79.1866 21.8109C79.7267 22.3494 80 23.0896 80 24.0314V73.2607C80 74.136 79.7267 74.8611 79.1866 75.4318C78.6465 76.0024 77.9041 76.292 76.9595 76.292C76.0773 76.292 75.3499 76.0046 74.7776 75.4318C74.2052 74.8611 73.9147 74.136 73.9147 73.2607V68.0046C71.6166 70.8343 68.8106 73.044 65.499 74.623C62.1852 76.2105 58.5723 77 54.6539 77C49.7198 77 45.3086 75.9874 41.4224 73.9686C37.5319 71.9456 34.4914 69 32.2966 65.1212C30.0974 61.2467 29 56.6149 29 51.2237V24.0314C29 23.1561 29.2883 22.4309 29.8629 21.8603C30.4353 21.2896 31.1626 21 32.0405 21C32.9184 21 33.6458 21.2875 34.2224 21.8603C34.7948 22.4309 35.0853 23.1561 35.0853 24.0314V51.2237C35.0853 57.6275 36.8928 62.5146 40.5057 65.8828C44.1229 69.251 48.8397 70.933 54.6517 70.933C58.2323 70.933 61.4966 70.2464 64.4338 68.8648C67.3753 67.4832 69.6907 65.561 71.382 63.1024C73.069 60.6439 73.9147 57.9322 73.9147 54.963V24.0314C73.9147 23.0896 74.203 22.3494 74.7776 21.8109C75.3499 21.2725 76.0773 21 76.9595 21C77.9041 21 78.6465 21.2725 79.1866 21.8109Z" fill="#E8E2DC"/>
<path fill-rule="evenodd" clip-rule="evenodd" d="M82 4.63383C82 3.15545 81.5666 2.01675 80.6917 1.2092C79.8209 0.401642 78.7734 0 77.5493 0C76.3211 0 75.2572 0.401642 74.3555 1.2092C73.4498 2.01675 73 3.15545 73 4.63383C73 5.97762 73.4169 7.09923 74.257 8.00506C75.097 8.91089 76.1588 9.36594 77.4507 9.36594C78.7426 9.36594 79.8209 8.91089 80.6917 8.00506C81.5666 7.09923 82 5.97762 82 4.63383ZM77.5493 20.9388C76.7113 20.9388 76.013 21.2101 75.4667 21.7463C74.9183 22.2826 74.6431 23.0196 74.6431 23.9575V72.9813C74.6431 73.8529 74.9204 74.575 75.4667 75.1433C76.013 75.7137 76.7113 76 77.5493 76C78.4509 76 79.1595 75.7116 79.675 75.1433C80.1906 74.575 80.4514 73.8529 80.4514 72.9813V23.9575C80.4514 23.0196 80.1906 22.2826 79.675 21.7463C79.1595 21.2101 78.4509 20.9388 77.5493 20.9388Z" fill="#E8E2DC"/>
</svg>
